<?xml version="1.0" encoding="utf-8"?>
<!-- Generator: Adobe Illustrator 16.0.0, SVG Export Plug-In . SVG Version: 6.00 Build 0)  -->
<!DOCTYPE svg PUBLIC "-//W3C//DTD SVG 1.1//EN" "http://www.w3.org/Graphics/SVG/1.1/DTD/svg11.dtd">
<svg version="1.1" id="Layer_1" xmlns="http://www.w3.org/2000/svg" xmlns:xlink="http://www.w3.org/1999/xlink" x="0px" y="0px"
	 width="265.667px" height="258.406px" viewBox="0 0 265.667 258.406" enable-background="new 0 0 265.667 258.406"
	 xml:space="preserve">
<g>
	<path fill="#858585" d="M228.655,96.425c-0.421,0.3-0.629,0.441-0.829,0.592c-2.063,1.551-4.414,2.172-6.94,1.856
		c-5.491-0.685-10.972-1.456-16.452-2.215c-3.403-0.47-6.836-0.811-10.194-1.506c-17.583-3.641-31.423-12.539-39.915-28.798
		c-2.81-5.379-4.713-11.095-5.8-17.048c-1.45-7.943-2.731-15.917-4.073-23.881c-0.377-2.236-0.721-4.477-1.098-6.828
		c-0.582,0-1.064,0-1.548,0c-39.706-0.005-79.411-0.012-119.116-0.008c-0.753,0.001-1.522,0.055-2.257,0.208
		c-1.208,0.254-1.818,1.004-1.929,2.248c-0.048,0.532-0.028,1.071-0.028,1.606c-0.005,23.18-0.007,46.36-0.013,69.54
		c-0.002,9.423,0.003,18.847-0.032,28.271c-0.005,1.241-0.08,2.517-0.368,3.718c-1.094,4.557-5.202,7.38-9.927,6.933
		c-4.288-0.406-7.788-4.142-8.092-8.649c-0.039-0.578-0.036-1.16-0.036-1.741C0.006,87.94,0.012,55.157,0,22.375
		c-0.002-4.669,1.023-9.048,3.632-12.955c3.948-5.91,9.597-8.882,16.619-9.368c0.801-0.055,1.607-0.038,2.411-0.038
		C71.792,0.013,120.92,0.02,170.05,0c4.373-0.001,8.637,0.514,12.746,2.048c5.861,2.188,10.518,5.962,14.289,10.895
		c5.319,6.95,10.653,13.89,15.963,20.848c9.728,12.743,19.408,25.521,29.18,38.23c3.32,4.319,4.939,9.096,4.913,14.534
		c-0.058,11.433,0,22.867-0.042,34.301c-0.006,1.364-0.169,2.781-0.563,4.082c-1.111,3.678-4.5,6.123-8.34,6.215
		c-4.005,0.097-7.209-2.022-8.654-5.729c-0.606-1.56-0.838-3.186-0.842-4.853c-0.014-7.548-0.029-15.096-0.046-22.643
		C228.654,97.501,228.655,97.076,228.655,96.425z M162.105,18.758c0.053,0.44,0.088,0.877,0.156,1.309
		c0.229,1.454,0.465,2.907,0.708,4.359c1.249,7.479,2.2,15.022,3.813,22.422c3.215,14.745,12.159,24.504,26.602,29.081
		c3.977,1.26,8.15,1.508,12.25,2.104c4.945,0.717,9.9,1.355,14.85,2.045c1.691,0.236,3.377,0.528,5.178,0.812
		c-0.342-0.471-0.617-0.87-0.912-1.255c-12.023-15.756-24.049-31.51-36.076-47.265c-1.949-2.555-3.891-5.116-5.848-7.666
		c-2.246-2.931-5.054-5.075-8.75-5.732C170.148,18.275,166.178,18.532,162.105,18.758z"/>
	<path fill="#858585" d="M158.893,120.589c0.957-2.216,1.702-4.383,2.78-6.37c5.676-10.453,14.439-16.549,26.301-17.617
		c16.671-1.502,29.477,9.507,33.779,22.645c5.064,15.458-1.506,32.389-15.646,40.146c-11.635,6.382-26.187,4.897-36.341-3.706
		c-4.854-4.111-8.275-9.193-10.307-15.219c-0.113-0.336-0.237-0.67-0.359-1.004c-0.016-0.041-0.053-0.072-0.137-0.188
		c-24.846,0-49.75,0-74.748,0c-0.19,0.524-0.379,1.065-0.58,1.603c-4.026,10.789-11.385,18.162-22.544,21.281
		c-14.543,4.067-29.541-2.424-37-15.73c-7.294-13.016-5.39-29.084,4.908-39.813c7.275-7.58,16.32-11.05,26.759-9.974
		c11.742,1.21,20.322,7.449,25.929,17.775c0.889,1.636,1.474,3.438,2.195,5.166c0.135,0.323,0.255,0.653,0.393,1.006
		C109.188,120.589,134.055,120.589,158.893,120.589z M205.123,129.904c-0.117-0.972-0.185-1.952-0.356-2.914
		c-1.433-7.979-9.464-13.363-17.228-11.563c-10.25,2.378-14.801,14.564-8.597,23.14c3.067,4.242,7.28,6.444,12.538,6.092
		C199.219,144.14,205.035,137.708,205.123,129.904z M67.184,129.98c-0.241-1.402-0.37-2.835-0.74-4.203
		c-2.046-7.565-9.629-12.108-17.097-10.299c-8.171,1.981-12.97,10.449-10.562,18.639c1.903,6.473,7.845,10.881,14.285,10.594
		C60.787,144.369,67.078,137.746,67.184,129.98z"/>
	<path fill="#858585" d="M70.31,188.132c0.54,0,0.979,0,1.418,0c9.736,0,19.473,0.002,29.209,0
		c5.414-0.002,10.671,0.807,15.657,3.014c3.219,1.425,6.105,3.333,8.499,5.943c3.241,3.537,5.095,7.709,5.73,12.445
		c0.51,3.805,0.389,7.584-0.663,11.285c-1.81,6.364-5.787,10.969-11.609,14.028c-0.551,0.288-1.111,0.562-1.852,0.935
		c5.165,7.485,10.375,14.86,15.616,22.426c-0.441,0.062-0.721,0.133-1.001,0.135c-5.091,0.007-10.183-0.016-15.274,0.023
		c-0.825,0.008-1.289-0.307-1.731-0.951c-4.047-5.887-8.13-11.748-12.172-17.639c-0.471-0.686-0.938-1.029-1.829-1.018
		c-4.197,0.055-8.396,0.023-12.594,0.027c-0.349,0-0.698,0.029-1.238,0.057c0,6.5,0,12.941,0,19.435c-5.489,0-10.783,0-16.165,0
		C70.31,234.919,70.31,211.63,70.31,188.132z M86.53,225.729c0.449,0.03,0.754,0.069,1.059,0.069
		c4.242,0.002,8.484,0.031,12.726-0.018c1.377-0.015,2.77-0.134,4.126-0.375c5.155-0.916,9.638-3.91,10.162-10.55
		c0.509-6.442-2.386-11.097-8.72-12.733c-1.839-0.477-3.781-0.703-5.684-0.752c-4.239-0.111-8.483-0.041-12.725-0.035
		c-0.299,0-0.598,0.068-0.944,0.111C86.53,209.539,86.53,217.563,86.53,225.729z"/>
	<path fill="#858585" d="M160.201,229.018c0,5.558,0,10.854,0,16.259c12.707,0,25.33,0,38.045,0c0,4.365,0,8.624,0,12.979
		c-18.047,0-36.063,0-54.179,0c0-23.311,0-46.596,0-69.887c0.894-0.289,50.913-0.392,52.867-0.091c0,4.205,0,8.423,0,12.843
		c-4.063,0.002-8.104,0.002-12.149,0.004c-4.109,0-8.217,0-12.324,0c-4.053,0-8.104,0-12.25,0c0,5.121,0,10.098,0,15.248
		c10.812,0,21.588,0,32.436,0c0,4.26,0,8.348,0,12.625c-2.736,0.045-5.439,0.015-8.145,0.021c-2.68,0.006-5.358,0.001-8.039,0.001
		c-2.724,0-5.446,0-8.172,0C165.623,229.018,162.957,229.018,160.201,229.018z"/>
	<path fill="#858585" d="M211.316,258.248c0-23.367,0-46.656,0-70.031c17.645,0,35.221,0,52.893,0c0,4.264,0,8.516,0,12.89
		c-12.231,0-24.408,0-36.547,0c-0.303,1.08-0.391,12.989-0.123,15.237c1.506,0.084,3.049,0.025,4.588,0.035
		c1.519,0.012,3.037,0.002,4.556,0.002c1.563,0,3.126,0,4.688,0c1.521,0,3.037,0,4.557,0c1.563,0,3.126,0,4.688,0
		c1.521,0,3.037,0,4.556,0c1.554,0,3.106,0,4.748,0c0,4.222,0,8.308,0,12.564c-3.572,0.156-7.166,0.049-10.758,0.066
		c-3.572,0.021-7.146,0.006-10.72,0.006c-3.608,0-7.219,0-10.795,0c-0.286,1.098-0.341,14.65-0.079,16.229
		c12.604,0,25.227,0,37.814,0c0.291,1.049,0.387,10.682,0.156,12.889C264.58,258.404,214.121,258.525,211.316,258.248z"/>
	<path fill="#858585" d="M22.491,201.123c0,6.291,0,12.351,0,18.58c10.8,0,21.535,0,32.35,0c0,4.389,0,8.607,0,12.998
		c-10.766,0-21.497,0-32.42,0c0,8.62,0,17.073,0,25.582c-5.487,0-10.781,0-16.168,0c0-23.353,0-46.64,0-69.931
		c0.911-0.271,51.1-0.356,52.884-0.074c0,4.203,0,8.421,0,12.832c-4.071,0.005-8.114,0.011-12.158,0.013
		c-4.063,0.002-8.127,0-12.191,0C30.733,201.123,26.679,201.123,22.491,201.123z"/>
</g>
</svg>
