<svg width="31" height="31" viewBox="0 0 31 31" fill="none" xmlns="http://www.w3.org/2000/svg">
<path fill-rule="evenodd" clip-rule="evenodd" d="M0 30.7374H30.7384V0.000305176H0V30.7374Z" fill="#F23F28"/>
<path d="M19.2718 12.5474C18.0155 11.3506 16.2222 12.5474 15.0672 13.8478C13.8657 12.5474 11.9715 11.227 10.6778 12.5474C9.29168 13.9621 10.1694 16.0485 12.0638 17.9991C13.9581 19.9497 14.1585 20.1664 15.0672 21L15.0799 20.9883C16.0149 20.1255 16.9204 19.2899 18.0703 17.9991C20.3344 15.4578 20.427 13.6478 19.2718 12.5474Z" stroke="white" stroke-width="1.5"/>
<path fill-rule="evenodd" clip-rule="evenodd" d="M9.54076 9.60295H11.8968V8.23895H9.54076H8.17676V11.959H9.54076V9.60295Z" fill="white"/>
<path fill-rule="evenodd" clip-rule="evenodd" d="M21.0747 11.9588H22.4387V9.60283V8.23883H18.7188V9.60283H21.0747V11.9588Z" fill="white"/>
<path fill-rule="evenodd" clip-rule="evenodd" d="M21.0747 21.1349H18.7188V22.4989H21.0747H22.4387V18.9029H21.0747V21.1349Z" fill="white"/>
<path fill-rule="evenodd" clip-rule="evenodd" d="M9.54076 18.903H8.17676V21.135V22.499H11.8968V21.135H9.54076V18.903Z" fill="white"/>
</svg>
