<svg width="164" height="26" viewBox="0 0 164 26" fill="none" xmlns="http://www.w3.org/2000/svg">
<path fill-rule="evenodd" clip-rule="evenodd" d="M0.000166897 25.0807C0.167898 24.9704 0.3862 24.8937 0.496185 24.7446C2.45072 22.0916 4.38722 19.4264 6.34225 16.7736C6.6208 16.3958 6.64851 16.0906 6.37012 15.6933C4.66177 13.257 2.97444 10.8072 1.28194 8.36069C1.19215 8.23097 1.10452 8.09694 1.03977 7.9548C0.822635 7.47776 0.987196 7.12408 1.5231 7.10705C2.77833 7.06725 4.03974 7.04194 5.28963 7.12853C5.64279 7.15289 6.0637 7.52169 6.28484 7.8394C7.60132 9.73134 8.88009 11.6471 10.1463 13.5703C10.7186 14.4392 11.6035 14.7741 12.6111 14.3873C12.827 14.3044 13.0335 14.115 13.1628 13.9244C14.5245 11.9165 15.8777 9.90308 17.2143 7.87967C17.5916 7.3084 18.0871 7.0386 18.7959 7.05866C19.7426 7.0854 20.6906 7.06391 21.6374 7.08365C22.5273 7.10227 22.7706 7.53968 22.2841 8.27013C21.6899 9.16261 21.0624 10.0349 20.4517 10.9172C19.3601 12.4941 18.2797 14.078 17.1734 15.6456C16.8771 16.0653 16.877 16.3951 17.1909 16.8182C19.1641 19.4782 21.1186 22.151 23.057 24.8342C23.2256 25.0675 23.3734 25.4686 23.2724 25.6786C23.1842 25.8621 22.7334 25.9605 22.4391 25.9675C21.2013 25.9974 19.9619 25.9716 18.7232 25.9815C18.2397 25.9855 17.9045 25.8034 17.6367 25.4164C16.1735 23.3032 14.6973 21.1982 13.2211 19.0931C12.45 17.9934 10.9583 18.0201 10.1959 19.1214C8.75341 21.205 7.28622 23.2732 5.8459 25.358C5.53163 25.8129 5.13726 26.0087 4.56997 25.988C3.11747 25.9352 1.66396 25.9078 0.210624 25.8734C0.140861 25.8717 0.0702636 25.9002 0 25.9146C0.000166897 25.6369 0.000166897 25.3588 0.000166897 25.0807Z" fill="#FF644B"/>
<path fill-rule="evenodd" clip-rule="evenodd" d="M164 17.9908C161.418 18.5693 158.796 18.1248 156.197 18.2588C155.436 18.2981 155.317 18.3748 155.316 19.1164C155.311 21.1145 155.316 23.1123 155.313 25.1103C155.312 25.795 155.138 25.9677 154.408 25.9771C153.498 25.9889 152.587 25.9876 151.676 25.9792C150.952 25.9723 150.711 25.736 150.708 25.0225C150.701 23.0767 150.702 21.1311 150.702 19.185C150.702 18.3557 150.604 18.2609 149.729 18.2605C147.598 18.2602 145.467 18.261 143.335 18.2582C142.427 18.257 142.185 18.0218 142.18 17.1377C142.177 16.5642 142.169 15.9907 142.187 15.4179C142.204 14.8417 142.461 14.5997 143.069 14.5975C145.309 14.5881 147.55 14.5899 149.791 14.5875C150.606 14.5867 150.702 14.4955 150.702 13.722C150.702 11.8631 150.698 10.0041 150.705 8.14509C150.709 7.33156 150.952 7.0912 151.811 7.07465C152.667 7.0581 153.524 7.06192 154.38 7.08452C155.136 7.10442 155.31 7.28699 155.312 7.99849C155.316 9.87498 155.311 11.7512 155.317 13.6277C155.319 14.517 155.4 14.587 156.303 14.5868C158.344 14.5867 160.384 14.5696 162.424 14.601C162.95 14.609 163.474 14.771 163.999 14.8624C164 15.9053 164 16.948 164 17.9908Z" fill="#FF644B"/>
<path fill-rule="evenodd" clip-rule="evenodd" d="M55.6918 19.0022C55.9747 18.7259 56.2833 18.4693 56.5365 18.1702C59.3342 14.864 62.1601 11.5783 64.8905 8.22202C65.6302 7.31266 66.4273 6.93844 67.58 7.05623C68.1388 7.11338 68.7084 7.06706 69.2727 7.08456C69.9203 7.10462 70.1563 7.31155 70.2415 7.91306C70.2609 8.04979 70.2516 8.1905 70.2516 8.32946C70.2519 13.8018 70.2526 19.2744 70.2494 24.7467C70.2492 24.953 70.2289 25.1619 70.1898 25.3647C70.1095 25.7811 69.8527 25.9858 69.3899 25.9807C68.3519 25.969 67.3135 25.9877 66.2752 25.977C65.5766 25.9697 65.3268 25.7239 65.3254 25.0535C65.3194 22.0828 65.3203 19.1122 65.3184 16.1414C65.3181 15.6029 65.3309 15.0638 65.3054 14.5264C65.2994 14.3998 65.162 14.2789 65.0851 14.1555C64.9666 14.2232 64.8151 14.2655 64.7341 14.3621C62.7804 16.6892 60.8334 19.0213 58.8874 21.3541C57.8122 22.643 56.7436 23.9367 55.6664 25.2241C55.25 25.7218 54.7462 26.0313 54.0292 25.9967C53.2297 25.9579 52.4266 25.9904 51.6252 25.9821C50.7462 25.9729 50.5662 25.7998 50.5649 24.9713C50.5619 22.9215 50.5626 20.8714 50.5626 18.8215C50.5626 15.26 50.5621 11.6985 50.5642 8.13718C50.5647 7.35962 50.8114 7.09555 51.624 7.0774C52.5525 7.05671 53.4819 7.06499 54.4104 7.08361C55.1874 7.09921 55.4803 7.39591 55.4895 8.15548C55.5002 9.04128 55.492 9.9274 55.492 10.8135C55.4922 13.1936 55.4924 15.5736 55.4925 17.9537C55.4925 18.2786 55.4925 18.6035 55.4925 18.9285C55.559 18.9527 55.6254 18.9774 55.6918 19.0022Z" fill="#FF644B"/>
<path fill-rule="evenodd" clip-rule="evenodd" d="M108.17 25.973C106.185 25.973 104.199 25.9805 102.214 25.9711C99.9409 25.9604 97.8005 24.383 97.2661 22.2624C97.0648 21.4627 96.952 20.6257 96.9373 19.8035C96.8948 17.4066 96.8675 15.0072 96.937 12.6115C97.0146 9.93424 98.5208 7.98484 101.255 7.26792C101.875 7.10557 102.548 7.08392 103.198 7.0801C105.748 7.06498 108.298 7.05941 110.848 7.0949C113.359 7.12992 115.821 9.01676 116.303 11.3544C116.486 12.2415 116.409 13.1882 116.354 14.1027C116.336 14.4076 116.072 14.7454 115.83 14.9843C114.703 16.0958 113.549 17.182 112.396 18.2689C111.954 18.6856 111.437 18.8965 110.782 18.8906C108.032 18.8662 105.281 18.8793 102.53 18.881C101.862 18.8814 101.729 19.0063 101.75 19.6486C101.801 21.2373 102.724 22.2461 104.47 22.2224C107.639 22.1793 110.809 22.2097 113.979 22.2105C115.022 22.2106 115.331 22.4526 115.389 23.4398C115.423 24.025 115.389 24.62 115.318 25.2031C115.238 25.8525 115.074 25.9738 114.4 25.9764C112.324 25.9845 110.247 25.9794 108.17 25.9794C108.17 25.9771 108.17 25.9749 108.17 25.973ZM107.111 15.2802C107.111 15.2729 107.111 15.2656 107.111 15.2583C108.386 15.2583 109.66 15.2511 110.935 15.2606C111.768 15.2669 111.878 15.1772 111.88 14.3815C111.88 14.0342 111.892 13.6856 111.869 13.3396C111.75 11.6267 110.965 10.7078 109.454 10.6607C107.743 10.6072 106.028 10.613 104.317 10.6623C102.959 10.7016 101.979 11.4836 101.861 12.5423C101.788 13.1963 101.768 13.8574 101.76 14.5156C101.752 15.1257 101.949 15.2829 102.579 15.2815C104.09 15.2777 105.601 15.2802 107.111 15.2802Z" fill="#FF644B"/>
<path fill-rule="evenodd" clip-rule="evenodd" d="M34.5274 7.08794C36.3851 7.08794 38.2432 7.07202 40.1006 7.0916C42.7901 7.11978 44.912 8.72265 45.5491 11.2062C45.6726 11.6882 45.7504 12.1936 45.754 12.6889C45.7739 15.3987 45.7827 18.1086 45.7435 20.8181C45.7379 21.2127 45.5591 21.6975 45.2811 21.9804C44.0612 23.2208 42.7938 24.4206 41.4982 25.5896C41.2393 25.8231 40.7833 25.963 40.4165 25.9659C37.357 25.9917 34.2957 26.024 31.2373 25.9567C28.598 25.8989 25.8931 23.3607 25.9622 20.7759C25.9886 19.7927 25.907 18.8176 26.2647 17.8455C26.9841 15.8894 29.4569 14.2767 31.3939 14.2768C34.3056 14.2772 37.2173 14.2393 40.1289 14.2186C40.9035 14.213 40.9409 14.1778 40.9417 13.4132C40.9437 11.5825 39.9764 10.6474 38.0628 10.6448C34.9481 10.6408 31.8337 10.6442 28.719 10.6432C27.7958 10.6431 27.6759 10.5753 27.5631 9.70762C27.4898 9.14382 27.4737 8.56157 27.5322 7.99682C27.6095 7.25077 27.8285 7.08667 28.6262 7.07409C29.8645 7.05467 31.1032 7.06582 32.3417 7.06454C33.0702 7.06391 33.7987 7.06454 34.5274 7.06454C34.5274 7.07234 34.5274 7.08014 34.5274 7.08794ZM36.8634 22.3149C36.8634 22.327 36.8634 22.3391 36.8634 22.3514C38.0274 22.3514 39.1912 22.3514 40.3549 22.3514C40.7827 22.3512 40.9589 22.1685 40.9496 21.7411C40.9252 20.6309 40.9244 19.5197 40.9492 18.4096C40.9606 17.8993 40.7154 17.733 40.2266 17.7346C37.9157 17.742 35.6049 17.7306 33.2942 17.7489C32.4851 17.7553 31.7544 17.9962 31.2257 18.6294C30.6322 19.3401 30.4731 20.1336 30.8692 20.9631C31.2639 21.7897 31.9141 22.3215 32.9362 22.3165C34.2453 22.31 35.5545 22.3149 36.8634 22.3149Z" fill="#FF644B"/>
<path fill-rule="evenodd" clip-rule="evenodd" d="M120.755 16.5164C120.755 14.0319 120.755 11.5469 120.755 9.062C120.755 7.13553 120.837 7.05499 122.821 7.06358C123.404 7.06613 123.987 7.06485 124.57 7.07854C125.445 7.09892 125.681 7.33879 125.682 8.19514C125.684 9.91533 125.683 11.6355 125.683 13.3559C125.684 14.4914 125.684 14.4914 126.842 14.4917C127.808 14.492 128.774 14.4763 129.739 14.4989C130.235 14.5105 130.557 14.3177 130.815 13.9302C132.141 11.9405 133.489 9.96404 134.807 7.97007C135.212 7.35853 135.716 7.02172 136.503 7.05499C137.43 7.09414 138.361 7.06294 139.29 7.08157C140.268 7.10131 140.496 7.49892 139.962 8.3002C139.113 9.57247 138.233 10.8261 137.363 12.085C136.552 13.2576 135.742 14.4308 134.919 15.5959C134.607 16.0378 134.598 16.4211 134.937 16.8772C136.638 19.1693 138.311 21.4802 139.996 23.7839C140.287 24.182 140.599 24.5669 140.873 24.975C141.295 25.6038 141.094 25.9659 140.316 25.9735C139.04 25.9864 137.765 25.9657 136.49 25.987C135.955 25.996 135.604 25.7816 135.318 25.3701C133.873 23.2862 132.401 21.2192 130.973 19.1248C130.598 18.5751 130.193 18.2971 129.469 18.342C128.435 18.4063 127.393 18.3763 126.355 18.3504C125.849 18.3378 125.676 18.5341 125.679 18.9946C125.689 20.9406 125.684 22.8868 125.682 24.833C125.681 25.7626 125.47 25.9734 124.506 25.9818C123.577 25.9898 122.647 25.9732 121.718 25.9828C121.194 25.9882 120.887 25.7859 120.848 25.2671C120.82 24.9045 120.76 24.5422 120.759 24.1798C120.751 21.6252 120.755 19.0708 120.755 16.5164Z" fill="#FF644B"/>
<path fill-rule="evenodd" clip-rule="evenodd" d="M83.9096 7.07085C86.8606 7.07085 89.8115 7.06608 92.7626 7.07308C93.9631 7.07595 94.1981 7.31089 94.1943 8.44579C94.1924 8.91424 94.2211 9.38794 94.16 9.85018C94.0571 10.6261 93.7538 10.8498 92.9257 10.8507C90.9948 10.853 89.0637 10.8511 87.133 10.8519C86.3354 10.8522 86.2223 10.9561 86.2219 11.7236C86.2204 16.0321 86.2221 20.3407 86.2214 24.649C86.2214 24.8919 86.2346 25.1385 86.1974 25.3772C86.1403 25.7452 85.919 25.9728 85.5006 25.9732C84.3896 25.974 83.2785 25.9781 82.1673 25.9732C81.6982 25.9709 81.4937 25.6747 81.4126 25.2855C81.3776 25.1178 81.3953 24.9395 81.3951 24.7658C81.3944 20.4228 81.3946 16.0796 81.3943 11.7364C81.3941 10.898 81.3455 10.8515 80.47 10.8514C78.5755 10.8511 76.6811 10.8525 74.7866 10.8507C73.8116 10.8499 73.5276 10.58 73.5199 9.64691C73.5151 9.07357 73.5124 8.50023 73.5227 7.92705C73.5323 7.40591 73.7946 7.14009 74.347 7.08757C74.6001 7.06353 74.8564 7.06369 75.1113 7.06353C78.044 7.0621 80.9769 7.06258 83.9096 7.06258C83.9096 7.06528 83.9096 7.06815 83.9096 7.07085Z" fill="#FF644B"/>
<path fill-rule="evenodd" clip-rule="evenodd" d="M60.3646 3.56715C57.7424 3.56715 55.1197 3.55537 52.4975 3.57638C51.927 3.58099 51.6086 3.365 51.5947 2.84864C51.5747 2.10801 51.5849 1.36148 51.6685 0.62642C51.6905 0.432706 52.0016 0.209067 52.2321 0.112768C52.4856 0.00675823 52.7994 0.00421146 53.0869 0.00389312C57.9677 -0.00199629 62.8484 -0.000404562 67.7291 -0.000563735C67.8021 -0.000563735 67.8748 -0.00167795 67.9478 -0.000245388C69.0052 0.0223572 69.2649 0.272578 69.2661 1.27139C69.2668 1.72296 69.2781 2.17502 69.2629 2.62611C69.238 3.37343 69.0611 3.55648 68.2864 3.56492C66.7932 3.58115 65.2998 3.57351 63.8066 3.57463C62.6591 3.57558 61.5119 3.57479 60.3645 3.57479C60.3646 3.5724 60.3646 3.56985 60.3646 3.56715Z" fill="#FF644B"/>
</svg>
