<svg id="Слой_1" data-name="Слой 1" xmlns="http://www.w3.org/2000/svg" xmlns:xlink="http://www.w3.org/1999/xlink" viewBox="0 0 400 152"><defs><style>.cls-1{fill:none;}.cls-2{clip-path:url(#clip-path);}.cls-3{fill:#fff;fill-rule:evenodd;}</style><clipPath id="clip-path"><rect class="cls-1" width="400" height="152"/></clipPath></defs><title>nootris-logo</title><g class="cls-2"><path class="cls-3" d="M49.14,97.46a4,4,0,0,0,3.84,4.1h.16a4,4,0,0,0,4-4.06V71.66c0-10.4,6.3-15.5,13.9-15.5,7.8,0,14,5.2,14,15.5v25.8a4,4,0,0,0,3.84,4.1H89a4,4,0,0,0,4-4.06V71.86c0-14.5-9.3-23.1-21-23.1A20.24,20.24,0,0,0,57.14,55V53a4,4,0,0,0-4-4,4,4,0,0,0-4,3.9v44.6Zm78.35,4.3c15,0,26.3-11.7,26.3-26.5s-11.3-26.5-26.3-26.5a26.5,26.5,0,1,0,0,53m0-7.4c-10.3,0-18.3-8.6-18.3-19.1s8-19.1,18.3-19.1,18.2,8.5,18.2,19.1-7.9,19.1-18.2,19.1Zm58.81,7.4c15,0,26.3-11.7,26.3-26.5s-11.3-26.5-26.3-26.5a26.5,26.5,0,1,0,0,53m0-7.4c-10.3,0-18.3-8.6-18.3-19.1s8-19.1,18.3-19.1,18.2,8.5,18.2,19.1-7.9,19.1-18.2,19.1Zm42.35,3.1a4,4,0,0,0,3.84,4.1h.16a4,4,0,0,0,4-4.06V57.16h11.5a3.69,3.69,0,0,0,3.7-3.68v0a3.64,3.64,0,0,0-3.56-3.7H217.05a3.69,3.69,0,0,0-3.7,3.68v0a3.76,3.76,0,0,0,3.7,3.7h11.6Zm28.88,0a4,4,0,0,0,3.84,4.1h.16a4,4,0,0,0,4-4.06V57.16h9.4c5.6,0,9.1,3.9,9.1,8.7s-3.6,8.7-9,8.7h-1.2A3.83,3.83,0,0,0,270,78.4a.13.13,0,0,0,0,.06,4.27,4.27,0,0,0,1,2.8l15.9,18.8a3.68,3.68,0,0,0,3,1.5A4,4,0,0,0,293,95l-11.8-13.9a7.94,7.94,0,0,0,1.6-.6,16.17,16.17,0,0,0-7.3-30.7h-14a3.89,3.89,0,0,0-4,3.78.81.81,0,0,0,0,.22Zm44.17,0a4,4,0,0,0,3.84,4.1h.16a4,4,0,0,0,4-4.06V53a4,4,0,0,0-4-4,4,4,0,0,0-4,3.9.17.17,0,0,0,0,.1Zm4-55.1a5.08,5.08,0,0,0,5-5,5,5,0,0,0-5-5,4.94,4.94,0,0,0-5,4.9.17.17,0,0,0,0,.1,5,5,0,0,0,5,5Zm12.92,47c0,6.5,7.2,12.4,15.9,12.4,9.1,0,15.9-6.8,15.9-14.7,0-9.4-6.5-12.9-12.8-14.8-5.9-1.9-10.7-3.7-10.7-9a7.29,7.29,0,0,1,7.14-7.41h.56a8.51,8.51,0,0,1,8.4,5.7,3.49,3.49,0,0,0,3.5,2.8,3.58,3.58,0,0,0,3.6-3.57v0c0-6.8-7.1-12-15.5-12-8.9,0-15.4,6.3-15.4,14.5,0,9.9,7,12.6,13.9,14.9,5.3,1.8,9.3,4.1,9.3,9.1,0,3.8-3.1,7.3-7.9,7.3a9,9,0,0,1-8.9-6.4,3.6,3.6,0,0,0-7,1.2ZM157,131.9c20.3,0,32.9-9.1,35.1-10.7a4.89,4.89,0,0,0,2.1-3.7,3.71,3.71,0,0,0-3.62-3.8h-.08a4.26,4.26,0,0,0-2.3.8,56.49,56.49,0,0,1-62.4,0,4.23,4.23,0,0,0-2.3-.8,3.72,3.72,0,0,0-3.7,3.73v.07a5,5,0,0,0,2.1,3.7c2.2,1.6,14.9,10.7,35.1,10.7"/></g></svg>