<svg width="178" height="31" viewBox="0 0 178 31" fill="none" xmlns="http://www.w3.org/2000/svg">
<path fill-rule="evenodd" clip-rule="evenodd" d="M0.000231861 0.231445C1.53886 0.231445 3.0775 0.231445 4.63897 0.231445C5.62959 8.11983 6.61698 15.9829 7.60447 23.8458C7.6345 23.8479 7.66441 23.8497 7.69432 23.8517C8.55638 15.9851 9.41832 8.11844 10.2818 0.238849C11.8211 0.238849 13.3353 0.238849 14.8722 0.238849C14.8722 0.487678 14.8722 0.72251 14.8722 0.991236C14.5296 0.991236 14.1985 0.991236 13.8484 0.991236C13.8484 10.6662 13.8484 20.3077 13.8484 29.9864C14.1834 29.9864 14.5138 29.9864 14.8696 29.9864C14.8696 30.2586 14.8696 30.4942 14.8696 30.7552C13.0097 30.7552 11.1504 30.7552 9.26645 30.7552C9.26645 30.5184 9.26645 30.2828 9.26645 30.008C9.5979 30.008 9.92795 30.008 10.2957 30.008C10.2957 23.1042 10.2957 16.239 10.2957 9.37346C10.2863 9.37092 10.277 9.36837 10.2677 9.36571C9.46446 16.4926 8.66118 23.6197 7.85604 30.7622C6.92419 30.7622 6.01251 30.7622 5.06362 30.7622C4.11287 23.6014 3.1627 16.4444 2.21254 9.28774C2.20106 9.28809 2.18958 9.28855 2.17811 9.28913C2.17811 16.1764 2.17811 23.0637 2.17811 29.9834C2.531 29.9834 2.87357 29.9834 3.24165 29.9834C3.24165 30.2512 3.24165 30.4874 3.24165 30.7712C2.16709 30.7712 1.08349 30.7712 0 30.7712C0 30.5167 0 30.2623 0 30.0077C0.355907 30.0077 0.711698 30.0077 1.08534 30.0077C1.08534 20.3192 1.08534 10.675 1.08534 0.994938C0.711582 0.994938 0.355791 0.994938 0 0.994938C0.000231861 0.740441 0.000231861 0.485943 0.000231861 0.231445Z" fill="black"/>
<path fill-rule="evenodd" clip-rule="evenodd" d="M178.001 30.7699C176.14 30.7699 174.278 30.7699 172.399 30.7699C172.399 30.5085 172.399 30.2819 172.399 30.0055C172.755 30.0055 173.105 30.0055 173.483 30.0055C173.214 27.0227 172.95 24.0917 172.683 21.1416C171.634 21.1416 170.609 21.1416 169.545 21.1416C169.256 24.0818 168.968 27.0193 168.676 29.9958C169.044 29.9958 169.375 29.9958 169.73 29.9958C169.73 30.2659 169.73 30.5007 169.73 30.7573C168.657 30.7573 167.598 30.7573 166.516 30.7573C166.516 30.507 166.516 30.2722 166.516 30.0033C166.866 30.0033 167.198 30.0033 167.569 30.0033C168.596 20.0689 169.62 10.1635 170.646 0.241211C171.804 0.241211 172.935 0.241211 174.123 0.241211C175.072 10.1474 176.022 20.0577 176.975 30.0064C177.335 30.0064 177.668 30.0064 178.002 30.0064C178.001 30.261 178.001 30.5154 178.001 30.7699ZM171.227 4.05972C171.199 4.06133 171.172 4.06272 171.144 4.06423C170.625 9.47947 170.106 14.8947 169.586 20.3293C170.618 20.3293 171.62 20.3293 172.649 20.3293C172.174 14.8904 171.7 9.47508 171.227 4.05972Z" fill="black"/>
<path fill-rule="evenodd" clip-rule="evenodd" d="M59.3639 14.638C59.7165 14.8308 60.0356 14.9904 60.3398 15.1748C61.7385 16.0227 62.3987 17.272 62.3938 18.9003C62.3841 22.0692 62.391 25.2379 62.391 28.4067C62.391 28.5108 62.3904 28.615 62.3911 28.719C62.3975 29.6173 62.5663 29.8319 63.4447 30.0355C63.4447 30.2663 63.4447 30.5022 63.4447 30.7792C62.4165 30.743 61.3961 30.9076 60.4171 30.4888C59.6756 30.1714 59.2204 29.6099 59.0605 28.8483C58.943 28.288 58.8938 27.7043 58.8913 27.1308C58.8762 23.7539 58.8802 20.3769 58.8862 17C58.8874 16.2522 58.6652 15.6277 57.9735 15.2624C57.7454 15.1419 57.474 15.062 57.2171 15.0451C56.7108 15.0117 56.201 15.0353 55.6619 15.0353C55.6619 20.0121 55.6619 24.9773 55.6619 29.9877C55.9918 29.9877 56.3319 29.9877 56.6958 29.9877C56.6958 30.2673 56.6958 30.5019 56.6958 30.7584C54.8081 30.7584 52.936 30.7584 51.043 30.7584C51.043 30.5168 51.043 30.2796 51.043 30.0001C51.3947 30.0001 51.7355 30.0001 52.0936 30.0001C52.0936 20.3181 52.0936 10.6781 52.0936 0.999311C51.7466 0.999311 51.4049 0.999311 51.0439 0.999311C51.0439 0.733708 51.0439 0.506396 51.0439 0.25051C51.1244 0.241834 51.2116 0.22425 51.2991 0.22425C53.4084 0.225291 55.5207 0.16132 57.6262 0.251088C59.4571 0.329288 60.9224 1.18706 61.8891 2.78265C62.2501 3.37852 62.3894 4.04761 62.3902 4.74216C62.3923 6.662 62.3897 8.58172 62.3913 10.5016C62.3928 12.3408 61.5086 13.6083 59.8759 14.3951C59.7198 14.4704 59.5628 14.5437 59.3639 14.638ZM55.6445 14.2407C56.234 14.2407 56.7912 14.279 57.3409 14.232C58.2462 14.1548 58.8836 13.4055 58.8842 12.4879C58.8849 11.459 58.8843 10.4304 58.8843 9.40166C58.8843 7.2286 58.8884 5.05554 58.8821 2.88248C58.8793 1.89919 58.3768 1.19111 57.4793 1.05368C56.8851 0.962756 56.2655 1.03644 55.6443 1.03644C55.6445 5.42711 55.6445 9.81615 55.6445 14.2407Z" fill="black"/>
<path fill-rule="evenodd" clip-rule="evenodd" d="M76.8547 0.999253C76.4751 0.999253 76.132 0.999253 75.7656 0.999253C75.7656 0.734229 75.7656 0.499628 75.7656 0.243164C77.6469 0.243164 79.5191 0.243164 81.4161 0.243164C81.4161 0.484474 81.4161 0.719422 81.4161 0.988611C81.0622 0.988611 80.7198 0.988611 80.3567 0.988611C80.3498 1.10996 80.3401 1.19903 80.3401 1.28799C80.3396 10.2993 80.3411 19.3105 80.3367 28.3218C80.3364 29.0113 80.5733 29.5638 81.1624 29.9399C82.2551 30.6373 83.7373 29.883 83.8161 28.5923C83.8246 28.454 83.8212 28.3148 83.8212 28.1759C83.8214 19.2571 83.8214 10.3385 83.8214 1.41987C83.8214 1.29389 83.8214 1.1678 83.8214 1.00029C83.4626 1.00029 83.1219 1.00029 82.7636 1.00029C82.7636 0.730758 82.7636 0.502983 82.7636 0.24837C84.632 0.24837 86.5023 0.24837 88.3958 0.24837C88.3958 0.486209 88.3958 0.721041 88.3958 0.983752C88.0536 0.983752 87.7211 0.983752 87.328 0.983752C87.328 1.16526 87.328 1.3205 87.328 1.47574C87.328 9.6657 87.282 17.856 87.3529 26.0454C87.3774 28.8599 85.4857 30.3331 83.4928 30.8125C81.476 31.2974 79.6505 30.836 78.1039 29.4366C77.3244 28.7312 76.8863 27.8198 76.8701 26.7694C76.8375 24.6646 76.8553 22.559 76.855 20.4536C76.8541 14.1261 76.8547 7.79862 76.8547 1.471C76.8547 1.32385 76.8547 1.17671 76.8547 0.999253Z" fill="black"/>
<path fill-rule="evenodd" clip-rule="evenodd" d="M135.154 9.36853C133.995 9.36853 132.861 9.36853 131.683 9.36853C131.677 9.22798 131.666 9.09529 131.666 8.9626C131.665 6.91529 131.666 4.86797 131.663 2.82077C131.663 2.58998 131.653 2.35781 131.626 2.12865C131.527 1.26914 130.954 0.76813 130.107 0.788605C129.254 0.809196 128.705 1.32363 128.63 2.18094C128.613 2.37644 128.613 2.57379 128.612 2.77033C128.611 4.37806 128.627 5.98602 128.607 7.59352C128.589 9.12236 129.014 10.5054 129.848 11.7813C131.197 13.8438 132.524 15.9199 133.871 17.9829C134.737 19.3078 135.19 20.7433 135.165 22.3332C135.144 23.6515 135.14 24.9707 135.166 26.2888C135.205 28.3105 134.226 29.6627 132.443 30.4895C130.384 31.4434 127.907 31.026 126.288 29.4406C125.624 28.791 125.178 27.9789 125.148 27.0479C125.09 25.2802 125.118 23.5096 125.112 21.7402C125.112 21.7085 125.13 21.6768 125.145 21.6289C126.288 21.6289 127.43 21.6289 128.611 21.6289C128.611 21.7623 128.611 21.8858 128.611 22.009C128.611 24.0678 128.611 26.1267 128.612 28.1856C128.612 28.359 128.613 28.5328 128.622 28.7058C128.69 29.9435 129.727 30.5701 130.865 30.0626C131.337 29.8523 131.552 29.4612 131.616 28.9755C131.649 28.7241 131.662 28.4683 131.663 28.2145C131.667 26.5837 131.654 24.9527 131.668 23.3219C131.681 21.7376 131.26 20.2963 130.386 18.9671C129.026 16.8986 127.707 14.8039 126.356 12.7293C125.497 11.4095 125.085 9.97169 125.102 8.40097C125.114 7.22126 125.14 6.04016 125.098 4.86184C125.008 2.37817 126.487 0.84124 128.645 0.229289C130.458 -0.285028 132.143 0.0684926 133.624 1.22703C134.581 1.97537 135.136 2.98446 135.161 4.21299C135.196 5.88931 135.177 7.56692 135.18 9.24382C135.18 9.27702 135.167 9.31011 135.154 9.36853Z" fill="black"/>
<path fill-rule="evenodd" clip-rule="evenodd" d="M111.42 9.36336C110.258 9.36336 109.126 9.36336 107.946 9.36336C107.946 9.21471 107.946 9.08087 107.946 8.9468C107.946 6.88779 107.951 4.82879 107.94 2.76979C107.939 2.43837 107.904 2.09711 107.819 1.77829C107.634 1.09439 107.069 0.745265 106.303 0.790959C105.556 0.835496 105.1 1.21319 104.971 1.91989C104.923 2.17994 104.896 2.44762 104.895 2.71184C104.889 4.34282 104.903 5.97392 104.889 7.60478C104.877 9.11962 105.302 10.4903 106.128 11.7588C107.511 13.8817 108.86 16.0265 110.241 18.1509C111.088 19.4535 111.482 20.8719 111.463 22.4178C111.448 23.6785 111.412 24.9406 111.45 26.2C111.525 28.6921 109.938 30.2761 107.782 30.8093C105.836 31.2904 104.086 30.8465 102.6 29.4743C101.924 28.8509 101.483 28.0555 101.448 27.166C101.374 25.3318 101.426 23.4925 101.426 21.633C102.556 21.633 103.699 21.633 104.892 21.633C104.892 21.7501 104.892 21.8719 104.892 21.9937C104.892 24.0759 104.891 26.158 104.894 28.2403C104.895 28.4705 104.905 28.7039 104.944 28.9304C105.096 29.8328 105.666 30.2733 106.576 30.2101C107.413 30.1518 107.924 29.6108 107.947 28.717C107.967 27.9192 107.956 27.1208 107.956 26.3227C107.957 25.2354 107.956 24.148 107.956 23.0606C107.954 21.6224 107.548 20.3081 106.765 19.1009C105.286 16.8194 103.803 14.5409 102.351 12.2424C101.729 11.2569 101.424 10.1487 101.404 8.98312C101.377 7.47973 101.38 5.97565 101.389 4.47203C101.398 2.79027 102.197 1.56683 103.641 0.748736C105.673 -0.402056 108.153 -0.198805 109.957 1.27659C110.83 1.99115 111.368 2.93441 111.405 4.05755C111.463 5.81266 111.42 7.571 111.42 9.36336Z" fill="black"/>
<path fill-rule="evenodd" clip-rule="evenodd" d="M31.3361 0.241211C32.5074 0.241211 33.6495 0.241211 34.8305 0.241211C35.774 10.1509 36.717 20.0549 37.6635 29.9945C38.0292 29.9945 38.3711 29.9945 38.732 29.9945C38.732 30.2681 38.732 30.5036 38.732 30.7595C36.8576 30.7595 34.9984 30.7595 33.1197 30.7595C33.1197 30.5063 33.1197 30.2706 33.1197 29.9962C33.4673 29.9962 33.7975 29.9962 34.1717 29.9962C33.9094 27.0219 33.6509 24.0897 33.3907 21.1397C32.3478 21.1397 31.3201 21.1397 30.2357 21.1397C29.9478 24.0703 29.6591 27.0082 29.3668 29.9849C29.7205 29.9849 30.0608 29.9849 30.4265 29.9849C30.4265 30.2575 30.4265 30.493 30.4265 30.7538C29.3627 30.7538 28.3026 30.7538 27.2148 30.7538C27.2148 30.5231 27.2148 30.2875 27.2148 30.0134C27.5498 30.0134 27.8915 30.0134 28.275 30.0134C29.297 20.0732 30.3156 10.1656 31.3361 0.241211ZM33.3392 20.3294C32.8648 14.8365 32.3927 9.3683 31.9205 3.90008C31.9027 3.90008 31.8849 3.89996 31.8671 3.89984C31.3431 9.37108 30.8191 14.8423 30.2937 20.3294C31.3336 20.3294 32.313 20.3294 33.3392 20.3294Z" fill="black"/>
<path fill-rule="evenodd" clip-rule="evenodd" d="M153.066 30.0126C153.43 30.0126 153.762 30.0126 154.111 30.0126C154.111 30.267 154.111 30.494 154.111 30.7505C152.238 30.7505 150.369 30.7505 148.476 30.7505C148.476 30.5137 148.476 30.2783 148.476 30.0138C148.82 30.0138 149.151 30.0138 149.513 30.0138C149.513 20.3364 149.513 10.6876 149.513 0.998274C149.173 0.998274 148.832 0.998274 148.473 0.998274C148.473 0.73244 148.473 0.5064 148.473 0.250977C150.346 0.250977 152.215 0.250977 154.106 0.250977C154.106 0.47933 154.106 0.705949 154.106 0.972477C153.774 0.972477 153.433 0.972477 153.065 0.972477C153.066 10.6611 153.066 20.3105 153.066 30.0126Z" fill="black"/>
</svg>
