<svg width="47" height="47" viewBox="0 0 47 47" fill="none" xmlns="http://www.w3.org/2000/svg">
<path d="M44.4495 23.2418C44.4495 35.0332 34.8907 44.5921 23.0993 44.5921C11.3079 44.5921 1.74903 35.0332 1.74903 23.2418C1.74903 11.4504 11.3079 1.89161 23.0993 1.89161C34.8907 1.89161 44.4495 11.4504 44.4495 23.2418Z" stroke="#ffb600" stroke-width="3.41604"/>
<path d="M18.3309 30.0469C18.0508 30.4949 17.2892 31.4581 16.4828 31.727C15.4747 32.063 14.4667 31.727 13.1226 32.063C12.5349 32.2099 11.7786 32.567 11.2745 33.575C10.8713 34.3815 10.7705 35.4791 10.7705 35.9271H23.7071" stroke="#ffb600" stroke-width="1.90729"/>
<path d="M28.2443 30.0469C28.5244 30.4949 29.286 31.4581 30.0924 31.727C31.1005 32.063 32.1085 31.727 33.4526 32.063C34.0403 32.2099 34.7966 32.567 35.3007 33.575C35.7039 34.3815 35.8047 35.4791 35.8047 35.9271H22.8681" stroke="#ffb600" stroke-width="1.90729"/>
<path d="M24.2121 29.0406C23.4281 29.4327 21.6917 29.5447 20.3478 27.8645C18.456 25.4992 17.4914 23.6643 17.8278 19.8002C18.1369 16.2497 19.844 14.5919 22.8681 14.2559C25.3882 13.9758 26.5643 15.264 27.4043 16.1041" stroke="#ffb600" stroke-width="1.90729"/>
<path d="M18.1655 24.3348H15.3094C14.8053 24.4468 13.7973 24.3012 13.7973 22.8227C13.7973 21.3443 13.7973 20.7506 13.7973 20.6386C13.7413 20.3026 14.1333 19.597 14.8053 19.4626C15.4773 19.3282 16.6015 19.2387 17.66 19.4626" stroke="#ffb600" stroke-width="1.90729"/>
<path d="M30.7639 24.3345H28.0758C28.1318 24.0545 28.3839 22.9904 28.5798 21.8144C28.7125 21.0182 28.6378 20.0474 28.582 19.3222L28.5798 19.2942L29.8436 19.2383C30.4396 19.2383 31.0365 19.4158 31.2679 19.4622C31.9399 19.5971 32.332 20.3023 32.276 20.6383V22.8224C32.276 24.3009 31.2679 24.4465 30.7639 24.3345Z" stroke="#ffb600" stroke-width="1.90729"/>
<path d="M15.6426 19.2949C15.6426 17.8948 15.8732 15.3095 16.9866 13.7507C17.8267 12.5747 19.6748 10.8946 23.0349 10.8945C26.2315 10.8945 27.5711 11.5665 29.2512 13.5827C30.5953 15.1956 30.7073 17.8389 30.5953 18.9589" stroke="#ffb600" stroke-width="1.90729"/>
<path d="M30.596 24.5039C30.596 24.8399 30.7305 25.512 30.428 26.016C29.924 26.856 29.588 26.856 29.084 26.856H24.8838V25.1759" stroke="#ffb600" stroke-width="1.90729"/>
</svg>
