<svg width="21" height="21" viewBox="0 0 21 21" fill="none" xmlns="http://www.w3.org/2000/svg">
<path fill-rule="evenodd" clip-rule="evenodd" d="M10.2087 0.0703125C12.6912 0.0703125 14.7037 2.07964 14.7037 4.55827C14.7037 4.55915 14.7037 4.56003 14.7037 4.5609H16.9493C17.5337 4.5609 18.0206 5.0082 18.0691 5.58971L19.1929 19.0536C19.2475 19.7077 18.7305 20.2688 18.073 20.2688H2.34062C1.68318 20.2688 1.16616 19.7077 1.22076 19.0536L2.3445 5.58971C2.39304 5.0082 2.87992 4.5609 3.46436 4.5609H5.71371C5.71371 4.56003 5.71371 4.55915 5.71371 4.55827C5.71371 2.07964 7.72617 0.0703125 10.2087 0.0703125ZM7.96119 4.5609H12.4562C12.4562 4.56003 12.4562 4.55915 12.4562 4.55827C12.4562 3.31896 11.4499 2.31429 10.2087 2.31429C8.96743 2.31429 7.96119 3.31896 7.96119 4.55827C7.96119 4.55915 7.96119 4.56003 7.96119 4.5609ZM3.56247 18.0261H16.8523L15.9159 6.80619H4.49892L3.56247 18.0261Z" fill="white"/>
<mask id="mask0" mask-type="alpha" maskUnits="userSpaceOnUse" x="1" y="0" width="19" height="21">
<path fill-rule="evenodd" clip-rule="evenodd" d="M10.2087 0.0703125C12.6912 0.0703125 14.7037 2.07964 14.7037 4.55827C14.7037 4.55915 14.7037 4.56003 14.7037 4.5609H16.9493C17.5337 4.5609 18.0206 5.0082 18.0691 5.58971L19.1929 19.0536C19.2475 19.7077 18.7305 20.2688 18.073 20.2688H2.34062C1.68318 20.2688 1.16616 19.7077 1.22076 19.0536L2.3445 5.58971C2.39304 5.0082 2.87992 4.5609 3.46436 4.5609H5.71371C5.71371 4.56003 5.71371 4.55915 5.71371 4.55827C5.71371 2.07964 7.72617 0.0703125 10.2087 0.0703125ZM7.96119 4.5609H12.4562C12.4562 4.56003 12.4562 4.55915 12.4562 4.55827C12.4562 3.31896 11.4499 2.31429 10.2087 2.31429C8.96743 2.31429 7.96119 3.31896 7.96119 4.55827C7.96119 4.55915 7.96119 4.56003 7.96119 4.5609ZM3.56247 18.0261H16.8523L15.9159 6.80619H4.49892L3.56247 18.0261Z" fill="white"/>
</mask>
<g mask="url(#mask0)">
<rect x="0.0917969" y="0.0703125" width="20.2274" height="20.1958" fill="white"/>
</g>
</svg>
