<svg xmlns="http://www.w3.org/2000/svg" width="23" height="25" fill="none" viewBox="0 0 23 25">
    <path fill="#858585" fill-rule="evenodd" d="M11.172 25s-5.188-2.28-8.497-8.084C-.634 11.111.061 4.06.061 4.06s2.614 0 5.228-.677C7.904 2.707 11.172 0 11.172 0s1.634 1.353 4.575 2.707c2.941 1.353 6.536 1.353 6.536 1.353s.694 7.051-2.614 12.856C16.359 22.721 11.172 25 11.172 25zm.288-8.738l6.944-6.945-1.964-1.964-5.894 5.895-3.884-4.439-2.09 1.83 4.86 5.555.978 1.117 1.05-1.05z" clip-rule="evenodd"/>
</svg>
