<svg xmlns="http://www.w3.org/2000/svg" width="21" height="28" fill="none" viewBox="0 0 21 28">
    <g clip-path="url(#a)">
        <path fill="#F23F28" d="M15.236 11.155c1.799-1.858 5.21-6.426 3.262-9.845-.943-1.654-2.88-1.404-3.701-1.05l.44.92s.834 2.854.562 4.532c-.175 1.084-.494 2.192-1.05 3.44l-.414.978c-1.755 4.42-4.544 8.607-8.714 12.3 3.314-4.612 5.094-8.943 7.184-14.827-1.618-2.118-5.087-2.795-8.703-1.061-6.63 3.177-3.037 17.427-3.81 21.42 2.291.107 11.291.364 17.475-5.018 6.184-5.383 2.464-12.302-2.53-11.79z"/>
        <path fill="#858585" d="M15.236 11.155c1.799-1.858 5.21-6.426 3.262-9.845-.943-1.654-2.88-1.404-3.701-1.05l.44.92s.834 2.854.562 4.532c-.175 1.084-.494 2.192-1.05 3.44l-.414.978c-1.755 4.42-4.544 8.607-8.714 12.3 3.314-4.612 5.094-8.943 7.184-14.827-1.618-2.118-5.087-2.795-8.703-1.061-6.63 3.177-3.037 17.427-3.81 21.42 2.291.107 11.291.364 17.475-5.018 6.184-5.383 2.464-12.302-2.53-11.79z"/>
        <path fill="#F23F28" d="M13.18 8.185c-.024-.044-.051-.086-.076-.13l.076.13z"/>
    </g>
    <defs>
        <clipPath id="a">
            <path fill="#fff" d="M0 0h20.523v27.364H0z" transform="scale(1.02323)"/>
        </clipPath>
    </defs>
</svg>
