<svg width="230" height="22" viewBox="0 0 230 22" fill="none" xmlns="http://www.w3.org/2000/svg">
<g clip-path="url(#clip0)">
<path d="M0 15.8757C1.08908 15.8757 4.72119 15.8659 5.08496 15.8659C5.08496 17.6841 7.39883 18.7664 13.8699 18.7664C19.4465 18.7664 21.4901 17.7818 21.4901 16.0917C21.4901 11.893 0.0967821 17.4279 0.0967821 8.95993C0.0967821 5.32458 4.5432 3.87109 12.1167 3.87109C17.3084 3.87109 25.6895 4.12944 25.6895 9.3366H25.506H21.529C21.529 6.88662 16.058 6.80304 12.4282 6.80304C6.70689 6.80304 5.02488 7.52924 5.04825 8.93822C5.02488 13.3009 26.6596 7.7192 26.6596 16.1166C26.6596 20.3154 21.9239 21.6983 13.5339 21.6983C7.16299 21.6994 0 21.2641 0 15.8757Z" fill="white"/>
<path d="M61.2412 7.6273H49.2213V20.9974H44.4144V7.6273H32.3945V4.57812H61.2412V7.6273Z" fill="white"/>
<path d="M85.8313 17.0093H71.265L68.3082 20.9974H62.2031L75.5435 4.57812H81.5529L94.8932 20.9974H88.7882L85.8313 17.0093ZM83.5731 13.9601L78.8608 7.57954H78.2356L73.5244 13.9601H83.5731Z" fill="white"/>
<path d="M123.234 20.9974L116.528 14.9197L107.875 14.8958V20.9974H103.188V4.57812H120.375C124.752 4.57812 128.164 6.22049 128.164 9.62137C128.164 12.9995 125.278 14.7091 121.41 14.8969L128.646 20.9985L123.234 20.9974ZM107.874 11.7327H120.134C121.914 11.7327 123.261 11.2399 123.261 9.62137C123.261 8.35459 122.033 7.6273 120.134 7.6273H107.874V11.7327Z" fill="white"/>
<path d="M176.113 4.57812H180.801V20.9974H176.113V4.57812Z" fill="white"/>
<path d="M217.941 7.6273H205.922V20.9974H201.114V7.6273H189.094V4.57812H217.941V7.6273Z" fill="white"/>
<path d="M148.721 15.4481L140.397 4.58984H134.168L146.158 18.8316L148.721 15.4481Z" fill="white"/>
<path d="M161.596 4.56641L149.062 21.0096H154.001L167.822 4.5892L161.596 4.56641Z" fill="white"/>
<path d="M230 3.78406C230 5.92902 228.288 7.61046 226.087 7.61046C223.889 7.61046 222.199 5.92902 222.199 3.80577C222.199 1.68144 223.891 0 226.111 0C228.331 0 230 1.63911 230 3.78406ZM229.481 3.78406C229.481 1.90831 228.056 0.48522 226.112 0.48522C224.167 0.48522 222.72 1.95173 222.72 3.80577C222.72 5.65981 224.167 7.12632 226.088 7.12632C228.012 7.12524 229.481 5.65981 229.481 3.78406ZM227.161 4.44188L228.165 5.96158H227.401L226.484 4.58191H226.297H225.282V5.96158H224.529V1.64996H226.297C227.401 1.64996 228.087 2.22094 228.087 3.11539C228.088 3.77321 227.747 4.23672 227.161 4.44188ZM227.358 3.11539C227.358 2.56613 226.95 2.26327 226.243 2.26327H225.272V3.97728H226.243C226.95 3.97837 227.358 3.66466 227.358 3.11539Z" fill="white"/>
</g>
<defs>
<clipPath id="clip0">
<rect width="230" height="21.6981" fill="white"/>
</clipPath>
</defs>
</svg>
