<svg width="21" height="20" viewBox="0 0 21 20" fill="none" xmlns="http://www.w3.org/2000/svg">
<path fill-rule="evenodd" clip-rule="evenodd" d="M14.4692 4.44434H16.6932C17.272 4.44434 17.7542 4.88729 17.8022 5.46317L18.9151 18.7965C18.9691 19.4443 18.4571 19.9999 17.8061 19.9999H2.22621C1.57514 19.9999 1.06313 19.4443 1.1172 18.7965L2.23005 5.46317C2.27811 4.88729 2.76027 4.44434 3.33905 4.44434H5.56641C5.56646 1.98979 7.5594 0 10.0178 0C12.4762 0 14.4691 1.98979 14.4692 4.44434ZM7.7921 4.44434C7.79216 3.21709 8.78861 2.22222 10.0178 2.22222C11.247 2.22222 12.2434 3.21709 12.2435 4.44434H7.7921ZM3.4375 17.7776H16.5985L15.6711 6.6665H4.36487L3.4375 17.7776Z" fill="white"/>
<mask id="mask0" mask-type="alpha" maskUnits="userSpaceOnUse" x="1" y="0" width="18" height="20">
<path fill-rule="evenodd" clip-rule="evenodd" d="M14.4692 4.44434H16.6932C17.272 4.44434 17.7542 4.88729 17.8022 5.46317L18.9151 18.7965C18.9691 19.4443 18.4571 19.9999 17.8061 19.9999H2.22621C1.57514 19.9999 1.06313 19.4443 1.1172 18.7965L2.23005 5.46317C2.27811 4.88729 2.76027 4.44434 3.33905 4.44434H5.56641C5.56646 1.98979 7.5594 0 10.0178 0C12.4762 0 14.4691 1.98979 14.4692 4.44434ZM7.7921 4.44434C7.79216 3.21709 8.78861 2.22222 10.0178 2.22222C11.247 2.22222 12.2434 3.21709 12.2435 4.44434H7.7921ZM3.4375 17.7776H16.5985L15.6711 6.6665H4.36487L3.4375 17.7776Z" fill="white"/>
</mask>
<g mask="url(#mask0)">
<rect width="20.0312" height="20" fill="white"/>
</g>
</svg>
