<svg width="109" height="37" viewBox="0 0 109 37" fill="none" xmlns="http://www.w3.org/2000/svg">
<path d="M39.7047 26.3985C35.2542 26.3985 32.0396 22.7861 32.0396 18.3448C32.0396 13.9034 35.2069 10.0889 39.8398 10.0889C41.8928 10.0889 43.3515 10.5674 44.6212 11.3559V15.2581H48.4504V9.56991L47.7142 8.99705C45.6072 7.34586 42.3925 6.46973 39.7047 6.46973C33.1404 6.46973 27.8052 11.794 27.8052 18.3448C27.8052 24.8956 33.1404 30.2198 39.7047 30.2198C43.804 30.2198 46.8903 28.5147 49.1662 25.5493L46.1272 23.2309C44.5806 25.246 42.244 26.3985 39.7047 26.3985ZM104.51 26.1963L104.375 20.7238V7.37282H96.3928V11.1941H100.344V20.2453C100.344 24.1475 97.3518 26.904 94.3398 26.904C91.3277 26.904 89.7542 24.8215 89.7542 20.9193V7.37282H82.2984V11.1941H85.7224V21.5932C85.7224 26.8838 88.6939 30.5231 94.0021 30.5231C97.0479 30.5231 99.371 28.845 100.755 26.2368H100.816L101.363 29.8761H107.495V26.1896H104.51V26.1963ZM14.4875 23.7903H14.3997L8.63901 7.02911H1.55469V10.8504H5.5392L12.4007 29.957H16.0475V29.9502L23.1994 10.8504H26.9205V7.02911H20.2751L14.4875 23.7903ZM52.1917 29.9974H56.129V26.0683H52.1917V29.9974ZM67.4139 11.8007H67.3666L67.1168 7.37282H60.0797V10.8572H63.8279V26.1896H60.0797V29.8761H77.463V26.257H67.7921V17.0036C68.2311 13.6541 70.7433 10.7898 74.1808 10.7898H74.2416L74.1741 14.2134H78.0033V7.29869H74.9845C71.5132 7.29869 68.9402 9.17228 67.4139 11.8007Z" fill="black"/>
</svg>
