<svg width="47" height="48" viewBox="0 0 47 48" fill="none" xmlns="http://www.w3.org/2000/svg">
<circle cx="23.0993" cy="24.0446" r="21.2568" stroke="#F6492D" stroke-width="3.60285"/>
<path d="M11.1826 41.8927L35.5957 4.75195" stroke="#F6492D" stroke-width="2.62413"/>
<path d="M11.262 20.8073V22.4595H14.5771V24.1009H11.262V26.6758H9.13771V19.1658H15.0277V20.8073H11.262ZM20.7594 25.2167H17.5838L16.9937 26.6758H14.8266L18.1417 19.1658H20.2337L23.5596 26.6758H21.3495L20.7594 25.2167ZM20.1372 23.6503L19.1716 21.2472L18.206 23.6503H20.1372ZM27.0585 23.9507L26.2646 24.7983V26.6758H24.1618V19.1658H26.2646V22.2878L29.172 19.1658H31.5108L28.4425 22.4917L31.6717 26.6758H29.2042L27.0585 23.9507ZM38.2585 25.0343V26.6758H32.2291V19.1658H38.119V20.8073H34.3319V22.0733H37.6684V23.6611H34.3319V25.0343H38.2585Z" fill="#F6492D"/>
</svg>
