<svg width="47" height="47" viewBox="0 0 47 47" fill="none" xmlns="http://www.w3.org/2000/svg">
<circle cx="23.9059" cy="23.8317" r="21.3502" stroke="#F6492D" stroke-width="3.41604"/>
<path d="M13.961 42.4779L33.7812 4.125" stroke="#F6492D" stroke-width="2.62252"/>
<ellipse cx="23.3892" cy="16.4657" rx="9.3941" ry="2.34852" stroke="#F6492D" stroke-width="2.04962"/>
<path d="M13.9961 17.248V20.8268C13.9961 22.3091 18.202 23.5108 23.3902 23.5108C28.5784 23.5108 32.7843 22.3091 32.7843 20.8268V17.248" stroke="#F6492D" stroke-width="2.04962"/>
<path d="M13.9961 21.9453V25.524C13.9961 27.0064 18.202 28.208 23.3902 28.208C28.5784 28.208 32.7843 27.0064 32.7843 25.524V21.9453" stroke="#F6492D" stroke-width="2.04962"/>
<path d="M13.9971 26.6426V30.2213C13.9971 31.7036 18.203 32.9053 23.3912 32.9053C28.5794 32.9053 32.7853 31.7036 32.7853 30.2213V26.6426" stroke="#F6492D" stroke-width="2.04962"/>
<circle cx="30.0543" cy="31.152" r="5.96027" fill="white" stroke="#F6492D" stroke-width="1.19205"/>
<path d="M30.0518 35.3229V26.9785" stroke="#F6492D" stroke-width="1.70802"/>
<path d="M25.8812 31.1504L34.2256 31.1504" stroke="#F6492D" stroke-width="1.70802"/>
</svg>
