<svg width="106" height="41" viewBox="0 0 106 41" fill="none" xmlns="http://www.w3.org/2000/svg">
<path fill-rule="evenodd" clip-rule="evenodd" d="M67.3999 18.3322C66.4095 18.199 65.4188 18.0687 64.4292 17.9304C64.1825 17.8959 63.9409 17.8251 63.6943 17.789C63.2172 17.7191 62.7924 17.8658 62.4325 18.1705C61.897 18.624 61.4635 19.156 61.2426 19.8412C60.9258 20.8234 61.376 21.5986 62.1636 22.0271C62.961 22.4611 63.8415 22.6324 64.7283 22.731C65.5997 22.8276 66.478 22.8725 67.3545 22.91C68.3297 22.9517 69.3064 22.9542 70.2821 22.983C71.4567 23.0175 72.6272 23.0865 73.794 23.2533C75.3515 23.4759 76.8673 23.8281 78.2704 24.556C79.6573 25.2755 80.6978 26.3175 81.1026 27.8833C81.3619 28.8857 81.3153 29.898 81.1167 30.9038C80.6497 33.2676 79.3162 35.073 77.4589 36.5245C75.604 37.9742 73.5011 38.9122 71.2266 39.4706C70.4266 39.667 69.6183 39.8342 68.8074 39.9783C68.3446 40.0606 67.8695 40.0949 67.3989 40.1054C66.5314 40.1249 65.6632 40.1064 64.7953 40.1122C63.6637 40.1198 62.5493 39.9638 61.4424 39.7536C60.2316 39.5236 59.0533 39.1805 57.9558 38.6034C56.7265 37.9571 55.6849 37.109 55.06 35.8275C54.6573 35.0016 54.5329 34.1248 54.5738 33.2129C54.6289 31.9826 55.0762 30.9089 55.8394 29.9609C56.868 28.683 58.1984 27.7772 59.5796 26.9357C59.777 26.8155 59.9762 26.6944 60.1567 26.551C60.474 26.2988 60.4763 26.0761 60.173 25.8138C60.0644 25.72 59.9408 25.6383 59.8128 25.5733C58.5375 24.9243 58.0626 23.8207 58.0668 22.4575C58.0696 21.5506 58.4782 20.785 58.9717 20.0596C59.5381 19.2272 60.2563 18.5428 61.0495 17.9312C61.2173 17.8018 61.377 17.6564 61.5176 17.4982C61.7463 17.2405 61.7336 17.0536 61.4676 16.8303C61.1791 16.5881 60.868 16.3728 60.5763 16.1345C59.3153 15.1046 58.3824 13.8322 57.8169 12.3013C57.5417 11.5566 57.3611 10.773 57.3851 9.9841C57.4534 7.73963 57.9469 5.61183 59.3397 3.78314C60.2824 2.54538 61.4801 1.62946 62.8986 0.992831C64.0047 0.496341 65.166 0.197718 66.3612 0.0777582C67.7058 -0.057151 69.0487 -0.0315061 70.3849 0.274167C71.9309 0.627969 73.3118 1.29875 74.5653 2.25429C74.7646 2.40622 74.9468 2.58209 75.1278 2.7565C75.6176 3.22831 76.1873 3.29978 76.813 3.10969C77.8555 2.79308 78.8968 2.47246 79.9411 2.16229C80.1958 2.08657 80.4589 2.0371 80.7207 1.98897C81.0024 1.9372 81.1992 2.11027 81.2383 2.34265C81.3161 2.80535 81.3782 3.28349 81.3458 3.74814C81.3135 4.21157 80.7421 4.66844 80.1852 4.72155C79.3694 4.79921 78.5499 4.84649 77.731 4.87943C77.2001 4.90082 77.0166 5.07936 77.0894 5.61122C77.1326 5.92613 77.217 6.23594 77.2498 6.55133C77.3343 7.36589 77.4629 8.18276 77.4567 8.99781C77.4502 9.84117 77.3158 10.6864 77.0658 11.5007C76.6023 13.0115 75.8413 14.3482 74.7117 15.4615C73.6641 16.4943 72.436 17.223 71.0395 17.6838C69.8583 18.0735 68.6521 18.2656 67.4116 18.2544C67.4077 18.2804 67.4039 18.3064 67.3999 18.3322ZM66.7768 38.9952C67.4501 38.9405 68.1243 38.8964 68.7961 38.8287C70.3329 38.6736 71.7754 38.2019 73.1278 37.4632C74.19 36.8829 75.1207 36.1294 75.8528 35.158C76.8318 33.859 77.3732 32.415 77.2564 30.7544C77.2095 30.0882 76.994 29.5151 76.4407 29.1404C76.0391 28.8683 75.6021 28.6 75.1416 28.4735C74.2123 28.2179 73.2609 28.0328 72.3099 27.8709C71.5997 27.7501 70.8762 27.7033 70.1573 27.6378C69.2821 27.558 68.4058 27.4896 67.5295 27.4226C66.6268 27.3538 65.7227 27.303 64.8206 27.2245C64.2075 27.1713 63.5949 27.0992 62.9862 27.0075C62.3976 26.9189 61.7846 26.7245 61.2496 27.0858C60.6279 27.5055 59.9803 27.9361 59.49 28.4917C58.5176 29.5936 58.0888 30.9583 58.0252 32.4168C58.0012 32.9683 58.1086 33.5287 58.187 34.0806C58.3026 34.8932 58.6742 35.6006 59.1775 36.2332C60.1755 37.4877 61.5379 38.1429 63.0477 38.5376C64.269 38.8566 65.5137 38.9756 66.7768 38.9952ZM61.8959 9.19081C61.8512 10.5201 62.0464 11.9148 62.5445 13.2636C62.8997 14.2254 63.4019 15.104 64.1243 15.8249C64.8324 16.5315 65.6885 16.9952 66.7016 17.1311C67.5459 17.2444 68.3718 17.1666 69.1766 16.906C70.557 16.4591 71.4547 15.481 72.0748 14.206C72.6178 13.0897 72.8597 11.8891 72.9339 10.6701C73.0172 9.30032 73.0168 7.91817 72.7022 6.56847C72.4026 5.28404 71.939 4.06524 71.0851 3.0302C70.3098 2.09058 69.3543 1.44958 68.1334 1.27298C67.1928 1.13698 66.2657 1.2697 65.3719 1.55751C63.7854 2.06834 62.8997 3.24946 62.4247 4.79168C61.9933 6.19145 61.8887 7.63267 61.8959 9.19081Z" fill="#66B045"/>
<path fill-rule="evenodd" clip-rule="evenodd" d="M41.1783 26.4507C40.0152 26.4165 38.8703 26.2924 37.7295 26.0756C35.6447 25.6791 33.742 24.8768 32.0916 23.5367C30.7218 22.4247 29.6768 21.0466 28.9528 19.4255C28.4523 18.3042 28.1092 17.1373 27.9248 15.928C27.7424 14.7318 27.6664 13.5243 27.7371 12.3137C27.8409 10.5317 28.2069 8.80681 28.9713 7.18754C29.6754 5.69564 30.6392 4.39808 31.8933 3.31054C33.2132 2.166 34.7261 1.38681 36.3674 0.855682C37.5657 0.467727 38.8022 0.224404 40.0679 0.180771C40.8796 0.152817 41.6938 0.0948425 42.5031 0.132398C43.5767 0.18223 44.6339 0.364539 45.6729 0.67167C47.2117 1.12659 48.6198 1.8263 49.8802 2.81527C51.8172 4.335 53.1904 6.26943 54.001 8.59691C54.2246 9.23901 54.4406 9.89289 54.5628 10.5593C54.7751 11.7193 54.9094 12.8989 54.81 14.0787C54.5932 16.65 53.7307 18.9927 52.1568 21.043C50.6442 23.0132 48.7405 24.4848 46.4335 25.4274C45.4434 25.8319 44.4224 26.1197 43.3722 26.2795C42.6485 26.3891 41.9099 26.397 41.1783 26.4507ZM50.5891 13.5843C50.5629 13.2842 50.5023 12.6886 50.4609 12.0915C50.3934 11.1167 50.1916 10.1671 49.894 9.24205C49.2172 7.13892 48.1087 5.31084 46.395 3.88664C45.0712 2.78646 43.5626 2.06889 41.8611 1.82095C40.6013 1.63743 39.343 1.714 38.1022 2.04009C36.253 2.526 34.7954 3.56468 33.7201 5.13923C32.8439 6.42245 32.3326 7.86063 32.1013 9.38619C31.9613 10.3092 31.925 11.2492 31.8672 12.1829C31.8465 12.5174 31.8933 12.857 31.92 13.1934C31.9581 13.6744 31.9516 14.1673 32.0608 14.6323C32.2901 15.6094 32.5269 16.5913 32.8599 17.536C33.5754 19.5658 34.7267 21.3152 36.4034 22.6892C38.0211 24.0148 39.8934 24.6665 41.9659 24.7001C42.6812 24.7118 43.4081 24.6092 44.1138 24.4748C45.3148 24.2463 46.3841 23.7133 47.3083 22.8984C48.754 21.6238 49.5722 19.9848 50.0543 18.152C50.4221 16.7542 50.5559 15.3258 50.5891 13.5843Z" fill="#66B045"/>
<path fill-rule="evenodd" clip-rule="evenodd" d="M96.3182 20.3532C96.0598 20.6438 95.7967 20.9305 95.5434 21.2258C94.4002 22.5587 93.1878 23.8182 91.6892 24.7566C90.6032 25.4366 89.427 25.8676 88.1422 26.0132C86.9399 26.1493 85.794 26.0008 84.7418 25.4024C83.496 24.6937 82.8163 23.5789 82.5942 22.1689C82.2732 20.1311 82.9104 18.3783 84.1362 16.7813C85.0781 15.5539 86.3413 14.7543 87.6672 14.0354C89.7736 12.8931 91.9968 12.0183 94.2433 11.2008C94.9362 10.9487 95.6275 10.689 96.3318 10.4731C96.8754 10.3065 97.0706 9.94833 97.0682 9.41708C97.0634 8.31933 97.1074 7.21964 97.0553 6.12444C97.0116 5.20864 96.6338 4.39189 96.0521 3.67919C95.2313 2.67332 94.1458 2.09431 92.8876 1.95745C91.5113 1.80784 90.1269 1.84162 88.8877 2.6303C88.1622 3.09215 87.6306 3.7419 87.1699 4.44865C86.7288 5.12502 86.3267 5.82716 85.9135 6.52164C85.3645 7.44425 84.1334 7.62084 83.4644 6.88735C83.1044 6.49259 82.9701 5.42389 83.3299 4.89981C83.754 4.28178 84.3075 3.80632 84.891 3.3571C86.2737 2.29266 87.8395 1.60742 89.4932 1.09027C90.6599 0.725403 91.8479 0.447198 93.0565 0.318974C94.1487 0.203146 95.2616 0.12451 96.3533 0.201688C98.2104 0.332951 99.7469 1.11226 100.653 2.84639C100.967 3.44753 101.183 4.09789 101.186 4.77778C101.193 6.30651 101.164 7.83548 101.131 9.36397C101.113 10.1868 101.057 11.0088 101.02 11.8312C100.963 13.1285 100.905 14.4257 100.855 15.7234C100.824 16.527 100.814 17.3315 100.785 18.1354C100.731 19.6251 100.674 21.1147 100.612 22.6042C100.563 23.8129 101.231 23.9224 102.121 23.8928C102.646 23.8752 103.17 23.768 103.689 23.6743C104.149 23.5913 104.602 23.4726 105.057 23.3673C105.271 23.3177 105.483 23.2387 105.699 23.2201C105.799 23.2116 105.995 23.3146 105.996 23.3701C106.001 23.5677 106.005 23.8312 105.888 23.9503C105.709 24.1326 105.44 24.2431 105.192 24.3365C104.142 24.7307 103.094 25.1297 102.031 25.4843C100.881 25.8679 99.699 26.0895 98.4825 25.8793C98.0799 25.8096 97.6798 25.6885 97.2986 25.5391C96.5948 25.2634 96.3897 24.6379 96.3821 23.9675C96.3725 23.1174 96.4565 22.2666 96.4797 21.4155C96.4889 21.0815 96.4426 20.7459 96.4216 20.4111C96.3873 20.3918 96.3528 20.3724 96.3182 20.3532ZM86.6065 20.1735C86.6065 20.2675 86.593 20.4243 86.6091 20.578C86.6761 21.2179 86.8048 21.8376 87.2604 22.3326C87.9085 23.0368 88.7845 23.0673 89.6354 23.0724C90.4058 23.0771 91.1167 22.7649 91.7821 22.3902C93.1852 21.6 94.4416 20.625 95.5654 19.4588C96.2206 18.7789 96.5594 18.0176 96.6052 17.0941C96.6383 16.4266 96.6941 15.7601 96.7253 15.0926C96.7687 14.1643 96.8193 13.2357 96.8255 12.3069C96.8286 11.835 96.4932 11.6241 96.0296 11.7396C95.8722 11.7788 95.7115 11.8203 95.566 11.8893C94.4577 12.416 93.3293 12.9066 92.252 13.4915C90.6163 14.3794 89.0902 15.4335 87.888 16.8858C87.1174 17.8165 86.5502 18.8438 86.6065 20.1735Z" fill="#66B045"/>
<path fill-rule="evenodd" clip-rule="evenodd" d="M20.5522 1.75701C20.215 1.73671 19.8774 1.72127 19.5406 1.69441C19.2796 1.67351 19.1866 1.5183 19.1837 1.26064C19.1808 1.00225 19.2757 0.837194 19.5327 0.825283C20.0411 0.801583 20.5504 0.796235 21.0593 0.793683C21.3477 0.792224 21.6364 0.819692 21.9249 0.819935C24.0267 0.821637 26.1287 0.823582 28.2305 0.816046C28.7614 0.814102 29.2919 0.773021 29.8229 0.760867C29.9847 0.757221 30.1472 0.797572 30.3099 0.804743C30.594 0.817262 30.6478 0.981219 30.6457 1.23317C30.6434 1.49728 30.5329 1.63048 30.282 1.66208C29.8896 1.71155 29.4971 1.76077 29.1045 1.8083C28.5354 1.87709 28.0595 2.15335 27.7574 2.61593C27.1951 3.47679 26.6441 4.35249 26.1798 5.26866C25.5817 6.44917 25.0534 7.66676 24.5311 8.8841C23.5236 11.2319 22.5513 13.5949 21.5456 15.9436C20.7403 17.8246 19.9217 19.7002 19.0825 21.5662C18.3052 23.2951 17.5515 25.0386 16.6812 26.7203C15.5397 28.9261 14.3433 31.1074 13.077 33.2433C12.0993 34.8924 11.0116 36.4798 9.90803 38.0488C9.16835 39.1005 8.31199 40.0694 7.2724 40.8499C6.98533 41.0654 6.42815 41.0449 6.14593 40.8152C5.60644 40.3761 5.05835 39.9469 4.53595 39.4882C4.23483 39.2237 4.27627 38.9106 4.6089 38.6688C6.3403 37.4098 7.963 36.0236 9.44706 34.4795C11.058 32.8036 12.5469 31.0267 13.797 29.0578C14.0654 28.635 14.3301 28.207 14.6353 27.8117C15.1798 27.1062 15.2081 26.3348 14.8783 25.5709C14.3802 24.4175 13.8233 23.2887 13.2658 22.1622C12.6 20.8168 11.9098 19.4833 11.2256 18.147C10.0184 15.7889 8.77707 13.4477 7.60867 11.0705C6.71365 9.24945 5.92369 7.37676 5.05738 5.54115C4.66319 4.70593 4.24234 3.8763 3.75242 3.09528C3.18106 2.18434 2.2589 1.83491 1.22004 1.75215C0.883645 1.72541 0.54677 1.69052 0.214378 1.63425C-0.1145 1.57859 0.0406084 1.30075 0.0129798 1.11394C-0.0123465 0.942083 0.0753865 0.827836 0.253882 0.823825C0.859773 0.810577 1.46578 0.799881 2.0718 0.798544C2.50598 0.797572 2.94016 0.819571 3.37446 0.820179C5.38917 0.822731 7.404 0.8282 9.41871 0.818355C10.4027 0.813494 11.3864 0.77217 12.3704 0.758923C12.6187 0.755641 12.8677 0.81398 13.1162 0.812522C13.356 0.811063 13.4529 0.933089 13.4583 1.14335C13.464 1.36492 13.4192 1.59317 13.1602 1.63559C12.7906 1.69599 12.4148 1.71921 12.0411 1.75336C11.3686 1.81462 10.6922 1.8461 10.024 1.93798C9.19489 2.05198 8.68546 2.85719 8.94369 3.72619C9.16678 4.47682 9.46633 5.21141 9.8003 5.92072C10.5551 7.52322 11.3377 9.11308 12.1359 10.6944C12.9898 12.3864 13.8546 14.0737 14.752 15.7431C15.5956 17.312 16.4839 18.857 17.3641 20.4061C17.4752 20.6017 17.5698 20.926 17.8522 20.8508C18.0077 20.8093 18.1384 20.5482 18.2164 20.3594C18.9614 18.5567 19.7059 16.7537 20.4239 14.9401C20.9824 13.5297 21.5221 12.1112 22.0355 10.6837C22.5947 9.12973 23.1437 7.57062 23.6379 5.99498C23.8721 5.24836 24.0456 4.46455 24.1078 3.68633C24.1822 2.75558 23.9405 2.06377 22.6606 1.87988C21.9653 1.77998 21.257 1.77025 20.5546 1.71994C20.5539 1.73246 20.553 1.74473 20.5522 1.75701Z" fill="#66B045"/>
<path fill-rule="evenodd" clip-rule="evenodd" d="M32.7721 30.0263C33.3702 30.0263 33.9701 29.998 34.5659 30.0358C34.9922 30.063 35.3537 30.2576 35.5393 30.6921C35.7285 31.1348 35.65 31.5216 35.32 31.8553C35.1872 31.9896 35.1599 32.1113 35.2815 32.2537C35.4402 32.4397 35.61 32.6163 35.765 32.8053C35.8214 32.8743 35.8715 32.9638 35.8841 33.05C35.9021 33.1729 35.8758 33.3016 35.8815 33.4273C35.8918 33.6577 35.8014 33.7694 35.559 33.7593C35.2884 33.748 35.0126 33.7857 34.7477 33.7452C34.6025 33.723 34.4274 33.6145 34.3486 33.4917C34.1361 33.16 33.9789 32.7932 33.7752 32.4552C33.717 32.3586 33.5806 32.3003 33.4681 32.252C33.4409 32.2402 33.318 32.3449 33.3236 32.384C33.3418 32.5132 33.3673 32.6647 33.4479 32.7562C33.5745 32.8998 33.6842 33.5252 33.5551 33.6686C33.5104 33.7183 33.4223 33.7519 33.3536 33.7527C32.8213 33.7595 32.2887 33.7548 31.7564 33.7576C31.5887 33.7585 31.504 33.6903 31.5089 33.5151C31.514 33.3405 31.5065 33.1656 31.5121 32.9909C31.5138 32.9377 31.5248 32.8524 31.5574 32.8372C31.8372 32.7069 31.7775 32.4577 31.7799 32.2313C31.7828 31.9693 31.7822 31.7071 31.7788 31.4449C31.7761 31.2409 31.8447 31.0097 31.5658 30.907C31.53 30.894 31.5154 30.7903 31.5123 30.7275C31.5048 30.5725 31.5223 30.4157 31.507 30.2619C31.4831 30.0211 31.5988 29.9586 31.8141 29.9653C32.1332 29.9754 32.4529 29.9679 32.7723 29.9679C32.7723 29.9876 32.7721 30.007 32.7721 30.0263ZM33.3145 31.1703C33.2881 31.381 33.3775 31.5177 33.582 31.4733C33.747 31.4375 34.0193 31.5091 34.0107 31.184C34.0027 30.8833 33.7767 30.9035 33.583 30.8839C33.3742 30.863 33.2768 30.9622 33.3145 31.1703Z" fill="#66B045"/>
<path fill-rule="evenodd" clip-rule="evenodd" d="M37.9631 31.9188C37.9631 32.1119 37.9482 32.3067 37.9696 32.4975C37.9799 32.5902 38.0394 32.6964 38.1097 32.7596C38.3081 32.9381 38.4025 33.4426 38.2431 33.6455C38.1974 33.7038 38.1006 33.7493 38.0257 33.7518C37.6777 33.7628 37.3291 33.7623 36.9812 33.7523C36.9034 33.7499 36.8047 33.712 36.7547 33.6558C36.5883 33.4687 36.7066 32.8996 36.9096 32.76C36.9823 32.7099 37.0515 32.5979 37.054 32.5121C37.0667 32.0762 37.0632 31.6395 37.0496 31.2037C37.0471 31.1235 36.9832 30.9864 36.9295 30.9768C36.687 30.933 36.6865 30.7721 36.6891 30.5866C36.6981 29.9679 36.6959 29.9679 37.3202 29.9679C37.4557 29.9679 37.5949 29.9885 37.7259 29.9643C38.3564 29.848 38.7349 30.1485 39.0201 30.6791C39.1952 31.005 39.4378 31.2945 39.6528 31.6042C39.8038 31.4193 39.8219 31.0496 39.667 30.9889C39.4527 30.9053 39.4743 30.7559 39.4737 30.5918C39.471 29.9315 39.4303 29.96 40.107 29.9679C40.3294 29.9704 40.552 29.9687 40.7745 29.9681C40.9746 29.9675 41.0781 30.0674 41.0828 30.2673C41.086 30.403 41.0981 30.5406 41.0807 30.6739C41.0691 30.7635 41.0284 30.9094 40.9739 30.9233C40.665 31.0013 40.7442 31.2369 40.744 31.4361C40.743 32.1151 40.7469 32.7943 40.753 33.4734C40.7553 33.7282 40.6438 33.7956 40.3869 33.8269C39.7211 33.9079 39.2467 33.722 38.9352 33.0893C38.7498 32.7127 38.466 32.3846 38.2206 32.0387C38.173 31.9716 38.0984 31.9238 38.0363 31.8669C38.0117 31.8843 37.9874 31.9017 37.9631 31.9188Z" fill="#66B045"/>
<path fill-rule="evenodd" clip-rule="evenodd" d="M23.7286 29.8643C24.6532 29.9157 25.3527 30.2916 25.7171 31.165C26.0414 31.9427 25.7344 32.9327 25.0386 33.417C24.1526 34.0337 22.8549 33.9329 22.1264 33.1765C21.1438 32.156 21.6315 30.388 23.0006 30.0184C23.2397 29.9537 23.4858 29.9149 23.7286 29.8643ZM24.1883 31.8705C24.1461 31.6098 24.1346 31.3648 24.0584 31.142C24.0213 31.0338 23.8631 30.8999 23.7595 30.8997C23.6348 30.8994 23.4076 31.0219 23.4019 31.1036C23.368 31.598 23.365 32.0973 23.3955 32.5921C23.4055 32.7534 23.5856 32.8888 23.7669 32.8197C23.8875 32.7738 24.0193 32.6501 24.0622 32.5308C24.1385 32.3186 24.1511 32.0836 24.1883 31.8705Z" fill="#66B045"/>
<path fill-rule="evenodd" clip-rule="evenodd" d="M44.1483 32.6583C44.0147 32.604 43.8785 32.4995 43.7481 32.5063C43.5158 32.5183 43.209 32.3743 43.0621 32.7568C43.4617 32.8678 43.3607 33.1911 43.3649 33.4717C43.3677 33.6615 43.2676 33.7569 43.0774 33.7567C42.7383 33.7564 42.3992 33.7609 42.0603 33.753C41.9929 33.7514 41.8698 33.7049 41.8687 33.6757C41.8589 33.394 41.7568 33.0019 41.8997 32.8539C42.1416 32.6035 42.213 32.3151 42.3332 32.0313C42.4192 31.8283 42.4803 31.6149 42.5621 31.41C42.6414 31.2115 42.6732 31.0748 42.5049 30.8547C42.375 30.6847 42.4592 30.3409 42.4767 30.0764C42.4793 30.0351 42.6336 29.9736 42.7183 29.9726C43.435 29.9649 44.1517 29.9714 44.8685 29.9678C45.1006 29.9666 45.2023 30.0642 45.1817 30.3007C45.1674 30.4648 45.1957 30.6354 45.1615 30.7938C45.1411 30.8887 45.0375 30.9656 44.9576 31.0681C45.1256 31.5414 45.298 32.0448 45.4874 32.5418C45.5218 32.6317 45.6374 32.687 45.697 32.7716C45.7639 32.8665 45.8549 32.975 45.8578 33.0798C45.879 33.8376 45.8603 33.762 45.2157 33.7574C44.867 33.7548 44.5179 33.7473 44.1697 33.7604C43.9521 33.7687 43.8551 33.6763 43.8808 33.471C43.9118 33.2229 43.7317 32.9027 44.1299 32.7698C44.1363 32.7324 44.1423 32.6955 44.1483 32.6583ZM43.6634 31.2924C43.6331 31.299 43.6027 31.3055 43.5724 31.3119C43.5424 31.4097 43.5071 31.5062 43.4844 31.6055C43.4611 31.7084 43.4502 31.814 43.434 31.9181C43.5575 31.9259 43.6811 31.9336 43.8474 31.9439C43.773 31.6809 43.7183 31.4867 43.6634 31.2924Z" fill="#66B045"/>
<path fill-rule="evenodd" clip-rule="evenodd" d="M27.822 29.969C28.064 29.9689 28.3061 29.9627 28.5477 29.971C28.7376 29.9774 28.854 30.0635 28.8381 30.2798C28.8187 30.5412 28.9125 30.8292 28.6351 31.0238C28.6026 31.0465 28.6058 31.1311 28.6054 31.187C28.6031 31.5752 28.5958 31.9639 28.6094 32.3516C28.6135 32.4711 28.6529 32.6062 28.7215 32.7011C28.7714 32.7702 28.8973 32.8181 28.9866 32.814C29.0574 32.8109 29.1677 32.7253 29.1839 32.6577C29.2263 32.4826 29.2349 32.2974 29.2413 32.1156C29.2498 31.8732 29.2594 31.6288 29.2378 31.3883C29.2232 31.2242 29.1336 31.0672 29.1176 30.9031C29.0906 30.6274 29.0872 30.3485 29.097 30.0717C29.0983 30.0349 29.2336 29.9761 29.3083 29.9735C29.637 29.9627 29.9662 29.9722 30.2952 29.9673C30.4526 29.9648 30.5286 30.0249 30.5231 30.189C30.5171 30.3733 30.529 30.5583 30.5181 30.742C30.5139 30.8122 30.4833 30.9263 30.4389 30.9407C30.2124 31.0146 30.2303 31.1869 30.232 31.3649C30.2357 31.7337 30.2249 32.1028 30.2345 32.4714C30.2552 33.263 29.6847 33.7121 29.0195 33.8053C28.5303 33.8737 28.0361 33.8267 27.6085 33.5207C27.3322 33.3229 27.1811 33.04 27.1572 32.714C27.1206 32.2138 27.1263 31.7103 27.1095 31.2085C27.1073 31.1453 27.0973 31.0504 27.057 31.0256C26.6611 30.7819 26.9289 30.4061 26.8752 30.0973C26.8701 30.0683 27.0166 29.9806 27.0965 29.9751C27.3374 29.9586 27.5801 29.9692 27.822 29.969Z" fill="#66B045"/>
<path fill-rule="evenodd" clip-rule="evenodd" d="M48.4599 33.7565C47.9757 33.7567 47.491 33.7462 47.0072 33.7612C46.772 33.7683 46.6835 33.6563 46.6924 33.452C46.7043 33.179 46.59 32.8579 46.9543 32.6973C46.9997 32.6773 47.0212 32.5605 47.022 32.488C47.0271 32.0704 47.0321 31.6523 47.0136 31.2353C47.0095 31.1422 46.9303 31.0278 46.8517 30.9677C46.6839 30.8392 46.6116 30.1547 46.7775 30.0166C46.8225 29.9791 46.9015 29.9701 46.965 29.9696C47.4977 29.9662 48.0304 29.9696 48.5633 29.9668C48.7893 29.9656 48.9089 30.0543 48.8906 30.2976C48.8798 30.4425 48.9011 30.5905 48.8829 30.734C48.8732 30.8092 48.8128 30.9369 48.7694 30.9394C48.4941 30.9554 48.5401 31.1465 48.54 31.3169C48.5398 31.6958 48.5519 32.0752 48.5356 32.4534C48.5253 32.6934 48.6024 32.7701 48.8477 32.7745C49.1335 32.7795 49.3198 32.7431 49.2929 32.3954C49.2889 32.344 49.3845 32.2434 49.443 32.2358C49.6523 32.209 49.8665 32.1977 50.0762 32.2138C50.1352 32.2183 50.2303 32.3362 50.2321 32.4043C50.2429 32.7904 50.2429 33.1781 50.2144 33.5629C50.2092 33.633 50.0579 33.7447 49.9707 33.7478C49.4675 33.7657 48.9635 33.7565 48.4599 33.7565Z" fill="#66B045"/>
<path fill-rule="evenodd" clip-rule="evenodd" d="M19.8895 29.9679C20.1603 29.9681 20.4313 29.9673 20.7021 29.9682C20.8947 29.9688 21.0145 30.0363 20.995 30.2605C20.9817 30.4146 21.0099 30.5736 20.9855 30.7249C20.9721 30.8086 20.8877 30.8805 20.8375 30.959C20.7724 31.0607 20.6546 31.1637 20.6545 31.266C20.6536 31.9436 20.6872 32.6213 20.6899 33.2991C20.691 33.558 20.6632 33.8221 20.6084 34.075C20.4983 34.5834 20.1012 34.898 19.5833 34.9223C19.535 34.9246 19.4866 34.9221 19.4382 34.9229C18.6809 34.9326 18.7397 34.9572 18.7391 34.2063C18.7391 34.0987 18.8507 33.934 18.9493 33.8957C19.1347 33.8238 19.1771 33.7041 19.1778 33.5405C19.1812 32.7643 19.1865 31.9882 19.1768 31.2123C19.1757 31.128 19.0936 30.9833 19.0307 30.9724C18.802 30.9326 18.8264 30.7803 18.8272 30.6237C18.8309 29.9678 18.8303 29.9678 19.4832 29.9678C19.6186 29.9678 19.754 29.9678 19.8895 29.9679Z" fill="#66B045"/>
</svg>
