<svg viewBox="0 0 76 68" fill="none" xmlns="http://www.w3.org/2000/svg"><path fill-rule="evenodd" clip-rule="evenodd" d="M29.744 5.81c-.178 3.502.234 6.61.868 10.034-1.021-3.469-1.742-6.53-1.912-10.17a.52.52 0 0 1 .59-.45c.287.035.49.298.454.586Z" fill="#fff"/><path clip-rule="evenodd" d="M30.027 6.389c-.178 3.502.234 6.61.868 10.035-1.021-3.47-1.742-6.53-1.912-10.17a.523.523 0 0 1 .59-.451c.287.036.49.298.454.586Z" stroke="#FEFEFE" stroke-width="2.67" stroke-linecap="round"/><path fill-rule="evenodd" clip-rule="evenodd" d="M30.027 6.389c-.178 3.502.234 6.61.868 10.035-1.021-3.47-1.742-6.53-1.912-10.17a.523.523 0 0 1 .59-.451c.287.036.49.298.454.586Zm11.811 41.3c-8.03-.708-13.077-4.025-15.045-12.139-.175-.721.404-.835.284-.503.008.047.025.144.03.158 1.738 6.85 8.301 10.065 14.731 10.272.612 0 1.113.495 1.113 1.106 0 .61-.5 1.106-1.113 1.106ZM26.974 35.058l-.053-.039c.006.033.028.042.053.039Z" fill="#fff"/><path fill-rule="evenodd" clip-rule="evenodd" d="m38.753 12.814-.15.025c-.054 1.128 2.312 4.459 2.741 5.236 2.088 3.773.39 1.125 2.597 4.102 1.932 2.607 1.556 2.933 2.694 5.562.162.37.273.611.351.771-.078-.105-.203-.279-.434-.727-1.306-2.52-.938-2.858-3.045-5.25-2.224-2.526-.905-.92-3.029-3.894-1.506-2.11-3.312-3.503-4.233-5.875a1.252 1.252 0 0 1 1.28-1.222 1.25 1.25 0 0 1 1.228 1.272Zm8.233 15.696c.084.166.128.238.15.263-.044-.133-.078-.169-.15-.263Zm.15.263c.07.075-.064-.296.07.263a3.543 3.543 0 0 0-.07-.263Zm.098.387c1.333 5.645-.543 7.199-1.002 12.352-.315 3.55-.638 3.284-3.079 6.04a1.264 1.264 0 0 1-1.753-.276 1.243 1.243 0 0 1 .278-1.742c1.851-.785 2.786-1.075 3.307-3.107.618-2.414.52-3.016 1.497-5.549.938-2.432 1.345-5.139.752-7.718Z" fill="#fff"/><path d="m41.806 7.966 1.238.182-.208 1.394 1.358.199.209-1.394 1.244.186-.596 3.989-1.244-.186.24-1.614-1.356-.202-.242 1.617-1.239-.182.596-3.99Zm8.896 1.813-1.086 3.884-1.136-.312.596-2.134-2.051 1.733-1.147-.315 1.088-3.887 1.142.315-.602 2.151 2.066-1.747 1.13.312Zm4.971 2.353-1.826 3.602-1.055-.528 1.005-1.977-2.352 1.305-1.063-.533 1.826-3.6 1.057.528-1.007 1.993 2.366-1.315 1.05.525Zm3.118 7.68-1.033-.954.35-1.095c.087-.26.126-.431.12-.52a.362.362 0 0 0-.128-.248l-1.094 1.169-.918-.849 2.767-2.952.918.848-1.063 1.134a.35.35 0 0 0 .264.088c.095-.01.307-.1.632-.26.242-.118.434-.187.58-.201.144-.014.31.033.503.143.19.114.454.324.793.636l-.584.622-.048-.041c-.156-.147-.3-.224-.431-.235-.13-.011-.281.027-.454.116a1.417 1.417 0 0 1-.434.152.77.77 0 0 1-.376-.058c.092.166.137.348.137.542 0 .199-.05.459-.148.785l-.353 1.177Zm2.446 3.568-.698-1.03 2.541-1.695-.768-1.137-2.542 1.695-.698-1.034 3.37-2.247 2.166 3.204-3.37 2.244Zm2.862 2.68.064 1.138a2.038 2.038 0 0 1-.844-.064c-.25-.08-.465-.21-.643-.395-.178-.182-.33-.445-.453-.785-.153-.412-.215-.771-.19-1.075.025-.304.154-.608.387-.907.234-.299.59-.534 1.06-.705.633-.227 1.178-.235 1.64-.022.46.21.802.622 1.025 1.233.175.475.217.887.122 1.23-.095.343-.32.655-.673.934l-.61-.95a.925.925 0 0 0 .211-.205.72.72 0 0 0 .12-.315.718.718 0 0 0-.044-.346.732.732 0 0 0-.543-.495c-.198-.05-.47-.013-.81.108-.423.155-.688.32-.8.506-.108.185-.122.393-.035.622.08.224.206.37.376.44.166.069.38.085.64.052Zm.88 4.696-.22 1.12a2.002 2.002 0 0 1-.805-.269 1.499 1.499 0 0 1-.523-.539c-.128-.22-.21-.511-.245-.873-.045-.437-.017-.8.08-1.087.1-.29.304-.55.602-.782.3-.235.704-.376 1.205-.426.665-.066 1.197.061 1.592.379s.624.799.69 1.446c.05.506-.014.912-.189 1.222-.178.31-.47.555-.885.74l-.354-1.07a.914.914 0 0 0 .257-.146.73.73 0 0 0 .194-.276.716.716 0 0 0 .042-.346.736.736 0 0 0-.403-.614c-.181-.096-.451-.127-.813-.09-.448.044-.746.14-.9.292-.15.152-.214.351-.189.595.023.237.106.412.254.52.147.107.35.176.61.204Zm.275 4.691c-.198.46-.537.655-1.013.586a1.207 1.207 0 0 1-.902-.589c-.206-.337-.27-.78-.19-1.327.137-.934.616-1.46 1.44-1.572l-.081 1.177c-.292.025-.46.191-.504.495-.025.171 0 .307.072.406a.482.482 0 0 0 .34.186.465.465 0 0 0 .387-.114c.109-.1.175-.243.203-.434l.05-.334.718.102-.039.265a.53.53 0 0 0 .07.388.46.46 0 0 0 .328.185c.218.03.346-.089.385-.36.041-.279-.062-.459-.307-.539l.293-1.086c.668.279.938.868.807 1.76-.073.498-.226.872-.46 1.126a.912.912 0 0 1-.843.31c-.392-.059-.646-.269-.754-.63ZM20.073 53.795h-.988l-.348-1.363c-.078-.324-.142-.525-.186-.605-.045-.083-.106-.122-.187-.122v2.09h-.877v-5.289h.877v2.03c.078-.006.136-.056.178-.15.045-.094.112-.365.2-.807.067-.329.134-.567.201-.708a.6.6 0 0 1 .328-.31c.15-.06.387-.093.71-.093v1.117h-.044c-.15 0-.262.052-.334.157-.07.108-.131.277-.178.514a2.434 2.434 0 0 1-.148.531.702.702 0 0 1-.223.28c.129.077.24.212.332.4.094.188.195.484.303.882l.384 1.446Zm.047-5.289h.955l.396 2.179.386-2.179h.894l-.933 4.084a6.661 6.661 0 0 1-.2.735.944.944 0 0 1-.253.4c-.112.106-.265.158-.46.158a2.89 2.89 0 0 1-.534-.083v-1.092c.15.03.259.045.326.045.203 0 .328-.141.37-.423l-.947-3.824Zm4.721 2.414c.34.168.512.57.512 1.197 0 .517-.108.94-.322 1.269a1.017 1.017 0 0 1-.905.497c-.668 0-1.083-.522-1.244-1.562l.83-.116c.047.37.177.556.397.556.12 0 .212-.058.276-.172a1 1 0 0 0 .095-.472.844.844 0 0 0-.12-.476.366.366 0 0 0-.323-.182H23.8v-.946h.187c.111 0 .2-.052.264-.163.064-.108.095-.262.095-.456 0-.285-.095-.428-.287-.428-.2 0-.314.166-.348.495l-.785-.17c.128-.917.51-1.373 1.147-1.373.354 0 .632.127.832.382.2.254.301.597.301 1.028 0 .517-.122.882-.365 1.092Zm1.83-.376h.47c.43 0 .751.14.957.423.209.285.312.724.312 1.318 0 .49-.095.863-.284 1.12-.192.26-.465.39-.824.39h-1.509v-5.289h2.397v1.07h-1.52v.968Zm0 2.112h.45c.276 0 .412-.185.412-.556 0-.323-.136-.486-.412-.486h-.45v1.042Zm3.957.265h-.994l-.144.874h-.896l1.071-5.289h.96l1.067 5.289h-.922l-.142-.874Zm-.183-1.144-.312-1.9-.312 1.9h.623Zm3.418-.147.77.431c-.05.401-.13.739-.244 1.007-.112.268-.248.473-.415.608-.164.138-.373.207-.63.207-.308 0-.561-.085-.756-.251-.198-.166-.365-.462-.51-.882-.142-.418-.211-.957-.211-1.612 0-.873.125-1.545.373-2.018.253-.467.607-.702 1.063-.702.36 0 .643.133.846.404.206.268.36.682.457 1.24l-.774.319a1.833 1.833 0 0 0-.086-.351.754.754 0 0 0-.181-.285.329.329 0 0 0-.237-.102c-.2 0-.353.149-.459.445-.08.22-.123.57-.123 1.04 0 .585.05.986.145 1.204.098.216.231.324.404.324.17 0 .295-.086.381-.263.087-.174.148-.431.187-.763Zm3.092 0 .768.431c-.05.401-.13.739-.245 1.007-.11.268-.247.473-.412.608a.955.955 0 0 1-.631.207c-.31 0-.563-.085-.758-.251-.197-.166-.364-.462-.506-.882-.145-.418-.214-.957-.214-1.612 0-.873.125-1.545.373-2.018.253-.467.606-.702 1.066-.702.356 0 .64.133.843.404.206.268.36.682.457 1.24l-.774.319a2.12 2.12 0 0 0-.084-.351.827.827 0 0 0-.18-.285.34.34 0 0 0-.24-.102c-.2 0-.354.149-.46.445-.08.22-.119.57-.119 1.04 0 .585.047.986.142 1.204.097.216.23.324.404.324.17 0 .295-.086.38-.263.087-.174.148-.431.19-.763Z" fill="#fff"/><path fill-rule="evenodd" clip-rule="evenodd" d="M24.093 11.951c-.957 4.186-2.917 26.492-.161 29.38 3.315 3.481 2.861-6.114 2.864-6.371.662 2.51 2.051 9.648-2.94 7.538-2.16-.66-1.981-5.584-2.154-7.37l.034.16c-1.882-8.705-1.565-15.013.175-23.78a1.114 1.114 0 0 1 2.182.443Zm5.934-5.562c-.178 3.502.234 6.61.868 10.035-1.021-3.47-1.742-6.53-1.912-10.17a.523.523 0 0 1 .59-.451c.287.036.49.298.454.586Z" fill="#fff"/><path fill-rule="evenodd" clip-rule="evenodd" d="M29.689 4.994a1.344 1.344 0 0 0-1.514 1.159l-.009.069.003.07c.174 3.73 1.161 8.27 2.192 11.772l1.6-.376c-.631-3.411-1.273-7.837-1.104-11.235a1.342 1.342 0 0 0-1.168-1.459Z" fill="#fff"/><path fill-rule="evenodd" clip-rule="evenodd" d="M30.027 6.389c-.178 3.502.234 6.61.868 10.035-1.021-3.47-1.742-6.53-1.912-10.17a.523.523 0 0 1 .59-.451c.287.036.49.298.454.586Zm19.282 42.996c.167-.01.32.093.37.252l1.75 5.504.439-.581a.366.366 0 0 1 .584 0l.683.911.393-.53a.366.366 0 0 1 .624.062l.405.862a.366.366 0 0 1 .263-.115l3.382-.03a.364.364 0 0 1 .368.359c.002.2-.16.363-.361.365l-3.144.028-.17.397a.365.365 0 0 1-.667.01l-.477-1.017-.32.432a.365.365 0 0 1-.587.002l-.686-.914-.573.757a.366.366 0 0 1-.639-.108l-1.52-4.786-1.529 8.275a.364.364 0 0 1-.367.297.364.364 0 0 1-.353-.315l-.513-3.839-.36.601a.365.365 0 0 1-.607.029l-.645-.878-.599 1.156a.365.365 0 0 1-.67-.05l-.191-.57-.317.628a.365.365 0 0 1-.599.078l-.357-.4-.392.439a.366.366 0 0 1-.625-.15l-.832-3.173-.666 3.18a.366.366 0 0 1-.614.184l-1.162-1.143-.572.996a.364.364 0 0 1-.498.135l-.765-.436-1.174 3.703a.364.364 0 0 1-.688.022l-1.4-3.593-13.856-.082a.363.363 0 0 1-.362-.364.363.363 0 0 1 .367-.36l14.104.083c.15 0 .284.093.338.231l1.114 2.86.998-3.148a.367.367 0 0 1 .53-.205l.84.48.626-1.091a.365.365 0 0 1 .573-.078l1.024 1.007.846-4.044a.364.364 0 0 1 .71-.018l1.052 4.016.212-.237a.366.366 0 0 1 .546 0l.271.305.469-.929a.365.365 0 0 1 .672.047l.195.582.473-.914a.365.365 0 0 1 .619-.048l.668.909.614-1.027a.366.366 0 0 1 .675.137l.348 2.601 1.376-7.453a.364.364 0 0 1 .336-.296Z" fill="#fff"/><path d="M46.986 28.51c-.078-.16-.19-.4-.35-.77-1.139-2.63-.763-2.956-2.695-5.563-2.207-2.977-.51-.329-2.597-4.102-.429-.777-2.795-4.108-2.742-5.236v.054c.013-.688-.387-1.337-1.077-1.35a1.252 1.252 0 0 0-1.28 1.221c.921 2.372 2.727 3.765 4.233 5.875 2.124 2.974.805 1.368 3.029 3.895 2.107 2.391 1.74 2.728 3.045 5.25.231.447.356.621.434.727Zm0 0c.084.166.128.238.15.263m-.15-.262c.073.093.106.13.15.262m0 0c.07.075-.064-.296.07.263m-.07-.263c.02.06.042.144.07.263m0 0c.011.041.02.083.028.124m0 0c1.333 5.645-.543 7.199-1.002 12.352-.315 3.55-.638 3.284-3.079 6.04a1.264 1.264 0 0 1-1.753-.276 1.243 1.243 0 0 1 .278-1.742c1.851-.785 2.786-1.075 3.307-3.107.618-2.414.52-3.016 1.497-5.549.938-2.432 1.345-5.139.752-7.718Z" stroke="#fff" stroke-linecap="round" stroke-linejoin="round"/><path fill-rule="evenodd" clip-rule="evenodd" d="M38.602 12.839c-.053 1.128 2.313 4.459 2.742 5.236 2.088 3.773.39 1.125 2.597 4.102 1.932 2.607 1.556 2.933 2.694 5.562.162.37.273.611.351.771-.078-.105-.203-.279-.434-.727-1.306-2.52-.938-2.858-3.045-5.25-2.224-2.526-.905-.92-3.029-3.894-1.506-2.11-3.312-3.503-4.233-5.875a1.252 1.252 0 0 1 1.28-1.222c.69.014 1.091.608 1.077 1.297Zm8.384 15.671c.084.166.128.238.15.263-.044-.133-.078-.169-.15-.263Zm.15.263c.07.075-.064-.296.07.263a3.543 3.543 0 0 0-.07-.263Zm.098.387c1.333 5.645-.543 7.199-1.002 12.352-.315 3.55-.638 3.284-3.079 6.04a1.264 1.264 0 0 1-1.753-.276 1.243 1.243 0 0 1 .278-1.742c1.851-.785 2.786-1.075 3.307-3.107.618-2.414.52-3.016 1.497-5.549.938-2.432 1.345-5.139.752-7.718Z" fill="#fff"/><path fill-rule="evenodd" clip-rule="evenodd" d="M28.907 16.262C27.822-11.947 5.827.828 1.56 22.189c-3.465 17.35 3.761 40.794 42.672 45.784 2.655.34 2.672-2.684.442-2.983-71.953-9.667-29.11-93.803-15.766-48.728Zm2.82-8.88C64.372-7.588 92.78 32.187 62.006 56.747c-2.377 1.896-5.05-.39-3.168-1.457 17.564-9.963 19.42-57.932-27.11-47.908Z" fill="#fff"/><path fill-rule="evenodd" clip-rule="evenodd" d="M29.6 7.145h.328l-.125.003-.203.005a.07.07 0 0 1 0-.008Zm.102-.553c.31 0 .552.25.554.548.106 4.276.182 5.48 1.26 9.62.054.21.151.612.248 1.116a6.156 6.156 0 0 0-1.024.658 18.117 18.117 0 0 0-.287-1.45c-1.113-4.298-1.198-5.518-1.307-9.931v-.008c0-.305.25-.553.556-.553Zm-1.187 15.677a7.283 7.283 0 0 0-.2.037c-.536.113-.955.316-1.22.744-.247.4-.324.948-.338 1.65-.014.635.025 1.451.074 2.49l.019.394c.023.485.12 1.572.386 2.583.133.505.313 1.01.558 1.414.242.4.579.75 1.044.853l.017.004.018.002a.554.554 0 0 0 .156-1.095.332.332 0 0 1-.143-.107 1.516 1.516 0 0 1-.222-.353c-.15-.314-.278-.736-.382-1.187a14.83 14.83 0 0 1-.32-2.145l-.044-.892a42.124 42.124 0 0 1-.07-1.792c-.003-.65.052-.992.16-1.188.071-.127.18-.22.42-.287v-.091c0-.352.03-.698.087-1.034Zm7.191 7.028c.048.398.072.85.072 1.341a18.448 18.448 0 0 1-.32 3.288c-.21 1.117-.519 2.184-.913 3.034-.401.864-.864 1.446-1.35 1.68-.884.426-1.398.9-2.02 1.473-.162.15-.331.306-.516.47l-.015.013-.013.015a.553.553 0 0 0 .042.778l.002.001.002.002a.56.56 0 0 0 .768-.03c.156-.137.307-.276.456-.412.548-.504 1.064-.977 1.685-1.282.708-.35 1.289-1.042 1.752-1.884.467-.848.834-1.882 1.097-2.967.428-1.763.59-3.702.434-5.246.89.875 1.638 1.716 2.088 2.461l.398.66c.691 1.15 1.128 1.876 1.636 2.554.604.804 1.305 1.537 2.638 2.836.27.263.461.75.594 1.393.127.613.19 1.301.247 1.94l.004.049c.03.322.058.632.094.903.035.267.08.517.15.713.035.098.081.2.148.286a.555.555 0 0 0 .316.21.567.567 0 0 0 .388-.059 1.15 1.15 0 0 0 .291-.228l.005-.005.004-.005a.547.547 0 0 0-.23-.884 5.996 5.996 0 0 1-.073-.777 38.76 38.76 0 0 1-.015-.37 21.49 21.49 0 0 0-.057-1.053c-.087-1.006-.315-2.145-1.127-2.935-1.277-1.242-1.933-1.933-2.492-2.68-.492-.655-.913-1.357-1.611-2.522l-.002-.003-.325-.54c-.515-.855-1.413-1.848-2.437-2.853a6.126 6.126 0 0 1-1.794.635Zm3.702-2.242c.255.268.592.6 1.04 1.017l.02.02c.545.504 1.058.98 1.849 1.164 1.265 1.337 2.726 1.899 4.585 1.867h.015l.015-.002a.556.556 0 0 0 .495-.601v-.004l-.001-.003a.556.556 0 0 0-.595-.492c-1.287.018-2.555-.377-3.473-1.256a3.99 3.99 0 0 0-.705-.56c-.136-.082-.27-.147-.388-.205-.047-.023-.093-.045-.135-.067-.3-.153-.692-.395-1.525-1.274-.218-.23-.402-.429-.558-.6-.18.353-.395.687-.639.996Z" fill="#fff"/><path fill-rule="evenodd" clip-rule="evenodd" d="M34.568 17.321c-3.164 0-5.73 2.548-5.73 5.691s2.566 5.69 5.73 5.69c3.165 0 5.73-2.547 5.73-5.69 0-3.143-2.565-5.69-5.73-5.69Zm-6.55 5.691c0-3.593 2.932-6.506 6.55-6.506s6.551 2.913 6.551 6.506c0 3.593-2.933 6.506-6.55 6.506-3.619 0-6.552-2.913-6.552-6.506Z" fill="#fff"/><path fill-rule="evenodd" clip-rule="evenodd" d="M34.156 22.797v-5.883h.821v6.314l-5.147 3.475-.462-.674 4.788-3.232Z" fill="#fff"/><path fill-rule="evenodd" clip-rule="evenodd" d="m39.697 26.397-5.33-3.03.408-.708 5.33 3.03-.408.708Z" fill="#fff"/></svg>