<svg width="156" height="127" viewBox="0 0 156 127" fill="none" xmlns="http://www.w3.org/2000/svg">
<g filter="url(#filter0_dd)">
<path d="M131.53 20H24.4701C22.0013 20 20 22.0026 20 24.473V102.527C20 104.997 22.0013 107 24.4701 107H131.53C133.999 107 136 104.997 136 102.527V24.473C136 22.0026 133.999 20 131.53 20Z" fill="white"/>
<path d="M71.4065 39.4576H28.7168C27.7292 39.4576 26.9287 40.2587 26.9287 41.2468V41.9178C26.9287 42.9059 27.7292 43.707 28.7168 43.707H71.4065C72.3941 43.707 73.1946 42.9059 73.1946 41.9178V41.2468C73.1946 40.2587 72.3941 39.4576 71.4065 39.4576Z" fill="#DFE4E6"/>
<path fill-rule="evenodd" clip-rule="evenodd" d="M26.7052 48.8496C26.7052 48.3562 27.1064 47.9563 27.5995 47.9563H89.2868C89.7807 47.9563 90.1811 48.358 90.1811 48.8496V54.438C90.1811 54.9313 89.7799 55.3313 89.2868 55.3313H27.5995C27.1056 55.3313 26.7052 54.9295 26.7052 54.438V48.8496ZM26.7052 59.912C26.7052 59.4187 27.1064 59.0188 27.5995 59.0188H89.2868C89.7807 59.0188 90.1811 59.4205 90.1811 59.912V65.5005C90.1811 65.9938 89.7799 66.3937 89.2868 66.3937H27.5995C27.1056 66.3937 26.7052 65.992 26.7052 65.5005V59.912ZM26.7052 70.9745C26.7052 70.4812 27.1058 70.0812 27.5994 70.0812H55.9621C56.4559 70.0812 56.8563 70.483 56.8563 70.9745V76.5629C56.8563 77.0563 56.4556 77.4562 55.9621 77.4562H27.5994C27.1055 77.4562 26.7052 77.0544 26.7052 76.5629V70.9745ZM60.559 70.9745C60.559 70.4812 60.9609 70.0812 61.4536 70.0812H89.2865C89.7806 70.0812 90.1811 70.483 90.1811 70.9745V76.5629C90.1811 77.0563 89.7792 77.4562 89.2865 77.4562H61.4536C60.9595 77.4562 60.559 77.0544 60.559 76.5629V70.9745ZM26.7052 82.0369C26.7052 81.5436 27.1064 81.1437 27.5995 81.1437H89.2868C89.7807 81.1437 90.1811 81.5454 90.1811 82.0369V87.6254C90.1811 88.1187 89.7799 88.5187 89.2868 88.5187H27.5995C27.1056 88.5187 26.7052 88.1169 26.7052 87.6254V82.0369Z" fill="#EDEFF0"/>
<path d="M30.3903 92.2062H44.1787C44.94 92.2062 45.6032 92.362 46.1492 92.6543C46.6951 92.9467 47.1238 93.3757 47.416 93.9219C47.7081 94.4682 47.8638 95.1319 47.8638 95.8937C47.8638 96.6554 47.7081 97.3191 47.416 97.8654C47.1238 98.4117 46.6951 98.8406 46.1492 99.133C45.6032 99.4254 44.94 99.5812 44.1787 99.5812H30.3903C29.629 99.5812 28.9658 99.4254 28.4199 99.133C27.8739 98.8406 27.4453 98.4117 27.1531 97.8654C26.8609 97.3191 26.7052 96.6554 26.7052 95.8937C26.7052 95.1319 26.8609 94.4682 27.1531 93.9219C27.4453 93.3757 27.8739 92.9467 28.4199 92.6543C28.9658 92.362 29.629 92.2062 30.3903 92.2062Z" fill="#37C277"/>
<path d="M101.371 47.9563H123.068C124.064 47.9563 124.871 48.764 124.871 49.7604V50.3866C124.871 51.383 124.064 52.1907 123.068 52.1907H101.371C100.376 52.1907 99.5684 51.383 99.5684 50.3866V49.7604C99.5684 48.764 100.376 47.9563 101.371 47.9563ZM101.371 54.8373H125.177C126.172 54.8373 126.98 55.645 126.98 56.6414V57.2676C126.98 58.264 126.172 59.0717 125.177 59.0717H101.371C100.376 59.0717 99.5684 58.264 99.5684 57.2676V56.6414C99.5684 55.645 100.376 54.8373 101.371 54.8373ZM101.371 61.7182H124.122C125.118 61.7182 125.925 62.526 125.925 63.5224V64.1486C125.925 65.145 125.118 65.9527 124.122 65.9527H101.371C100.376 65.9527 99.5684 65.145 99.5684 64.1486V63.5224C99.5684 62.526 100.376 61.7182 101.371 61.7182ZM101.371 68.5992H125.704C126.7 68.5992 127.507 69.407 127.507 70.4033V71.0296C127.507 72.0259 126.7 72.8337 125.704 72.8337H101.371C100.376 72.8337 99.5684 72.0259 99.5684 71.0296V70.4033C99.5684 69.407 100.376 68.5992 101.371 68.5992ZM101.371 75.4802H122.014C123.01 75.4802 123.817 76.2879 123.817 77.2843V77.9105C123.817 78.9069 123.01 79.7146 122.014 79.7146H101.371C100.376 79.7146 99.5684 78.9069 99.5684 77.9105V77.2843C99.5684 76.2879 100.376 75.4802 101.371 75.4802Z" fill="#DFE4E6"/>
<path d="M20 24.474C20 22.0031 22.0012 20 24.4718 20H131.528C133.998 20 136 22.0033 136 24.474V29.8406H20V24.474Z" fill="#DFE4E6"/>
</g>
<defs>
<filter id="filter0_dd" x="0" y="0" width="156" height="127" filterUnits="userSpaceOnUse" color-interpolation-filters="sRGB">
<feFlood flood-opacity="0" result="BackgroundImageFix"/>
<feColorMatrix in="SourceAlpha" type="matrix" values="0 0 0 0 0 0 0 0 0 0 0 0 0 0 0 0 0 0 127 0"/>
<feOffset dx="4" dy="4"/>
<feGaussianBlur stdDeviation="8"/>
<feColorMatrix type="matrix" values="0 0 0 0 0.619608 0 0 0 0 0.654902 0 0 0 0 0.662745 0 0 0 0.4 0"/>
<feBlend mode="normal" in2="BackgroundImageFix" result="effect1_dropShadow"/>
<feColorMatrix in="SourceAlpha" type="matrix" values="0 0 0 0 0 0 0 0 0 0 0 0 0 0 0 0 0 0 127 0"/>
<feOffset dx="-4" dy="-4"/>
<feGaussianBlur stdDeviation="8"/>
<feColorMatrix type="matrix" values="0 0 0 0 1 0 0 0 0 1 0 0 0 0 1 0 0 0 1 0"/>
<feBlend mode="normal" in2="effect1_dropShadow" result="effect2_dropShadow"/>
<feBlend mode="normal" in="SourceGraphic" in2="effect2_dropShadow" result="shape"/>
</filter>
</defs>
</svg>
