<svg width="156" height="129" viewBox="0 0 156 129" fill="none" xmlns="http://www.w3.org/2000/svg">
<g filter="url(#filter0_dd)">
<g clip-path="url(#clip0)">
<path d="M24.5758 20H131.421C133.948 20 135.997 22.0487 135.997 24.5758V107.627C135.997 108.385 135.382 109 134.624 109H21.3727C20.6146 109 20 108.385 20 107.627V24.5758C20 22.0487 22.0487 20 24.5758 20Z" fill="white"/>
<path d="M126.368 39.6102H27.6528C27.1473 39.6102 26.7376 40.02 26.7376 40.5254V64.5677C26.7376 65.0731 27.1473 65.4828 27.6528 65.4828H126.368C126.874 65.4828 127.283 65.0731 127.283 64.5677V40.5254C127.283 40.02 126.874 39.6102 126.368 39.6102Z" fill="#37C277"/>
<path fill-rule="evenodd" clip-rule="evenodd" d="M80.5644 50.3218C81.2299 50.3218 81.7695 49.7773 81.7695 49.1056C81.7695 48.4338 81.2299 47.8893 80.5644 47.8893C79.8988 47.8893 79.3592 48.4338 79.3592 49.1056C79.3592 49.7773 79.8988 50.3218 80.5644 50.3218ZM80.635 57.6867H80.1791H77.6005L77.0414 57.6938L77.0458 57.6867H69.8181C69.5663 57.6867 69.4705 57.5128 69.604 57.2983L74.6634 49.1702C74.7969 48.9557 75.0192 48.9545 75.1571 49.1637L78.8406 54.7974L80.2031 52.604C80.3368 52.3887 80.5611 52.3826 80.7046 52.5913L83.8544 57.1684C83.9977 57.3766 83.911 57.5516 83.6566 57.5595L80.9133 57.6445L80.612 57.6484L80.635 57.6867Z" fill="white"/>
<path d="M27.1952 70.1399H62.5595C62.8122 70.1399 63.0171 70.3448 63.0171 70.5975V73.8219C63.0171 74.0747 62.8122 74.2795 62.5595 74.2795H27.1952C26.9425 74.2795 26.7376 74.0747 26.7376 73.8219V70.5975C26.7376 70.3448 26.9425 70.1399 27.1952 70.1399ZM27.1952 76.8668H52.1939C52.4466 76.8668 52.6515 77.0717 52.6515 77.3244V80.5488C52.6515 80.8016 52.4466 81.0064 52.1939 81.0064H27.1952C26.9425 81.0064 26.7376 80.8016 26.7376 80.5488V77.3244C26.7376 77.0717 26.9425 76.8668 27.1952 76.8668ZM27.1952 83.5937H57.3767C57.6294 83.5937 57.8343 83.7986 57.8343 84.0513V87.2757C57.8343 87.5285 57.6294 87.7333 57.3767 87.7333H27.1952C26.9425 87.7333 26.7376 87.5285 26.7376 87.2757V84.0513C26.7376 83.7986 26.9425 83.5937 27.1952 83.5937ZM27.1952 90.3206H47.0111C47.2639 90.3206 47.4687 90.5255 47.4687 90.7782V94.0026C47.4687 94.2553 47.2639 94.4602 47.0111 94.4602H27.1952C26.9425 94.4602 26.7376 94.2553 26.7376 94.0026V90.7782C26.7376 90.5255 26.9425 90.3206 27.1952 90.3206ZM73.8402 76.8668H110.241C110.494 76.8668 110.699 77.0717 110.699 77.3244V80.5488C110.699 80.8016 110.494 81.0064 110.241 81.0064H73.8402C73.5875 81.0064 73.3826 80.8016 73.3826 80.5488V77.3244C73.3826 77.0717 73.5875 76.8668 73.8402 76.8668ZM73.8402 83.5937H114.906C115.158 83.5937 115.363 83.7986 115.363 84.0513V87.2757C115.363 87.5285 115.158 87.7333 114.906 87.7333H73.8402C73.5875 87.7333 73.3826 87.5285 73.3826 87.2757V84.0513C73.3826 83.7986 73.5875 83.5937 73.8402 83.5937ZM73.8402 90.3206H119.57C119.823 90.3206 120.028 90.5255 120.028 90.7782V94.0026C120.028 94.2553 119.823 94.4602 119.57 94.4602H73.8402C73.5875 94.4602 73.3826 94.2553 73.3826 94.0026V90.7782C73.3826 90.5255 73.5875 90.3206 73.8402 90.3206ZM73.8402 97.0475H105.577C105.829 97.0475 106.034 97.2524 106.034 97.5051V100.73C106.034 100.982 105.829 101.187 105.577 101.187H73.8402C73.5875 101.187 73.3826 100.982 73.3826 100.73V97.5051C73.3826 97.2524 73.5875 97.0475 73.8402 97.0475ZM73.8402 70.1399H119.57C119.823 70.1399 120.028 70.3448 120.028 70.5975V73.8219C120.028 74.0747 119.823 74.2795 119.57 74.2795H73.8402C73.5875 74.2795 73.3826 74.0747 73.3826 73.8219V70.5975C73.3826 70.3448 73.5875 70.1399 73.8402 70.1399Z" fill="#EDEFF0"/>
<path d="M20 24.5769C20 22.0491 22.0502 20 24.574 20H131.423C133.949 20 135.997 22.0493 135.997 24.5769V30.0669H20V24.5769Z" fill="#DFE4E6"/>
</g>
</g>
<defs>
<filter id="filter0_dd" x="0" y="0" width="155.997" height="129" filterUnits="userSpaceOnUse" color-interpolation-filters="sRGB">
<feFlood flood-opacity="0" result="BackgroundImageFix"/>
<feColorMatrix in="SourceAlpha" type="matrix" values="0 0 0 0 0 0 0 0 0 0 0 0 0 0 0 0 0 0 127 0"/>
<feOffset dx="4" dy="4"/>
<feGaussianBlur stdDeviation="8"/>
<feColorMatrix type="matrix" values="0 0 0 0 0.619608 0 0 0 0 0.654902 0 0 0 0 0.662745 0 0 0 0.4 0"/>
<feBlend mode="normal" in2="BackgroundImageFix" result="effect1_dropShadow"/>
<feColorMatrix in="SourceAlpha" type="matrix" values="0 0 0 0 0 0 0 0 0 0 0 0 0 0 0 0 0 0 127 0"/>
<feOffset dx="-4" dy="-4"/>
<feGaussianBlur stdDeviation="8"/>
<feColorMatrix type="matrix" values="0 0 0 0 1 0 0 0 0 1 0 0 0 0 1 0 0 0 1 0"/>
<feBlend mode="normal" in2="effect1_dropShadow" result="effect2_dropShadow"/>
<feBlend mode="normal" in="SourceGraphic" in2="effect2_dropShadow" result="shape"/>
</filter>
<clipPath id="clip0">
<path d="M20 20H135.997V109H20V20Z" fill="white"/>
</clipPath>
</defs>
</svg>
