<svg width="195" height="195" viewBox="0 0 195 195" fill="none" xmlns="http://www.w3.org/2000/svg">
<path d="M30.75 90.5106C30.75 98.6789 43.1856 105.301 58.5257 105.301C73.8658 105.301 86.3014 98.6789 86.3014 90.5106M30.75 90.5106C30.75 82.3422 43.1856 75.7204 58.5257 75.7204C65.0943 75.7204 71.1303 76.9345 75.8855 78.9643M30.75 90.5106V107.911M86.3014 90.5106C86.3014 89.9801 86.2489 89.4562 86.1467 88.9401M86.3014 90.5106V126.181M30.75 107.911C30.75 116.079 43.1856 122.701 58.5257 122.701C73.8658 122.701 86.3014 116.079 86.3014 107.911M30.75 107.911V126.181M30.75 126.181C30.75 134.349 43.1856 140.971 58.5257 140.971C73.8658 140.971 86.3014 134.349 86.3014 126.181M30.75 126.181V144.451C30.75 152.619 43.1856 159.241 58.5257 159.241C73.8658 159.241 86.3014 152.619 86.3014 144.451V126.181M86.3014 126.181V123.807C89.8113 125.305 94.0191 126.359 98.6237 126.808M75.8855 41.7901C75.8855 49.9585 88.3211 56.5803 103.661 56.5803C119.001 56.5803 131.437 49.9585 131.437 41.7901M75.8855 41.7901C75.8855 33.6218 88.3211 27 103.661 27C119.001 27 131.437 33.6218 131.437 41.7901M75.8855 41.7901V59.1903M131.437 41.7901V59.1903M75.8855 59.1903C75.8855 67.3586 88.3211 73.9804 103.661 73.9804C119.001 73.9804 131.437 67.3586 131.437 59.1903M75.8855 59.1903V78.9643M131.437 59.1903V77.4604M131.437 77.4604C131.437 85.6288 119.001 92.2506 103.661 92.2506C97.0212 92.2506 90.9253 91.0099 86.1467 88.9401M131.437 77.4604V85.474M86.3014 107.277C89.8113 108.775 94.0191 109.829 98.6237 110.278M86.1467 88.9401C85.3484 84.9126 81.5143 81.367 75.8855 78.9643M118.859 121.765V115.73C118.859 109.54 122.647 104.522 128.846 104.522H134.027C140.227 104.522 144.015 109.54 144.015 115.73V121.765M98.6237 126.808V130.534C98.6237 147.292 111.83 161.904 131.437 168.75C151.051 161.906 164.25 147.297 164.25 130.534V103.174L131.437 85.9868L98.6237 103.174V110.278M98.6237 126.808V110.278M145.31 147.628H117.564C115.179 147.628 113.246 145.698 113.246 143.318V123.489C113.246 122.537 114.019 121.765 114.973 121.765H147.9C148.854 121.765 149.627 122.537 149.627 123.489V143.318C149.627 145.698 147.694 147.628 145.31 147.628Z" stroke="black" stroke-linecap="round" stroke-linejoin="round"/>
</svg>
