<svg width="165" height="34" viewBox="0 0 165 34" fill="none" xmlns="http://www.w3.org/2000/svg">
<path d="M32.4792 14.7913H5.13752C5.62112 12.5999 6.73959 10.5995 8.35327 9.03999C9.96694 7.48043 12.0043 6.43082 14.2109 6.02223C16.4176 5.61364 18.6957 5.86418 20.7608 6.74256C22.8259 7.62094 24.5864 9.08823 25.8226 10.9612L29.9527 8.22703C27.8895 5.12955 24.831 2.82882 21.283 1.70515C17.7349 0.581472 13.9096 0.702125 10.4394 2.04716C6.96925 3.3922 4.0619 5.88109 2.19795 9.10244C0.33401 12.3238 -0.374929 16.0847 0.188321 19.7636H27.53C27.0559 21.9647 25.9424 23.9767 24.3292 25.5474C22.716 27.118 20.675 28.1774 18.4621 28.5927C16.2492 29.0079 13.9629 28.7605 11.8901 27.8814C9.81727 27.0024 8.05012 25.5309 6.81032 23.6514L2.72637 26.3856C4.55852 29.1263 7.17652 31.2491 10.2367 32.4752C13.297 33.7014 16.6564 33.9736 19.8741 33.2562C23.0918 32.5388 26.0175 30.8653 28.267 28.4553C30.5165 26.0453 31.9848 23.0115 32.4792 19.7521C32.6027 18.9427 32.6644 18.1251 32.6638 17.3063C32.6679 16.4645 32.6062 15.6236 32.4792 14.7913Z" fill="#4A4C4D"/>
<path d="M97.1649 9.38145V11.8503C97.7439 10.9925 98.5289 10.2937 99.448 9.81806C100.367 9.34238 101.391 9.10499 102.426 9.12764C105.69 9.12764 108.759 11.5042 108.759 16.0496V25.2789H106.383V16.0611C106.431 15.4531 106.352 14.8417 106.15 14.266C105.949 13.6903 105.629 13.163 105.212 12.7179C104.795 12.2727 104.29 11.9194 103.729 11.6806C103.167 11.4418 102.562 11.3228 101.953 11.3311C101.318 11.3168 100.687 11.4317 100.098 11.6686C99.5093 11.9056 98.9748 12.2599 98.527 12.7098C98.0793 13.1597 97.7276 13.6959 97.4935 14.2859C97.2593 14.8759 97.1475 15.5074 97.1649 16.1419V25.175H94.7883V9.38145H97.1649Z" fill="#404242"/>
<path d="M124.022 20.6527H126.618C126.098 22.1299 125.113 23.3986 123.811 24.2681C122.509 25.1377 120.959 25.5612 119.396 25.475C118.322 25.5013 117.254 25.3066 116.259 24.9027C115.263 24.4989 114.362 23.8946 113.61 23.1275C112.858 22.3604 112.271 21.4468 111.888 20.4435C111.504 19.4402 111.33 18.3687 111.378 17.2955C111.378 12.7617 114.389 9.11609 119.234 9.11609C124.08 9.11609 127.091 12.7617 127.091 17.2955V18.2531H113.812C113.926 19.6523 114.57 20.9554 115.612 21.8964C116.654 22.8375 118.015 23.3458 119.419 23.3176C120.36 23.3577 121.294 23.1281 122.109 22.6561C122.924 22.184 123.588 21.489 124.022 20.6527ZM113.847 16.038H124.622C124.45 14.7305 123.809 13.53 122.818 12.6603C121.827 11.7905 120.553 11.311 119.234 11.311C117.916 11.311 116.642 11.7905 115.651 12.6603C114.659 13.53 114.018 14.7305 113.847 16.038Z" fill="#404242"/>
<path d="M139.216 12.5772L135.259 25.2674H132.536L127.552 9.38153H130.09L133.886 22.2794L137.912 9.38153H140.508L144.534 22.2794L148.33 9.38153H150.868L145.907 25.1751H143.184L139.216 12.5772Z" fill="#404242"/>
<path d="M164.504 13.6385H162.093C161.897 12.2772 160.939 11.1697 158.228 11.1697C155.759 11.1697 154.456 11.8965 154.456 13.477C154.456 17.2725 165 14.8037 165 20.7566C165 23.8368 162.462 25.5096 158.54 25.5096C154.133 25.5096 151.825 23.0639 151.618 20.2836H154.086C154.248 21.8987 155.448 23.4792 158.528 23.4792C159.832 23.4792 162.577 23.1331 162.577 20.9758C162.577 17.0187 152.033 19.4875 152.033 13.6962C152.033 10.8466 154.156 9.16229 158.24 9.16229C162.323 9.16229 164.227 11.3312 164.504 13.6385Z" fill="#404242"/>
<path d="M62.0937 17.2956C62.1278 13.1541 60.5887 9.15391 57.7873 6.1034C54.9859 3.05288 51.131 1.17942 47.0015 0.861543C42.8721 0.543666 38.7759 1.80507 35.5406 4.39089C32.3053 6.97672 30.1721 10.6942 29.572 14.7922C29.3259 16.4172 29.3259 18.0701 29.572 19.6952C30.0646 22.9555 31.5316 25.9907 33.7804 28.4022C36.0292 30.8136 38.9546 32.4887 42.1727 33.2074C45.3907 33.9261 48.7509 33.6549 51.8119 32.4294C54.873 31.2038 57.492 29.0812 59.3249 26.3403C58.0443 25.3366 56.5907 24.506 55.2294 23.6061C53.9892 25.4716 52.2278 26.9312 50.1643 27.8032C48.1009 28.6752 45.8266 28.9212 43.6245 28.5105C41.4223 28.0999 39.3896 27.0507 37.7792 25.4935C36.1688 23.9363 35.0518 21.94 34.5674 19.7529H61.9091C62.0326 18.9396 62.0943 18.1182 62.0937 17.2956ZM34.5674 14.7922C35.131 12.2489 36.5455 9.97401 38.577 8.34343C40.6085 6.71284 43.1356 5.82412 45.7406 5.82412C48.3455 5.82412 50.8726 6.71284 52.9041 8.34343C54.9356 9.97401 56.3501 12.2489 56.9137 14.7922H34.5674Z" fill="#767A7B"/>
<path d="M75.1761 0.948242C71.9429 0.948242 68.7823 1.907 66.094 3.70327C63.4057 5.49954 61.3104 8.05264 60.0731 11.0397C58.8358 14.0268 58.5121 17.3137 59.1429 20.4848C59.7736 23.6559 61.3306 26.5687 63.6168 28.8549C65.903 31.1411 68.8158 32.6981 71.9869 33.3288C75.158 33.9596 78.4449 33.6359 81.432 32.3986C84.4191 31.1613 86.9722 29.066 88.7684 26.3777C90.5647 23.6894 91.5235 20.5288 91.5235 17.2956C91.5235 12.96 89.8012 8.80199 86.7354 5.73627C83.6697 2.67055 79.5117 0.948242 75.1761 0.948242V0.948242ZM75.1761 28.7514C72.9126 28.7514 70.7 28.0802 68.818 26.8227C66.936 25.5652 65.4692 23.7778 64.603 21.6867C63.7368 19.5955 63.5101 17.2944 63.9517 15.0745C64.3933 12.8545 65.4833 10.8153 67.0838 9.21478C68.6843 7.61427 70.7235 6.52431 72.9434 6.08273C75.1634 5.64115 77.4645 5.86778 79.5557 6.73397C81.6468 7.60016 83.4342 9.06701 84.6917 10.949C85.9492 12.831 86.6204 15.0437 86.6204 17.3071C86.6174 20.3414 85.4106 23.2505 83.2651 25.3961C81.1195 27.5416 78.2104 28.7484 75.1761 28.7514Z" fill="#767A7B"/>
</svg>
