<svg width="156" height="128" viewBox="0 0 156 128" fill="none" xmlns="http://www.w3.org/2000/svg">
<g filter="url(#filter0_dd)">
<g clip-path="url(#clip0)">
<mask id="mask0" mask-type="alpha" maskUnits="userSpaceOnUse" x="20" y="20" width="117" height="88">
<path d="M131.753 20H24.4701C22.0013 20 20 22.0257 20 24.5244V103.476C20 105.974 22.0013 108 24.4701 108H131.753C134.222 108 136.224 105.974 136.224 103.476V24.5244C136.224 22.0257 134.222 20 131.753 20Z" fill="white"/>
</mask>
<g mask="url(#mask0)">
<path d="M131.753 20H24.4701C22.0013 20 20 22.0257 20 24.5244V103.476C20 105.974 22.0013 108 24.4701 108H131.753C134.222 108 136.224 105.974 136.224 103.476V24.5244C136.224 22.0257 134.222 20 131.753 20Z" fill="white"/>
<path d="M117.083 52.6031H80.3468C79.1124 52.6031 78.1117 53.616 78.1117 54.8654V130.773C78.1117 132.022 79.1124 133.035 80.3468 133.035H117.083C118.318 133.035 119.318 132.022 119.318 130.773V54.8654C119.318 53.616 118.318 52.6031 117.083 52.6031Z" fill="#DFE4E6"/>
<path d="M101.095 57.3971H96.863C96.427 57.3971 96.0736 57.7548 96.0736 58.1961C96.0736 58.6374 96.427 58.9951 96.863 58.9951H101.095C101.531 58.9951 101.885 58.6374 101.885 58.1961C101.885 57.7548 101.531 57.3971 101.095 57.3971Z" fill="#F2F6FB"/>
<path d="M116.149 61.6584H81.2815V123.447H116.149V61.6584Z" fill="#EDEFF0"/>
<path d="M99.3261 97.7958L98.7454 97.8031L98.7499 97.7958H91.36C91.113 97.7958 91.0182 97.6257 91.1503 97.4125L96.3292 89.0563C96.4604 88.8447 96.6773 88.8412 96.8154 89.0515L100.581 94.8356L101.98 92.5732C102.111 92.3614 102.331 92.356 102.472 92.5607L105.705 97.28C105.846 97.4849 105.759 97.6573 105.513 97.665L102.673 97.7533L102.388 97.7569L102.411 97.7958C102.411 97.7958 102.212 97.7958 101.964 97.7958H99.3261ZM102.339 90.2508C101.66 90.2508 101.11 89.693 101.11 89.0049C101.11 88.3167 101.66 87.7589 102.339 87.7589C103.018 87.7589 103.568 88.3167 103.568 89.0049C103.568 89.693 103.018 90.2508 102.339 90.2508Z" fill="#DFE4E6"/>
<path d="M25.7518 40.9417H29.0841C29.331 40.9417 29.5311 41.1442 29.5311 41.3941V42.6199C29.5311 42.8697 29.331 43.0723 29.0841 43.0723H25.7518C25.5049 43.0723 25.3048 42.8697 25.3048 42.6199V41.3941C25.3048 41.1442 25.5049 40.9417 25.7518 40.9417ZM115.561 40.9417H130.515C130.762 40.9417 130.963 41.1442 130.963 41.3941V42.6199C130.963 42.8697 130.762 43.0723 130.515 43.0723H115.561C115.314 43.0723 115.114 42.8697 115.114 42.6199V41.3941C115.114 41.1442 115.314 40.9417 115.561 40.9417ZM87.0333 40.9417H101.988C102.235 40.9417 102.435 41.1442 102.435 41.3941V42.6199C102.435 42.8697 102.235 43.0723 101.988 43.0723H87.0333C86.7864 43.0723 86.5863 42.8697 86.5863 42.6199V41.3941C86.5863 41.1442 86.7864 40.9417 87.0333 40.9417ZM104.995 40.9417H112.554C112.801 40.9417 113.001 41.1442 113.001 41.3941V42.6199C113.001 42.8697 112.801 43.0723 112.554 43.0723H104.995C104.748 43.0723 104.548 42.8697 104.548 42.6199V41.3941C104.548 41.1442 104.748 40.9417 104.995 40.9417Z" fill="#DFE4E6"/>
</g>
<path d="M32.0694 55.5167H62.9134C63.1602 55.5167 63.3604 55.7193 63.3604 55.9692V59.3384C63.3604 59.5883 63.1602 59.7909 62.9134 59.7909H32.0694C31.8226 59.7909 31.6224 59.5883 31.6224 59.3384V55.9692C31.6224 55.7193 31.8226 55.5167 32.0694 55.5167ZM32.0694 62.4622H57.6237C57.8706 62.4622 58.0707 62.6648 58.0707 62.9146V66.2839C58.0707 66.5338 57.8706 66.7363 57.6237 66.7363H32.0694C31.8226 66.7363 31.6224 66.5338 31.6224 66.2839V62.9146C31.6224 62.6648 31.8226 62.4622 32.0694 62.4622ZM32.0694 76.3531H47.0444C47.2913 76.3531 47.4914 76.5557 47.4914 76.8056V80.1748C47.4914 80.4247 47.2913 80.6273 47.0444 80.6273H32.0694C31.8226 80.6273 31.6224 80.4247 31.6224 80.1748V76.8056C31.6224 76.5557 31.8226 76.3531 32.0694 76.3531ZM32.0694 69.4077H62.9134C63.1602 69.4077 63.3604 69.6102 63.3604 69.8601V73.2294C63.3604 73.4792 63.1602 73.6818 62.9134 73.6818H32.0694C31.8226 73.6818 31.6224 73.4792 31.6224 73.2294V69.8601C31.6224 69.6102 31.8226 69.4077 32.0694 69.4077Z" fill="#DFE4E6"/>
<path d="M35.6558 85.8303H56.1979C57.375 85.8303 57.9698 85.9878 58.5162 86.2836C59.0625 86.5793 59.4913 87.0133 59.7835 87.5663C60.0757 88.1192 60.2313 88.7213 60.2313 89.9127V91.023C60.2313 92.2144 60.0757 92.8165 59.7835 93.3694C59.4913 93.9224 59.0625 94.3564 58.5162 94.6522C57.9698 94.9479 57.375 95.1054 56.1979 95.1054H35.6558C34.4787 95.1054 33.8839 94.9479 33.3375 94.6522C32.7912 94.3564 32.3624 93.9224 32.0702 93.3694C31.778 92.8165 31.6224 92.2144 31.6224 91.023V89.9127C31.6224 88.7213 31.778 88.1192 32.0702 87.5663C32.3624 87.0133 32.7912 86.5793 33.3375 86.2836C33.8839 85.9878 34.4787 85.8303 35.6558 85.8303Z" fill="#37C277"/>
<path d="M20 24.5254C20 22.0261 22.0012 20 24.4718 20H131.528C133.998 20 136 22.0263 136 24.5254V29.9537H20V24.5254Z" fill="#DFE4E6"/>
</g>
</g>
<defs>
<filter id="filter0_dd" x="0" y="0" width="156" height="128" filterUnits="userSpaceOnUse" color-interpolation-filters="sRGB">
<feFlood flood-opacity="0" result="BackgroundImageFix"/>
<feColorMatrix in="SourceAlpha" type="matrix" values="0 0 0 0 0 0 0 0 0 0 0 0 0 0 0 0 0 0 127 0"/>
<feOffset dx="4" dy="4"/>
<feGaussianBlur stdDeviation="8"/>
<feColorMatrix type="matrix" values="0 0 0 0 0.619608 0 0 0 0 0.654902 0 0 0 0 0.662745 0 0 0 0.4 0"/>
<feBlend mode="normal" in2="BackgroundImageFix" result="effect1_dropShadow"/>
<feColorMatrix in="SourceAlpha" type="matrix" values="0 0 0 0 0 0 0 0 0 0 0 0 0 0 0 0 0 0 127 0"/>
<feOffset dx="-4" dy="-4"/>
<feGaussianBlur stdDeviation="8"/>
<feColorMatrix type="matrix" values="0 0 0 0 1 0 0 0 0 1 0 0 0 0 1 0 0 0 1 0"/>
<feBlend mode="normal" in2="effect1_dropShadow" result="effect2_dropShadow"/>
<feBlend mode="normal" in="SourceGraphic" in2="effect2_dropShadow" result="shape"/>
</filter>
<clipPath id="clip0">
<path d="M20 20H136V108H20V20Z" fill="white"/>
</clipPath>
</defs>
</svg>
