<svg width="195" height="195" viewBox="0 0 195 195" fill="none" xmlns="http://www.w3.org/2000/svg">
<path d="M102.383 86.8022C106.875 92.4245 117.217 107.799 129.614 108.92C142.01 110.04 151.282 106.124 151.282 106.124M102.383 86.8022C96.8638 92.6888 83.9087 100.316 65.7003 100.228C63.5468 100.217 62.2229 97.7704 63.4454 95.9161C67.7949 89.3192 73.4213 84.8016 92.3865 59.587C94.0265 57.4066 96.206 55.9788 98.7909 55.1855M102.383 86.8022C106.079 82.3964 106.784 78.7611 106.784 78.7611M39.9903 130.004C35.5368 135.19 31.9973 141.323 36.2673 144.624C40.9563 148.249 45.8096 146.662 49.1504 144.589M39.9903 130.004C35.0733 131.622 25.0816 134.158 24.4503 131.353C23.7114 128.071 31.6353 116.874 34.1548 114.492M39.9903 130.004C40.2401 129.713 40.4928 129.425 40.7471 129.141M34.1548 114.492C34.3261 114.33 34.4724 114.209 34.5893 114.134C34.8755 113.95 34.6413 114.009 34.0399 114.218M34.1548 114.492C34.1164 114.401 34.0781 114.309 34.0399 114.218M34.1548 114.492C36.1264 119.188 38.3425 124.19 40.7471 129.141M34.0399 114.218C30.7824 115.349 16.752 120.855 16.3062 115.721C15.8406 110.358 22.3781 98.8293 26.4789 94.9072M34.0399 114.218C30.7671 106.405 28.1773 99.4609 26.5296 95.0431L26.4789 94.9072M134.648 149.358C132.092 150.407 128.964 151.982 124.662 152.778M124.662 152.778C123.285 151.307 120.849 149.542 116.445 146.853C108.815 142.196 102.147 128.513 100.773 122.684C111.842 127.34 129.368 141.129 137.882 153.672C143.007 161.223 149.147 155.079 145.765 142.373M124.662 152.778C126.267 154.492 126.433 155.806 126.599 157.716C119.297 164.514 110.295 161.94 102.054 155.762M145.765 142.373C148.516 140.709 152.228 139.962 160.448 141.232C161.168 141.344 161.876 141.544 162.557 141.816L182.551 149.786M145.765 142.373C143.278 133.029 135.1 123.418 119.928 110.817M98.7909 55.1855C115.096 50.1821 147.532 70.4282 162.464 86.3182C164.34 88.3146 166.737 89.7043 169.376 90.0524L185.108 92.128M98.7909 55.1855C94.8361 51.6835 88.6637 50.2088 80.4845 50.919C72.3054 51.6292 68.1952 54.539 63.3839 54.9568C59.5349 55.291 55.3935 54.1187 54.0225 53.2166L17.4405 30.75M68.7665 144.866C75.4357 156.541 91.5649 173.421 102.054 155.762M102.054 155.762C94.5948 150.17 87.759 141.627 83.3706 134.407M40.7471 129.141C43.3508 134.501 46.1755 139.802 49.1504 144.589M49.1504 144.589C49.5144 145.174 49.8807 145.752 50.249 146.322M50.249 146.322C47.1474 151.9 43.3764 160.249 47.0403 162.581C50.9935 165.097 56.4834 163.477 61.3563 159.659M50.249 146.322C53.7938 151.802 57.5347 156.495 61.3563 159.659M61.3563 159.659C67.6366 164.86 74.1344 165.935 80.3365 159.601M26.4789 94.9072C25.6661 92.728 25.0887 91.1824 24.779 90.4765C23.9795 88.6547 18.1383 85.6645 10.5 82.4975" stroke="black" stroke-linecap="round" stroke-linejoin="round"/>
</svg>
