<svg width="167" height="17" viewBox="0 0 167 17" fill="none" xmlns="http://www.w3.org/2000/svg">
<path d="M14.4973 8.875C14.4973 10.5038 14.2012 11.9318 13.6088 13.1591C13.0164 14.3864 12.1669 15.3333 11.0601 16C9.96107 16.6667 8.6984 17 7.27205 17C5.86129 17 4.60252 16.6705 3.49573 16.0114C2.38894 15.3523 1.53157 14.4129 0.923621 13.1932C0.315668 11.9659 0.00779427 10.5568 0 8.96591V8.14773C0 6.51894 0.300079 5.08712 0.900238 3.85227C1.50819 2.60985 2.36166 1.65909 3.46066 1C4.56744 0.333333 5.83011 0 7.24867 0C8.66723 0 9.926 0.333333 11.025 1C12.1318 1.65909 12.9853 2.60985 13.5854 3.85227C14.1934 5.08712 14.4973 6.51515 14.4973 8.13636V8.875ZM10.9432 8.125C10.9432 6.39015 10.6236 5.07197 9.98446 4.17045C9.34533 3.26894 8.4334 2.81818 7.24867 2.81818C6.07173 2.81818 5.1637 3.26515 4.52457 4.15909C3.88544 5.04545 3.56198 6.34848 3.55419 8.06818V8.875C3.55419 10.5644 3.87375 11.875 4.51288 12.8068C5.15201 13.7386 6.07173 14.2045 7.27205 14.2045C8.44899 14.2045 9.35312 13.7576 9.98446 12.8636C10.6158 11.9621 10.9354 10.6515 10.9432 8.93182V8.125Z" fill="#5D5D5D"/>
<path d="M20.5535 10.9432V16.7727H17.0461V0.227273H23.6868C24.965 0.227273 26.0874 0.454545 27.0539 0.909091C28.0282 1.36364 28.7764 2.01136 29.2987 2.85227C29.8209 3.68561 30.082 4.63636 30.082 5.70455C30.082 7.32576 29.5091 8.60606 28.3633 9.54545C27.2254 10.4773 25.647 10.9432 23.6283 10.9432H20.5535ZM20.5535 8.18182H23.6868C24.6143 8.18182 25.3197 7.9697 25.8029 7.54545C26.294 7.12121 26.5395 6.51515 26.5395 5.72727C26.5395 4.91667 26.294 4.26136 25.8029 3.76136C25.3119 3.26136 24.6338 3.00379 23.7686 2.98864H20.5535V8.18182Z" fill="#5D5D5D"/>
<path d="M42.7438 9.60227H36.0095V14.0341H43.9129V16.7727H32.5021V0.227273H43.8895V2.98864H36.0095V6.93182H42.7438V9.60227Z" fill="#5D5D5D"/>
<path d="M59.8132 16.7727H56.3058L49.478 5.88636V16.7727H45.9706V0.227273H49.478L56.3175 11.1364V0.227273H59.8132V16.7727Z" fill="#5D5D5D"/>
<path d="M71.7034 12.4318C71.7034 11.7879 71.4695 11.2955 71.0019 10.9545C70.5342 10.6061 69.6925 10.2424 68.4765 9.86364C67.2606 9.47727 66.298 9.09848 65.5888 8.72727C63.6558 7.71212 62.6893 6.3447 62.6893 4.625C62.6893 3.73106 62.9465 2.93561 63.4609 2.23864C63.9832 1.53409 64.7275 0.984848 65.694 0.590909C66.6683 0.19697 67.7595 0 68.9676 0C70.1835 0 71.2669 0.215909 72.2178 0.647727C73.1687 1.07197 73.9053 1.67424 74.4275 2.45455C74.9575 3.23485 75.2225 4.12121 75.2225 5.11364H71.7151C71.7151 4.35606 71.4695 3.76894 70.9785 3.35227C70.4875 2.92803 69.7977 2.71591 68.9091 2.71591C68.0518 2.71591 67.3853 2.89394 66.9099 3.25C66.4344 3.59848 66.1967 4.06061 66.1967 4.63636C66.1967 5.17424 66.4734 5.625 67.0268 5.98864C67.588 6.35227 68.4103 6.69318 69.4937 7.01136C71.489 7.5947 72.9427 8.31818 73.8546 9.18182C74.7665 10.0455 75.2225 11.1212 75.2225 12.4091C75.2225 13.8409 74.6652 14.9659 73.5506 15.7841C72.436 16.5947 70.9356 17 69.0494 17C67.74 17 66.5475 16.7689 65.4719 16.3068C64.3962 15.8371 63.574 15.197 63.005 14.3864C62.4438 13.5758 62.1632 12.6364 62.1632 11.5682H65.6823C65.6823 13.3939 66.8047 14.3068 69.0494 14.3068C69.8834 14.3068 70.5342 14.1439 71.0019 13.8182C71.4695 13.4848 71.7034 13.0227 71.7034 12.4318Z" fill="#5D5D5D"/>
<path d="M86.4345 12.4318C86.4345 11.7879 86.2007 11.2955 85.7331 10.9545C85.2654 10.6061 84.4236 10.2424 83.2077 9.86364C81.9918 9.47727 81.0292 9.09848 80.3199 8.72727C78.387 7.71212 77.4205 6.3447 77.4205 4.625C77.4205 3.73106 77.6777 2.93561 78.1921 2.23864C78.7143 1.53409 79.4587 0.984848 80.4252 0.590909C81.3994 0.19697 82.4906 0 83.6988 0C84.9147 0 85.9981 0.215909 86.949 0.647727C87.8999 1.07197 88.6364 1.67424 89.1586 2.45455C89.6886 3.23485 89.9537 4.12121 89.9537 5.11364H86.4462C86.4462 4.35606 86.2007 3.76894 85.7097 3.35227C85.2186 2.92803 84.5288 2.71591 83.6403 2.71591C82.7829 2.71591 82.1165 2.89394 81.6411 3.25C81.1656 3.59848 80.9279 4.06061 80.9279 4.63636C80.9279 5.17424 81.2046 5.625 81.758 5.98864C82.3192 6.35227 83.1415 6.69318 84.2249 7.01136C86.2202 7.5947 87.6738 8.31818 88.5858 9.18182C89.4977 10.0455 89.9537 11.1212 89.9537 12.4091C89.9537 13.8409 89.3964 14.9659 88.2818 15.7841C87.1672 16.5947 85.6668 17 83.7806 17C82.4712 17 81.2786 16.7689 80.203 16.3068C79.1274 15.8371 78.3051 15.197 77.7361 14.3864C77.1749 13.5758 76.8944 12.6364 76.8944 11.5682H80.4135C80.4135 13.3939 81.5358 14.3068 83.7806 14.3068C84.6146 14.3068 85.2654 14.1439 85.7331 13.8182C86.2007 13.4848 86.4345 13.0227 86.4345 12.4318Z" fill="#5D5D5D"/>
<path d="M106.322 8.875C106.322 10.5038 106.025 11.9318 105.433 13.1591C104.841 14.3864 103.991 15.3333 102.884 16C101.785 16.6667 100.523 17 99.0963 17C97.6856 17 96.4268 16.6705 95.32 16.0114C94.2132 15.3523 93.3559 14.4129 92.7479 13.1932C92.1399 11.9659 91.8321 10.5568 91.8243 8.96591V8.14773C91.8243 6.51894 92.1244 5.08712 92.7245 3.85227C93.3325 2.60985 94.1859 1.65909 95.2849 1C96.3917 0.333333 97.6544 0 99.0729 0C100.492 0 101.75 0.333333 102.849 1C103.956 1.65909 104.81 2.60985 105.41 3.85227C106.018 5.08712 106.322 6.51515 106.322 8.13636V8.875ZM102.767 8.125C102.767 6.39015 102.448 5.07197 101.809 4.17045C101.17 3.26894 100.258 2.81818 99.0729 2.81818C97.896 2.81818 96.988 3.26515 96.3488 4.15909C95.7097 5.04545 95.3863 6.34848 95.3785 8.06818V8.875C95.3785 10.5644 95.698 11.875 96.3372 12.8068C96.9763 13.7386 97.896 14.2045 99.0963 14.2045C100.273 14.2045 101.177 13.7576 101.809 12.8636C102.44 11.9621 102.76 10.6515 102.767 8.93182V8.125Z" fill="#5D5D5D"/>
<path d="M121.754 0.227273V11.125C121.754 12.9356 121.17 14.3674 120.001 15.4205C118.839 16.4735 117.249 17 115.23 17C113.243 17 111.665 16.4886 110.495 15.4659C109.326 14.4432 108.73 13.0379 108.707 11.25V0.227273H112.214V11.1477C112.214 12.2311 112.479 13.0227 113.009 13.5227C113.547 14.0152 114.287 14.2614 115.23 14.2614C117.202 14.2614 118.204 13.2538 118.235 11.2386V0.227273H121.754Z" fill="#5D5D5D"/>
<path d="M130.932 10.7159H128.138V16.7727H124.63V0.227273H130.955C132.966 0.227273 134.517 0.662879 135.609 1.53409C136.7 2.4053 137.245 3.63636 137.245 5.22727C137.245 6.35606 136.992 7.29924 136.485 8.05682C135.987 8.80682 135.227 9.4053 134.206 9.85227L137.888 16.6136V16.7727H134.124L130.932 10.7159ZM128.138 7.95455H130.967C131.848 7.95455 132.53 7.73864 133.013 7.30682C133.496 6.86742 133.738 6.26515 133.738 5.5C133.738 4.7197 133.508 4.10606 133.048 3.65909C132.596 3.21212 131.899 2.98864 130.955 2.98864H128.138V7.95455Z" fill="#5D5D5D"/>
<path d="M153.286 11.2614C153.153 13.0417 152.475 14.4432 151.252 15.4659C150.036 16.4886 148.43 17 146.435 17C144.252 17 142.534 16.2879 141.279 14.8636C140.032 13.4318 139.408 11.4697 139.408 8.97727V7.96591C139.408 6.375 139.697 4.97348 140.273 3.76136C140.85 2.54924 141.673 1.62121 142.74 0.977273C143.816 0.325758 145.063 0 146.482 0C148.446 0 150.028 0.511364 151.228 1.53409C152.429 2.55682 153.122 3.99242 153.309 5.84091H149.802C149.716 4.77273 149.408 4 148.878 3.52273C148.356 3.03788 147.557 2.79545 146.482 2.79545C145.312 2.79545 144.436 3.20455 143.851 4.02273C143.274 4.83333 142.978 6.0947 142.962 7.80682V9.05682C142.962 10.8447 143.239 12.1515 143.793 12.9773C144.354 13.803 145.234 14.2159 146.435 14.2159C147.518 14.2159 148.325 13.9773 148.855 13.5C149.393 13.0152 149.701 12.2689 149.779 11.2614H153.286Z" fill="#5D5D5D"/>
<path d="M165.831 9.60227H159.097V14.0341H167V16.7727H155.589V0.227273H166.977V2.98864H159.097V6.93182H165.831V9.60227Z" fill="#5D5D5D"/>
</svg>
