<svg width="116" height="25" viewBox="0 0 116 25" fill="none" xmlns="http://www.w3.org/2000/svg">
<path fill-rule="evenodd" clip-rule="evenodd" d="M0 24.2444H22.807V20.2894H8.42099L10.707 17.4474L23.524 1.34741H1.12399V5.30241H14.878L12.678 7.98341L0 24.2444ZM28.624 4.41741C28.9481 4.30782 29.2487 4.1382 29.51 3.91741C29.7478 3.71622 29.9401 3.46668 30.074 3.18541C30.2063 2.90884 30.2747 2.60601 30.274 2.29941C30.2757 1.98821 30.2073 1.68062 30.074 1.39941C29.9412 1.11946 29.7487 0.872002 29.51 0.674411C29.2468 0.458462 28.9466 0.292096 28.624 0.18341C28.2442 0.0561821 27.8455 -0.00569424 27.445 0.000411528C27.0491 -0.00503705 26.6552 0.0568428 26.28 0.18341C25.9575 0.292319 25.6573 0.458664 25.394 0.674411C25.1556 0.872272 24.9631 1.11967 24.83 1.39941C24.6967 1.68062 24.6283 1.98821 24.63 2.29941C24.6293 2.60601 24.6976 2.90884 24.83 3.18541C24.9642 3.46647 25.1565 3.71594 25.394 3.91741C25.6555 4.13798 25.956 4.30758 26.28 4.41741C26.6551 4.54407 27.0491 4.60596 27.445 4.60041C27.8451 4.60684 28.2435 4.5453 28.623 4.41841L28.624 4.41741ZM25.277 24.2444H29.613V6.95941H25.277V24.2444ZM32.8 21.1974C33.7133 21.717 34.6604 22.1747 35.635 22.5674C36.6853 22.9924 37.7619 23.3495 38.858 23.6364C40.021 23.9415 41.2025 24.1716 42.395 24.3254C43.6481 24.4881 44.9104 24.5689 46.174 24.5674C47.9617 24.585 49.7456 24.4009 51.492 24.0184C52.9314 23.7139 54.3098 23.1707 55.57 22.4114C56.6367 21.7648 57.5314 20.8701 58.178 19.8034C58.7983 18.7344 59.1147 17.5162 59.093 16.2804C59.1069 15.3608 58.9221 14.449 58.551 13.6074C58.1883 12.8105 57.6396 12.1123 56.951 11.5714C56.1729 10.9709 55.2844 10.5292 54.336 10.2714C53.1693 9.9522 51.9634 9.79935 50.754 9.81741C50.0407 9.81741 49.3073 9.85408 48.554 9.92741C47.8007 10.0007 47.0583 10.0814 46.327 10.1694C45.6003 10.2574 44.907 10.3381 44.247 10.4114C43.6661 10.4799 43.0819 10.5166 42.497 10.5214C41.5151 10.5916 40.5349 10.3644 39.684 9.86941C39.4007 9.69098 39.1673 9.44348 39.0059 9.15014C38.8444 8.8568 38.7602 8.52724 38.761 8.19241C38.7668 7.82017 38.8651 7.45522 39.047 7.13041C39.2915 6.72108 39.6436 6.38662 40.065 6.16341C40.6818 5.82807 41.3461 5.58866 42.035 5.45341C43.0743 5.24797 44.1327 5.15477 45.192 5.17541C46.0756 5.17458 46.9585 5.22601 47.836 5.32941C48.7027 5.43208 49.54 5.57108 50.348 5.74641C51.156 5.92174 51.9323 6.12941 52.677 6.36941C53.3832 6.59525 54.0774 6.85692 54.757 7.15341L56.794 3.40341C55.9682 3.03523 55.1217 2.71503 54.259 2.44441C53.3274 2.15022 52.3815 1.90323 51.425 1.70441C50.443 1.49908 49.4347 1.34041 48.4 1.22841C47.3734 1.11681 46.3416 1.06073 45.309 1.06041C44.0406 1.04833 42.7737 1.14873 41.523 1.36041C40.5195 1.5306 39.5372 1.8082 38.593 2.18841C37.8164 2.50001 37.0886 2.92165 36.432 3.44041C35.8706 3.88679 35.3794 4.41503 34.975 5.00741C34.6086 5.548 34.3314 6.14392 34.154 6.77241C33.9845 7.3779 33.8984 8.00366 33.898 8.63241C33.876 9.59504 34.0979 10.5476 34.543 11.4014C34.9643 12.1835 35.5575 12.8598 36.278 13.3794C37.0358 13.9207 37.8841 14.3223 38.783 14.5654C39.7441 14.8331 40.7373 14.9677 41.735 14.9654C42.3935 14.9629 43.0513 14.9215 43.705 14.8414C44.403 14.7587 45.111 14.6684 45.829 14.5704C46.547 14.4724 47.2577 14.3821 47.961 14.2994C48.6267 14.2189 49.2965 14.1775 49.967 14.1754C51.0845 14.0945 52.2009 14.3468 53.175 14.9004C53.5024 15.1123 53.77 15.4048 53.9521 15.7497C54.1342 16.0946 54.2247 16.4805 54.215 16.8704C54.2176 17.3793 54.0728 17.8781 53.798 18.3064C53.4619 18.7961 53.002 19.1877 52.465 19.4414C51.7166 19.8035 50.9196 20.0551 50.099 20.1884C48.9379 20.3849 47.7615 20.4756 46.584 20.4594C45.504 20.4636 44.4248 20.3951 43.354 20.2544C42.3769 20.1249 41.4102 19.9268 40.461 19.6614C39.5535 19.4067 38.6649 19.0886 37.802 18.7094C36.939 18.3295 36.0957 17.9066 35.275 17.4424L32.8 21.1974ZM61.221 24.2444H65.865V7.78041L74.185 15.7934L82.505 7.78041V24.2444H87.149V1.34441H82.5L74.18 9.69441L65.86 1.34441H61.22V24.2444H61.221ZM90.271 17.5114C90.8865 18.9345 91.7977 20.2104 92.944 21.2544C94.1466 22.3319 95.5506 23.1609 97.075 23.6934C100.537 24.8556 104.285 24.8556 107.747 23.6934C109.274 23.1621 110.681 22.3331 111.885 21.2544C113.031 20.2104 113.942 18.9345 114.558 17.5114C115.205 16.0008 115.529 14.3717 115.51 12.7284C115.53 11.0971 115.206 9.47986 114.558 7.98241C113.942 6.57219 113.03 5.31049 111.885 4.28241C110.678 3.21595 109.272 2.40012 107.747 1.88241C104.28 0.74958 100.542 0.74958 97.075 1.88241C95.5528 2.40132 94.1487 3.21707 92.944 4.28241C91.7988 5.31049 90.8873 6.57219 90.271 7.98241C89.6234 9.47986 89.2991 11.0971 89.319 12.7284C89.2996 14.3717 89.6239 16.0008 90.271 17.5114ZM94.6 9.55041C95.0077 8.63596 95.6128 7.82315 96.372 7.17041C97.1595 6.50375 98.0705 5.99849 99.053 5.68341C101.242 4.9998 103.587 4.9998 105.776 5.68341C106.757 5.99742 107.666 6.50283 108.45 7.17041C109.206 7.82585 109.811 8.63796 110.222 9.55041C110.665 10.5507 110.885 11.6355 110.867 12.7294C110.884 13.8277 110.664 14.9168 110.222 15.9224C109.809 16.8465 109.205 17.6727 108.45 18.3464C107.669 19.0323 106.76 19.5573 105.776 19.8914C103.593 20.6137 101.236 20.6137 99.053 19.8914C98.0671 19.5563 97.1563 19.0314 96.372 18.3464C95.6137 17.6754 95.0092 16.8486 94.6 15.9224C94.163 14.9155 93.9458 13.8269 93.963 12.7294C93.945 11.637 94.1623 10.5535 94.6 9.55241V9.55041Z" fill="#767A7B"/>
</svg>
