<svg width="125" height="52" viewBox="0 0 125 52" fill="none" xmlns="http://www.w3.org/2000/svg">
<path d="M23.2242 0.0490184C27.9985 0.0490184 32.7503 0.0715391 37.5246 0.0264984C38.6281 0.00397798 38.9659 0.364303 38.8758 1.42276C38.7857 2.50374 38.7857 3.60724 38.8758 4.68822C38.9659 5.72415 38.538 5.92684 37.5922 5.92684C28.2912 5.90432 18.9678 5.90432 9.66689 5.90432C8.63096 5.90432 7.66258 5.97188 6.87437 6.80513C5.97355 7.75099 5.65827 8.96709 6.15372 10.1156C6.67168 11.3542 7.61754 11.9623 8.96876 11.9623C15.9951 11.9623 22.999 11.9623 30.0253 11.9623C32.998 11.9623 35.4752 12.9757 37.4796 15.2278C40.5198 18.6509 39.9793 24.7989 36.3986 27.659C34.5519 29.1228 32.5251 29.7759 30.1604 29.7759C21.1072 29.7309 12.0766 29.7534 3.02338 29.7759C2.10005 29.7759 1.73972 29.5507 1.80728 28.5823C1.87484 27.4338 1.89736 26.2627 1.80728 25.0917C1.73972 24.1458 2.07753 23.8756 3.00086 23.8756C8.33819 23.9206 13.653 23.8981 18.9903 23.8981C22.7062 23.8981 26.4221 23.8981 30.1379 23.8981C32.1197 23.8981 33.6286 22.6144 33.6736 20.9029C33.7187 19.1463 32.1873 17.8176 30.0929 17.8176C22.999 17.8176 15.905 17.8176 8.81112 17.8176C4.21696 17.8176 0.388498 14.2594 0.0281716 9.68774C-0.332154 4.98098 2.79818 0.904793 7.4599 0.251702C9.23901 0.00397798 11.0406 0.0490187 12.8423 0.0264984C16.3104 0.0264984 19.7785 0.0490184 23.2242 0.0490184Z" fill="#333333"/>
<path d="M103.712 29.7529C99.5007 29.7529 95.3119 29.7529 91.1006 29.7529C86.6415 29.7529 82.5879 25.7443 82.5654 21.2852C82.5428 17.0739 82.5428 12.8851 82.5654 8.67383C82.5879 4.57512 85.8308 0.836738 89.907 0.251208C90.8303 0.116086 91.7537 0.0260043 92.6995 0.0260043C100.469 0.00348392 108.239 -0.0190365 115.986 0.0260043C119.229 0.0485247 121.931 1.33219 123.62 4.16975C124.296 5.29577 124.859 6.66952 124.881 7.93066C125.016 12.6149 125.061 17.3217 124.881 21.9834C124.724 26.1271 120.805 29.6628 116.639 29.7079C114.454 29.7304 112.292 29.7079 110.108 29.7079C107.991 29.7529 105.851 29.7529 103.712 29.7529ZM103.712 23.9201C107.721 23.9201 111.752 23.9201 115.76 23.9201C118.012 23.9201 119.229 22.7265 119.229 20.452C119.251 16.7812 119.251 13.0878 119.229 9.417C119.229 7.16496 117.967 5.92634 115.738 5.92634C107.788 5.92634 99.816 5.92634 91.8663 5.92634C89.7043 5.92634 88.3981 7.18749 88.3981 9.32692C88.3756 13.0878 88.3756 16.8262 88.3981 20.5871C88.4207 22.6815 89.6818 23.9426 91.7762 23.9426C95.7623 23.9201 99.7259 23.9201 103.712 23.9201Z" fill="#333333"/>
<path d="M60.6305 23.9201C65.9228 23.9201 71.1926 23.9426 76.4849 23.8976C77.4082 23.8976 77.6334 24.1903 77.5884 25.0686C77.5208 26.3298 77.5433 27.6134 77.5884 28.8971C77.6109 29.5952 77.3406 29.7979 76.665 29.7979C65.9453 29.7754 55.2256 29.7754 44.5059 29.7979C43.7402 29.7979 43.515 29.5277 43.5376 28.807C43.5826 27.5234 43.6051 26.2622 43.5376 24.9786C43.4925 24.1228 43.8303 23.9201 44.6411 23.9201C49.9784 23.9201 55.3157 23.9201 60.6305 23.9201Z" fill="#333333"/>
<path d="M63.8735 11.9618C67.9271 11.9618 71.9583 11.9618 76.0119 11.9618C77.5659 11.9618 77.5659 11.9618 77.5659 13.5833C77.5659 14.6642 77.5433 15.7677 77.5659 16.8487C77.5884 17.5468 77.3857 17.8621 76.62 17.8621C68.0848 17.8396 59.527 17.8396 50.9918 17.8621C50.2937 17.8621 50.091 17.5694 50.091 16.9163C50.1135 15.6326 50.1585 14.3715 50.091 13.0878C50.0459 12.1645 50.4063 11.9618 51.2621 11.9618C55.4734 11.9843 59.6847 11.9618 63.8735 11.9618Z" fill="#333333"/>
<path d="M67.0489 5.90376C64.0537 5.90376 61.0584 5.90376 58.0632 5.90376C56.5544 5.90376 56.5544 5.90376 56.5544 4.34985C56.5544 3.22383 56.5769 2.09781 56.5544 0.971795C56.5318 0.318704 56.8021 0.0259399 57.4777 0.0259399C63.896 0.0259399 70.2918 0.0259399 76.7101 0.0259399C77.4308 0.0259399 77.5884 0.408787 77.5884 1.01684C77.5659 2.32302 77.5434 3.65172 77.6109 4.9579C77.6334 5.72359 77.3407 5.92628 76.62 5.92628C73.4221 5.90376 70.2468 5.90376 67.0489 5.90376Z" fill="#333333"/>
<path d="M74.7958 36.9819C75.1562 36.9369 75.4039 36.8918 75.6516 36.8693C77.2956 36.8018 77.4532 36.8693 77.3406 38.5133C77.2505 39.7294 77.701 39.9546 78.8045 39.9321C81.0565 39.8645 83.3085 39.9096 85.538 39.9096C88.0828 39.8871 89.9746 41.486 89.7719 44.1434C89.6818 45.4496 89.7719 46.7558 89.7494 48.0845C89.7268 50.2915 88.218 51.8454 86.011 51.8679C82.6104 51.8904 79.1873 51.8679 75.7867 51.8679C75.1111 51.8679 74.7508 51.7328 74.7733 50.9446C74.8183 46.3054 74.7958 41.7112 74.7958 36.9819ZM77.4307 49.1429C77.5433 49.2105 77.6109 49.3006 77.6784 49.3006C80.4935 49.3231 83.3085 49.3456 86.1236 49.3231C86.9343 49.3231 87.2721 48.7376 87.2721 47.9493C87.2721 46.6657 87.2721 45.4045 87.2721 44.1209C87.2721 42.7922 86.8668 42.3868 85.5155 42.3868C83.5337 42.3643 81.5294 42.3868 79.5476 42.3868C78.8495 42.3868 78.1514 42.3868 77.4307 42.3868C77.4307 44.774 77.4307 46.981 77.4307 49.1429Z" fill="#333333"/>
<path d="M43.9429 51.8454C42.2989 51.8454 40.6324 51.8679 38.9884 51.8454C36.7814 51.8229 35.2501 50.2915 35.2501 48.062C35.2501 46.5982 35.2275 45.1343 35.2501 43.6705C35.2951 41.486 36.849 39.9321 39.056 39.9096C42.4341 39.8871 45.8121 39.9096 49.1902 39.8871C49.8883 39.8871 50.3838 39.9772 50.2937 40.8555C50.2261 41.6212 50.4513 42.4319 49.1451 42.3868C45.9923 42.2968 42.8394 42.3418 39.6866 42.3643C38.2227 42.3643 37.7498 42.8373 37.7498 44.3236C37.7498 45.4496 37.7273 46.5756 37.7498 47.7017C37.7723 48.8727 38.2453 49.3231 39.4163 49.3456C42.6367 49.3682 45.8797 49.3682 49.1001 49.3456C49.9784 49.3456 50.4063 49.5258 50.3612 50.5392C50.3387 51.4626 50.1811 51.913 49.1226 51.8679C47.4111 51.7778 45.677 51.8229 43.9429 51.8454Z" fill="#333333"/>
<path d="M65.9679 51.8454C64.3464 51.8454 62.7249 51.7103 61.126 51.8904C59.2793 52.0931 57.5002 50.0437 57.5227 48.3547C57.5678 45.9225 57.5678 43.4903 57.5227 41.0356C57.5002 40.1348 57.793 39.842 58.6713 39.8871C59.4595 39.9321 60.045 39.9546 60.0225 41.0131C59.9549 43.175 60 45.3595 60 47.544C60 49.0529 60.2927 49.3456 61.7565 49.3681C64.1662 49.3681 66.5534 49.3456 68.9631 49.3907C69.6837 49.3907 69.954 49.1429 69.954 48.4223C69.9314 45.9901 69.9765 43.5579 69.9089 41.1032C69.8864 39.9997 70.4494 39.9321 71.3052 39.8871C72.2285 39.842 72.4312 40.2249 72.4312 41.0806C72.3862 44.301 72.3862 47.5215 72.4312 50.7419C72.4537 51.6652 72.1159 51.8904 71.2601 51.8679C69.5036 51.8003 67.7244 51.8454 65.9679 51.8454Z" fill="#333333"/>
<path d="M52.5907 44.3235C52.5907 42.1841 52.6358 40.0447 52.5682 37.9052C52.5457 36.8918 53.0412 36.8243 53.8294 36.8468C54.55 36.8693 55.113 36.8017 55.113 37.8602C55.068 42.1616 55.068 46.4855 55.113 50.7869C55.1356 51.8228 54.5951 51.8228 53.8519 51.8228C53.1538 51.8228 52.5232 51.8904 52.5682 50.8319C52.6358 48.67 52.5907 46.4855 52.5907 44.3235Z" fill="#333333"/>
</svg>
