<svg width="180" height="48" viewBox="0 0 180 48" fill="none" xmlns="http://www.w3.org/2000/svg">
<path d="M70.1852 8.6933V19.2533H67.2519V18.0266C66.5053 18.9333 65.3853 19.4133 63.9453 19.4133C62.932 19.4133 62.0254 19.2 61.2254 18.72C60.4254 18.2933 59.7854 17.6533 59.3054 16.8C58.8254 16 58.6121 15.04 58.6121 13.92C58.6121 12.8 58.8254 11.8933 59.3054 11.04C59.7854 10.24 60.3721 9.59997 61.2254 9.11997C62.0254 8.6933 62.932 8.42664 63.9453 8.42664C65.2786 8.42664 66.3453 8.8533 67.0919 9.70664V8.58664H70.1852V8.6933ZM66.4519 16.1066C66.9852 15.5733 67.1986 14.88 67.1986 13.9733C67.1986 13.0666 66.9319 12.3733 66.4519 11.84C65.9186 11.3066 65.2786 11.04 64.532 11.04C63.732 11.04 63.092 11.3066 62.612 11.84C62.0787 12.3733 61.8654 13.0666 61.8654 13.9733C61.8654 14.88 62.132 15.5733 62.612 16.1066C63.1453 16.64 63.7853 16.9066 64.532 16.9066C65.2786 16.9066 65.9186 16.64 66.4519 16.1066Z" fill="#333333"/>
<path d="M77.7584 15.2534H76.1584V19.2534H73.1185V8.69336H76.1584V12.8H77.8117L80.6916 8.69336H83.9449L80.265 13.76L84.2116 19.2534H80.585L77.7584 15.2534Z" fill="#333333"/>
<path d="M95.998 8.6933V19.2533H93.0647V18.0266C92.3181 18.9333 91.1981 19.4133 89.7581 19.4133C88.7448 19.4133 87.8382 19.2 87.0382 18.72C86.2382 18.2933 85.5982 17.6533 85.1182 16.8C84.6382 16 84.4249 15.04 84.4249 13.92C84.4249 12.8 84.6382 11.8933 85.1182 11.04C85.5982 10.24 86.1849 9.59997 87.0382 9.11997C87.8382 8.6933 88.7448 8.42664 89.7581 8.42664C91.0914 8.42664 92.1581 8.8533 92.9047 9.70664V8.58664H95.998V8.6933ZM92.2647 16.1066C92.7981 15.5733 93.0114 14.88 93.0114 13.9733C93.0114 13.0666 92.7447 12.3733 92.2647 11.84C91.7314 11.3066 91.0914 11.04 90.3448 11.04C89.5448 11.04 88.9048 11.3066 88.4248 11.84C87.8915 12.3733 87.6782 13.0666 87.6782 13.9733C87.6782 14.88 87.9448 15.5733 88.4248 16.1066C88.9581 16.64 89.5981 16.9066 90.3448 16.9066C91.0914 16.9066 91.7314 16.64 92.2647 16.1066Z" fill="#333333"/>
<path d="M110.718 16.7467V21.5467H107.891V19.2534H100.478V21.5467H97.5979V16.7467H98.0246C98.6645 16.7467 99.1445 16.3734 99.3579 15.5734C99.6245 14.8267 99.7845 13.76 99.8379 12.32L99.9979 8.69336H109.224V16.7467H110.718ZM102.398 15.2C102.291 15.8934 102.024 16.3734 101.704 16.7467H106.131V11.2H102.664L102.611 12.5334C102.611 13.6 102.504 14.5067 102.398 15.2Z" fill="#333333"/>
<path d="M122.824 14.8267H114.824C114.984 15.4667 115.304 16 115.837 16.3733C116.371 16.7467 117.064 16.96 117.864 16.96C118.397 16.96 118.877 16.8533 119.304 16.6933C119.731 16.5333 120.104 16.2667 120.477 15.8933L122.131 17.6533C121.117 18.7733 119.677 19.36 117.757 19.36C116.584 19.36 115.518 19.1467 114.611 18.6667C113.704 18.1867 113.011 17.5467 112.478 16.7467C111.998 15.9467 111.731 14.9867 111.731 13.92C111.731 12.9067 111.998 11.9467 112.478 11.1467C112.958 10.2933 113.651 9.65332 114.504 9.22666C115.358 8.74666 116.317 8.53333 117.384 8.53333C118.397 8.53333 119.357 8.74666 120.211 9.22666C121.064 9.65332 121.704 10.2933 122.184 11.1467C122.664 12 122.877 12.96 122.877 14.0267C122.877 14.0267 122.877 14.2933 122.824 14.8267ZM115.678 11.4133C115.198 11.7867 114.931 12.32 114.824 13.0133H119.997C119.891 12.32 119.624 11.84 119.144 11.4133C118.664 11.04 118.077 10.8267 117.437 10.8267C116.744 10.8267 116.157 11.04 115.678 11.4133Z" fill="#333333"/>
<path d="M135.57 19.2534V12.9067L132.424 18.1867H131.144L128.051 12.8534V19.2H125.277V8.69336H128.477L131.837 14.7734L135.41 8.69336H138.29L138.344 19.2534H135.57Z" fill="#333333"/>
<path d="M151.623 8.69336V19.2534H148.743V17.9734C148.317 18.4534 147.837 18.7734 147.304 19.04C146.717 19.3067 146.13 19.4134 145.49 19.4134C144.104 19.4134 142.984 19.04 142.184 18.24C141.384 17.44 140.957 16.2667 140.957 14.6667V8.69336H143.997V14.1867C143.997 15.8934 144.69 16.7467 146.13 16.7467C146.877 16.7467 147.463 16.5334 147.89 16.0534C148.317 15.5734 148.583 14.88 148.583 13.92V8.69336H151.623Z" fill="#333333"/>
<path d="M163.943 8.69336V19.2534H161.223V16.2134H158.983L156.957 19.2534H153.703L156.103 15.7867C155.357 15.52 154.823 15.0934 154.45 14.56C154.077 14.0267 153.863 13.3867 153.863 12.5867C153.863 11.36 154.29 10.4 155.197 9.70669C156.103 9.01336 157.33 8.69336 158.877 8.69336H163.943ZM157.49 11.52C157.17 11.7334 157.01 12.16 157.01 12.64C157.01 13.1734 157.17 13.5467 157.49 13.8134C157.81 14.08 158.29 14.1867 158.93 14.1867H161.223V11.2H158.983C158.343 11.2 157.81 11.3067 157.49 11.52Z" fill="#333333"/>
<path d="M70.1852 28.32V38.88H67.2519V37.6533C66.5053 38.56 65.3853 39.04 63.9453 39.04C62.932 39.04 62.0254 38.8267 61.2254 38.3467C60.4254 37.92 59.7854 37.28 59.3054 36.4267C58.8254 35.6267 58.6121 34.6667 58.6121 33.5467C58.6121 32.48 58.8254 31.52 59.3054 30.6667C59.7854 29.8667 60.3721 29.2267 61.2254 28.7467C62.0254 28.32 62.932 28.0533 63.9453 28.0533C65.2786 28.0533 66.3453 28.48 67.0919 29.3333V28.2133H70.1852V28.32ZM66.4519 35.7333C66.9852 35.2 67.1986 34.5067 67.1986 33.6C67.1986 32.6933 66.9319 32 66.4519 31.4667C65.9186 30.9333 65.2786 30.6667 64.532 30.6667C63.732 30.6667 63.092 30.9333 62.612 31.4667C62.0787 32 61.8654 32.6933 61.8654 33.6C61.8654 34.5067 62.132 35.2 62.612 35.7333C63.1453 36.2667 63.7853 36.5333 64.532 36.5333C65.2786 36.48 65.9186 36.2667 66.4519 35.7333Z" fill="#333333"/>
<path d="M81.9716 28.8C82.7715 29.2266 83.4115 29.8666 83.8382 30.72C84.3182 31.52 84.5315 32.48 84.5315 33.6C84.5315 34.6666 84.3182 35.6266 83.8382 36.48C83.3582 37.28 82.7715 37.92 81.9716 38.4C81.1716 38.8266 80.2649 39.0933 79.305 39.0933C77.9717 39.0933 76.905 38.6666 76.105 37.8133V42.6666H73.0651V28.32H75.9984V29.5466C76.745 28.64 77.865 28.16 79.305 28.16C80.3183 28.16 81.1716 28.3733 81.9716 28.8ZM80.6916 35.7333C81.1716 35.2 81.4382 34.5066 81.4382 33.6C81.4382 32.6933 81.1716 32 80.6916 31.4666C80.2116 30.9333 79.5183 30.6666 78.7716 30.6666C78.025 30.6666 77.3317 30.9333 76.8517 31.4666C76.3717 32 76.105 32.6933 76.105 33.6C76.105 34.5066 76.3717 35.2 76.8517 35.7333C77.3317 36.2666 78.025 36.5333 78.7716 36.5333C79.5183 36.5333 80.2116 36.2666 80.6916 35.7333Z" fill="#333333"/>
<path d="M95.4646 29.6533C96.2113 30.08 96.7979 30.6666 97.2246 31.4133C97.6512 32.16 97.8646 33.0133 97.8646 34.0266C97.8646 35.04 97.5979 35.9466 97.1179 36.6933C96.6379 37.4933 95.9446 38.08 95.0913 38.5066C94.238 38.9333 93.2247 39.1466 92.1047 39.1466C90.2381 39.1466 88.7981 38.56 87.7848 37.3866C86.7181 36.2133 86.1848 34.4533 86.1848 32.16C86.1848 30.0266 86.6648 28.3733 87.5714 27.0933C88.4781 25.8133 89.9181 25.0133 91.838 24.5866L96.8513 23.5733L97.2779 26.1866L92.8513 27.0933C91.6247 27.3066 90.7714 27.7333 90.1847 28.2666C89.5981 28.8 89.2781 29.6 89.1714 30.6133C89.6514 30.1333 90.1847 29.76 90.8247 29.44C91.4647 29.1733 92.158 29.0133 92.9047 29.0133C93.8113 29.0133 94.718 29.2266 95.4646 29.6533ZM93.9713 35.9466C94.4513 35.4133 94.6646 34.7733 94.6646 34.0266C94.6646 33.2266 94.4513 32.5866 93.9713 32.1066C93.4913 31.6266 92.8513 31.4133 92.0514 31.4133C91.2514 31.4133 90.6114 31.6266 90.1314 32.1066C89.6514 32.5866 89.3847 33.2266 89.3847 34.0266C89.3847 34.8266 89.6514 35.4666 90.1314 36C90.6114 36.48 91.2514 36.7466 92.0514 36.7466C92.8513 36.7466 93.4913 36.48 93.9713 35.9466Z" fill="#333333"/>
<path d="M110.291 28.32V38.88H107.411V37.6C106.984 38.08 106.504 38.4 105.971 38.6667C105.384 38.9333 104.798 39.04 104.158 39.04C102.771 39.04 101.651 38.6667 100.851 37.8667C100.051 37.0667 99.6245 35.8933 99.6245 34.2933V28.32H102.664V33.8133C102.664 35.52 103.358 36.3733 104.798 36.3733C105.544 36.3733 106.131 36.16 106.558 35.68C106.984 35.2 107.251 34.5067 107.251 33.5467V28.32C107.251 28.32 110.291 28.32 110.291 28.32Z" fill="#333333"/>
<path d="M122.131 30.8267H118.557V38.88H115.518V30.8267H111.944V28.32H122.131V30.8267Z" fill="#333333"/>
<path d="M132.637 28.8C133.437 29.2266 134.077 29.8666 134.504 30.72C134.984 31.52 135.197 32.48 135.197 33.6C135.197 34.6666 134.984 35.6266 134.504 36.48C134.024 37.28 133.437 37.92 132.637 38.4C131.837 38.8266 130.931 39.0933 129.971 39.0933C128.637 39.0933 127.571 38.6666 126.771 37.8133V42.6666H123.731V28.32H126.664V29.5466C127.411 28.64 128.531 28.16 129.971 28.16C130.931 28.16 131.837 28.3733 132.637 28.8ZM131.357 35.7333C131.837 35.2 132.104 34.5066 132.104 33.6C132.104 32.6933 131.837 32 131.357 31.4666C130.877 30.9333 130.184 30.6666 129.437 30.6666C128.691 30.6666 127.997 30.9333 127.517 31.4666C127.037 32 126.771 32.6933 126.771 33.6C126.771 34.5066 127.037 35.2 127.517 35.7333C127.997 36.2666 128.691 36.5333 129.437 36.5333C130.184 36.5333 130.877 36.2666 131.357 35.7333Z" fill="#333333"/>
<path d="M147.997 28.32V38.88H145.064V37.6533C144.317 38.56 143.197 39.04 141.757 39.04C140.744 39.04 139.837 38.8267 139.037 38.3467C138.237 37.92 137.597 37.28 137.117 36.4267C136.637 35.6267 136.424 34.6667 136.424 33.5467C136.424 32.48 136.637 31.52 137.117 30.6667C137.597 29.8667 138.184 29.2267 139.037 28.7467C139.837 28.32 140.744 28.0533 141.757 28.0533C143.09 28.0533 144.157 28.48 144.904 29.3333V28.2133H147.997V28.32ZM144.264 35.7333C144.797 35.2 145.01 34.5067 145.01 33.6C145.01 32.6933 144.744 32 144.264 31.4667C143.73 30.9333 143.09 30.6667 142.344 30.6667C141.544 30.6667 140.904 30.9333 140.424 31.4667C139.89 32 139.677 32.6933 139.677 33.6C139.677 34.5067 139.944 35.2 140.424 35.7333C140.957 36.2667 141.597 36.5333 142.344 36.5333C143.09 36.48 143.73 36.2667 144.264 35.7333Z" fill="#333333"/>
<path d="M161.33 34.88H159.837V38.88H156.797V34.88H155.303L153.063 38.88H149.437L152.743 33.44L149.65 28.32H152.903L155.25 32.4267H156.743V28.32H159.783V32.4267H161.277L163.623 28.32H166.876L163.783 33.44L167.143 38.88H163.517L161.33 34.88Z" fill="#333333"/>
<path d="M179.143 28.32V38.88H176.21V37.6533C175.463 38.56 174.343 39.04 172.903 39.04C171.89 39.04 170.983 38.8267 170.183 38.3467C169.383 37.92 168.743 37.28 168.263 36.4267C167.783 35.6267 167.57 34.6667 167.57 33.5467C167.57 32.48 167.783 31.52 168.263 30.6667C168.743 29.8667 169.33 29.2267 170.183 28.7467C170.983 28.32 171.89 28.0533 172.903 28.0533C174.236 28.0533 175.303 28.48 176.05 29.3333V28.2133H179.143V28.32ZM175.356 35.7333C175.89 35.2 176.103 34.5067 176.103 33.6C176.103 32.6933 175.836 32 175.356 31.4667C174.823 30.9333 174.183 30.6667 173.436 30.6667C172.636 30.6667 171.996 30.9333 171.516 31.4667C170.983 32 170.77 32.6933 170.77 33.6C170.77 34.5067 171.036 35.2 171.516 35.7333C172.05 36.2667 172.69 36.5333 173.436 36.5333C174.236 36.48 174.876 36.2667 175.356 35.7333Z" fill="#333333"/>
<path d="M23.6262 17.3333C21.8129 17.3333 20.3196 17.92 19.1996 19.1466C18.0263 20.3733 17.4396 21.9733 17.4396 24C17.4396 26.0266 18.0263 27.68 19.1996 28.8533C20.3729 30.08 21.8662 30.6666 23.6262 30.6666C25.4395 30.72 26.8794 30.08 28.0527 28.8533C29.2261 27.6266 29.8127 26.0266 29.8127 24C29.8127 21.9733 29.2261 20.32 28.0527 19.1466C26.8794 17.92 25.4395 17.3333 23.6262 17.3333Z" fill="#333333"/>
<path d="M0 0V48H47.999V0H0ZM36.6926 36.1067H30.026V33.3333C28.2661 35.4133 25.7594 36.48 22.4529 36.48C20.1596 36.48 18.1329 35.9467 16.2663 34.9333C14.3997 33.92 12.9597 32.48 11.9464 30.56C10.8798 28.6933 10.3464 26.5067 10.3464 24C10.3464 21.4933 10.8798 19.3067 11.9464 17.44C13.0131 15.5733 14.453 14.08 16.2663 13.0667C18.1329 12.0533 20.1596 11.52 22.4529 11.52C25.5461 11.52 27.9461 12.48 29.706 14.4533V11.8933H36.6926V36.1067Z" fill="#333333"/>
</svg>
