<svg width="195" height="195" viewBox="0 0 195 195" fill="none" xmlns="http://www.w3.org/2000/svg">
<path d="M132.469 126.529C130.261 125.789 127.903 124.737 125.462 123.508M125.462 123.508L144.038 41.0515C145.57 34.2516 141.3 27.4973 134.5 25.9653L87.2102 15.3113C80.4103 13.7794 73.656 18.0499 72.124 24.8498L71.4451 27.8632M125.462 123.508L125.436 123.621M125.462 123.508C119.903 120.708 113.913 116.992 108.286 113.958M106.557 139.545C112.236 160.814 123.547 165.6 132.666 165.592M106.557 139.545C106.687 140.651 108.513 145.15 109.688 151.382M106.557 139.545C105.782 133.238 100.65 126.747 95.2753 121.216M136.57 75.0797C138.926 76.6717 138.49 76.0545 140.698 77.6963C164.346 101.468 158.579 153.189 151.802 179.253M100.749 23.9735L118.792 28.3503M109.688 151.382L59.1414 139.963C52.3345 138.437 48.0563 131.679 49.5895 124.874L52.5477 111.743M109.688 151.382C110.677 156.62 111.206 163.082 109.883 169.783M71.4451 27.8632L62.4138 25.861C57.5611 24.7852 52.755 27.847 51.6792 32.6997L36.9653 99.07C35.8894 103.923 38.9512 108.729 43.804 109.805L52.5477 111.743M71.4451 27.8632L115.966 37.7334C120.819 38.8092 123.881 43.6153 122.805 48.468L108.286 113.958M52.5477 111.743L95.2753 121.216M95.2753 121.216C92.1279 117.977 88.8969 115.067 86.408 112.715C89.8222 105.469 98.5054 108.683 108.286 113.958M81.513 93.6631C84.0832 84.026 94.0913 86.5473 98.8759 84.7408C101.647 83.6944 104.141 77.7748 105.409 72.8102C106.036 70.3599 103.838 68.4141 101.323 68.668C97.7381 69.0302 93.6895 68.8802 92.1897 66.6745C89.875 63.2704 87.9521 61.0523 83.2403 60.5264C80.2973 60.4954 77.6708 60.7321 75.3264 61.185M75.2042 55.4165C75.8346 53.396 77.5265 49.6839 79.4258 49.4278C80.992 49.2166 83.1515 51.2479 84.4015 57.6601M75.3264 61.185C72.8427 56.2341 69.1214 52.2569 66.2364 50.8362C65.1759 50.314 63.9533 50.7715 63.3075 51.7624C60.305 56.3697 60.9695 62.7341 62.4672 67.8582M75.3264 61.185C75.9185 62.3653 76.4403 63.6008 76.8636 64.8703M56.0173 82.3915C56.6379 78.1185 58.1916 72.3831 62.4672 67.8582M62.4672 67.8582C63.2123 70.4075 64.1636 72.6499 64.9722 74.2161" stroke="black" stroke-linecap="round" stroke-linejoin="round"/>
</svg>
