<svg width="80" height="80" viewBox="0 0 80 80" fill="none" xmlns="http://www.w3.org/2000/svg">
<path d="M51.3807 41.0369H48.9059C49.1582 41.6984 49.296 42.4123 49.296 43.1564V52.115C49.296 52.4252 49.2396 52.723 49.1371 52.9999H53.2284C54.7567 52.9999 56 51.809 56 50.3452V45.4614C56.0001 43.0218 53.9278 41.0369 51.3807 41.0369Z" fill="white"/>
<path d="M30.7041 43.1564C30.7041 42.4123 30.8419 41.6985 31.0941 41.037H28.6194C26.0723 41.037 24 43.0218 24 45.4615V50.3453C24 51.8091 25.2433 53 26.7716 53H30.863C30.7604 52.723 30.7041 52.4253 30.7041 52.1151V43.1564Z" fill="white"/>
<path d="M42.8289 38.7318H37.1712C34.6241 38.7318 32.5518 40.7167 32.5518 43.1564V52.115C32.5518 52.6037 32.9655 52.9999 33.4757 52.9999H46.5244C47.0346 52.9999 47.4482 52.6037 47.4482 52.115V43.1564C47.4482 40.7167 45.376 38.7318 42.8289 38.7318Z" fill="white"/>
<path d="M40 27C36.9368 27 34.4446 29.387 34.4446 32.3211C34.4446 34.3113 35.5915 36.0495 37.2851 36.962C38.0884 37.3949 39.0145 37.6422 40 37.6422C40.9855 37.6422 41.9117 37.3949 42.715 36.962C44.4087 36.0495 45.5554 34.3113 45.5554 32.3211C45.5554 29.3871 43.0633 27 40 27Z" fill="white"/>
<path d="M30.2449 31.9597C27.9539 31.9597 26.0902 33.7448 26.0902 35.9391C26.0902 38.1334 27.9539 39.9186 30.2449 39.9186C30.826 39.9186 31.3794 39.8033 31.8821 39.596C32.7512 39.2376 33.4678 38.6032 33.9113 37.8085C34.2225 37.2507 34.3996 36.6144 34.3996 35.9391C34.3996 33.7449 32.5358 31.9597 30.2449 31.9597Z" fill="white"/>
<path d="M49.7552 31.9597C47.4642 31.9597 45.6005 33.7448 45.6005 35.9391C45.6005 36.6145 45.7775 37.2508 46.0888 37.8085C46.5322 38.6032 47.2489 39.2377 48.118 39.596C48.6207 39.8033 49.174 39.9186 49.7552 39.9186C52.0461 39.9186 53.9099 38.1334 53.9099 35.9391C53.9099 33.7448 52.0461 31.9597 49.7552 31.9597Z" fill="white"/>
</svg>
