<svg width="72" height="54" viewBox="0 0 72 54" fill="none" xmlns="http://www.w3.org/2000/svg">
<path d="M60.75 42.4688C59.196 42.4688 57.9375 43.7272 57.9375 45.2812C57.9375 46.8353 59.196 48.0938 60.75 48.0938C62.304 48.0938 63.5625 46.8353 63.5625 45.2812C63.5625 43.7272 62.304 42.4688 60.75 42.4688Z" fill="black"/>
<path d="M59.3438 31.2188C58.5676 31.2188 57.9375 31.8488 57.9375 32.625C57.9375 33.4012 58.5676 34.0312 59.3438 34.0312C60.1199 34.0312 60.75 33.4012 60.75 32.625C60.75 31.8488 60.1199 31.2188 59.3438 31.2188Z" fill="black"/>
<path d="M17.7188 42.4688C16.1647 42.4688 14.9062 43.7272 14.9062 45.2812C14.9062 46.8353 16.1647 48.0938 17.7188 48.0938C19.2728 48.0938 20.5312 46.8353 20.5312 45.2812C20.5312 43.7272 19.2728 42.4688 17.7188 42.4688Z" fill="black"/>
<path d="M66.0894 25.6838L63.6647 15.9851C64.5266 15.1606 64.9688 14.0669 64.9688 12.9375C64.9688 10.6111 63.0764 8.71875 60.75 8.71875H49.5V4.5C49.5 2.17365 47.6076 0.28125 45.2812 0.28125H4.21875C1.8924 0.28125 0 2.17365 0 4.5V41.0625C0 43.3889 1.8924 45.2812 4.21875 45.2812H9.28125C9.28125 49.934 13.066 53.7188 17.7188 53.7188C22.3715 53.7188 26.1562 49.934 26.1562 45.2812H52.3125C52.3125 49.934 56.0973 53.7188 60.75 53.7188C65.4027 53.7188 69.1875 49.934 69.1875 45.2812C69.1875 45.201 69.1837 45.1214 69.1815 45.0412C70.8212 44.4628 72 42.8978 72 41.0625V32.625C72 29.1292 69.4358 26.2222 66.0894 25.6838ZM61.0582 17.1562L63.1675 25.5938H51.4885L54.713 22.3693C55.2623 21.8199 55.2623 20.9301 54.713 20.3807C54.1637 19.8314 53.2738 19.8314 52.7245 20.3807L49.5 23.6047V17.1562H61.0582ZM62.1562 12.9375C62.1562 13.7137 61.5262 14.3438 60.75 14.3438H49.5V11.5312H60.75C61.5256 11.5312 62.1562 12.1619 62.1562 12.9375ZM17.7188 50.9062C14.6173 50.9062 12.0938 48.3827 12.0938 45.2812C12.0938 42.1375 14.6629 39.6562 17.7188 39.6562C20.7817 39.6562 23.3438 42.1441 23.3438 45.2812C23.3438 48.3827 20.8202 50.9062 17.7188 50.9062ZM25.6734 42.4688C24.499 39.1503 21.3201 36.8438 17.7188 36.8438C14.1158 36.8438 10.9358 39.152 9.76355 42.4688H4.21875C3.44312 42.4688 2.8125 41.8381 2.8125 41.0625V4.5C2.8125 3.72437 3.44312 3.09375 4.21875 3.09375H45.2812C46.0569 3.09375 46.6875 3.72437 46.6875 4.5V42.4688H25.6734ZM60.75 50.9062C57.6486 50.9062 55.125 48.3827 55.125 45.2812C55.125 42.1375 57.6942 39.6562 60.75 39.6562C63.813 39.6562 66.375 42.1441 66.375 45.2812C66.375 48.3827 63.8514 50.9062 60.75 50.9062ZM68.6047 42.2001C67.3572 39.0262 64.2535 36.8438 60.75 36.8438C57.147 36.8438 53.967 39.152 52.7948 42.4688H49.5V28.4062H64.9688C66.8018 28.4062 68.3652 29.5818 68.9458 31.2188H64.9688C64.192 31.2188 63.5625 31.8483 63.5625 32.625C63.5625 33.4017 64.192 34.0312 64.9688 34.0312H69.1875V41.0625C69.1875 41.53 68.9568 41.9442 68.6047 42.2001Z" fill="black"/>
<path d="M24.75 8.71875C17.7715 8.71875 12.0938 14.3965 12.0938 21.375C12.0938 28.3535 17.7715 34.0312 24.75 34.0312C31.7285 34.0312 37.4062 28.3535 37.4062 21.375C37.4062 14.3965 31.7285 8.71875 24.75 8.71875ZM24.75 31.2188C19.3222 31.2188 14.9062 26.8028 14.9062 21.375C14.9062 15.9472 19.3222 11.5312 24.75 11.5312C30.1778 11.5312 34.5938 15.9472 34.5938 21.375C34.5938 26.8028 30.1778 31.2188 24.75 31.2188Z" fill="black"/>
<path d="M30.375 19.9688H26.1562V15.75C26.1562 14.9733 25.5267 14.3438 24.75 14.3438C23.9733 14.3438 23.3438 14.9733 23.3438 15.75V21.375C23.3438 22.1517 23.9733 22.7812 24.75 22.7812H30.375C31.1517 22.7812 31.7812 22.1517 31.7812 21.375C31.7812 20.5983 31.1517 19.9688 30.375 19.9688Z" fill="black"/>
</svg>
