<svg width="48" height="48" viewBox="0 0 48 48" fill="none" xmlns="http://www.w3.org/2000/svg">
<path d="M37 27.3154C37 23.7819 34.4465 20.6946 30.8456 19.7643C30.6192 14.8458 26.2576 10.9092 20.9277 10.9092C15.4535 10.9092 11 15.0616 11 20.1658C11 21.8293 11.4749 23.4489 12.3766 24.8709L11.0365 29.3882L15.8815 28.1388C17.2834 28.9118 18.8647 29.3472 20.4969 29.4128C21.4945 32.7705 24.8058 35.1516 28.5957 35.1516C30.1084 35.1516 31.5795 34.776 32.872 34.0622L36.9633 35.1174L35.8316 31.3027C36.5971 30.0975 37 28.7259 37 27.3154ZM16.122 26.603L13.2215 27.3511L14.0239 24.6467L13.841 24.38C12.9791 23.1227 12.5234 21.6654 12.5234 20.1658C12.5234 15.8449 16.2935 12.3296 20.9277 12.3296C25.5619 12.3296 29.332 15.8449 29.332 20.1658C29.332 24.4867 25.5619 28.002 20.9277 28.002C19.3194 28.002 17.7567 27.5771 16.408 26.7735L16.122 26.603ZM34.7785 33.0803L32.6263 32.5251L32.3388 32.6995C31.2246 33.3744 29.9301 33.7311 28.5957 33.7311C25.6171 33.7311 22.9996 31.9354 22.0723 29.3605C26.6335 28.8702 30.2632 25.4859 30.7892 21.2328C33.5506 22.0977 35.4766 24.5381 35.4766 27.3154C35.4766 28.5596 35.0939 29.7666 34.3701 30.8055L34.183 31.0735L34.7785 33.0803Z" fill="#FF2233"/>
<path d="M20 24.4849H22V26.4243H20V24.4849Z" fill="#FF2233"/>
<path d="M22.5 18.8403C22.5 19.278 22.3266 19.682 22.0117 19.978L20.25 21.6348V23.5154H21.75V22.3135L23.0244 21.115C23.6443 20.532 24 19.703 24 18.8403C24 17.1405 22.6543 15.7578 21 15.7578C19.3457 15.7578 18 17.1405 18 18.8403H19.5C19.5 17.9904 20.1729 17.2991 21 17.2991C21.8271 17.2991 22.5 17.9904 22.5 18.8403Z" fill="#FF2233"/>
<circle cx="24" cy="24" r="23" stroke="#7A94C3" stroke-width="2"/>
</svg>
