<svg width="24" height="24" viewBox="0 0 24 24" fill="none" xmlns="http://www.w3.org/2000/svg">
<path d="M15.591 21.5V14.147H18.0536L18.422 11.2886H15.591V9.46456C15.591 8.637 15.8211 8.07228 17.0076 8.07228H18.5212V5.51572C17.7885 5.43797 17.052 5.40027 16.3151 5.40278C14.1333 5.40278 12.6397 6.73489 12.6397 9.18167V11.2886H10.1718V14.147H12.6397V21.5H3.55556C3.2756 21.5 3.00712 21.3888 2.80917 21.1908C2.61121 20.9929 2.5 20.7244 2.5 20.4444V3.55556C2.5 3.2756 2.61121 3.00712 2.80917 2.80917C3.00712 2.61121 3.2756 2.5 3.55556 2.5H20.4444C20.7244 2.5 20.9929 2.61121 21.1908 2.80917C21.3888 3.00712 21.5 3.2756 21.5 3.55556V20.4444C21.5 20.7244 21.3888 20.9929 21.1908 21.1908C20.9929 21.3888 20.7244 21.5 20.4444 21.5H15.591Z" fill="#37C277"/>
</svg>
