<svg width="133" height="19" viewBox="0 0 133 19" fill="none" xmlns="http://www.w3.org/2000/svg">
<path d="M14.7777 0.378923C14.5071 0.595447 14.3447 0.811969 14.2906 1.02849L10.6097 11.0427C10.4473 11.4758 10.2849 11.9629 10.1225 12.4501C9.96009 12.9914 9.7977 13.5327 9.68944 14.074C9.52705 13.5327 9.36465 12.9914 9.20226 12.4501C9.03987 11.9088 8.87748 11.4758 8.71508 11.0427L5.03418 0.974358C4.92591 0.703704 4.76352 0.487178 4.49287 0.270655C4.27634 0.108262 3.95156 0 3.57264 0H0L7.57833 18.7834H11.584L19.2165 0.0541342H15.6438C15.3732 0.108265 15.0484 0.21653 14.7777 0.378923Z" fill="#767A7B"/>
<path d="M51.0996 3.57229H56.4044V18.8913H60.8432V3.57229H66.2021V0.10791H51.0996V3.57229Z" fill="#767A7B"/>
<path d="M104.581 2.81439C103.715 1.9483 102.686 1.29872 101.495 0.811541C100.304 0.324362 98.9511 0.0537109 97.4355 0.0537109C95.9739 0.0537109 94.6207 0.270236 93.3756 0.757415C92.1848 1.24459 91.1022 1.89416 90.2361 2.76026C89.37 3.62635 88.7204 4.60071 88.2332 5.79159C87.746 6.92834 87.5295 8.22748 87.5295 9.52662C87.5295 10.8799 87.746 12.1249 88.2332 13.2617C88.7204 14.3984 89.37 15.4269 90.2361 16.293C91.1022 17.1591 92.1306 17.8087 93.3756 18.2958C94.5665 18.783 95.9198 18.9995 97.4355 18.9995C98.897 18.9995 100.25 18.783 101.495 18.2958C102.686 17.8087 103.769 17.1591 104.581 16.293C105.447 15.4269 106.096 14.4525 106.584 13.2617C107.071 12.1249 107.287 10.8258 107.287 9.52662C107.287 8.17335 107.071 6.92834 106.584 5.79159C106.151 4.65484 105.447 3.62636 104.581 2.81439ZM102.416 12.0708C102.199 12.8286 101.82 13.4241 101.387 13.9654C100.954 14.4525 100.359 14.8856 99.709 15.1562C99.0594 15.4269 98.3016 15.5352 97.4355 15.5352C96.5694 15.5352 95.8115 15.4269 95.162 15.1562C94.5124 14.8856 93.917 14.5067 93.4839 13.9654C93.0509 13.4782 92.6719 12.8286 92.4554 12.0708C92.2389 11.3129 92.0765 10.501 92.0765 9.58076C92.0765 8.66053 92.1848 7.84857 92.4554 7.09073C92.6719 6.3329 93.0509 5.73746 93.4839 5.19615C93.917 4.70897 94.5124 4.27593 95.162 4.00527C95.8115 3.73462 96.5694 3.57222 97.4355 3.57222C98.3016 3.57222 99.0053 3.73462 99.709 4.00527C100.359 4.27593 100.954 4.65484 101.387 5.19615C101.82 5.68333 102.199 6.3329 102.416 7.09073C102.632 7.84857 102.794 8.66053 102.794 9.58076C102.794 10.501 102.686 11.3129 102.416 12.0708Z" fill="#767A7B"/>
<path d="M80.8718 11.5299C80.6011 11.3134 80.3305 11.151 80.0598 10.9886C80.6553 10.7721 81.1966 10.4473 81.6837 10.1225C82.1709 9.74358 82.5498 9.36466 82.8746 8.87748C83.1994 8.44443 83.4701 7.90312 83.6325 7.36181C83.7949 6.8205 83.9031 6.22506 83.9031 5.62962C83.9031 4.81766 83.7407 4.11395 83.4701 3.41025C83.1994 2.70655 82.7664 2.16524 82.1168 1.62393C81.5214 1.13675 80.7094 0.757835 79.735 0.433049C78.7607 0.162394 77.5698 0 76.2165 0H70.0456V18.7834H74.4302V11.8547H75.5669C75.8917 11.8547 76.1624 11.9088 76.3789 12.0171C76.5413 12.1253 76.7037 12.2877 76.8661 12.5584L80.0057 18.0256C80.3305 18.5669 80.8718 18.8376 81.5755 18.8376H85.5812L81.5214 12.2877C81.359 12.0171 81.1424 11.7464 80.8718 11.5299ZM79.4102 7.14529C79.302 7.52421 79.0855 7.79486 78.8148 8.06552C78.5442 8.33617 78.2194 8.55269 77.7863 8.71509C77.3533 8.87748 76.8661 8.93161 76.2707 8.93161H74.4843V3.35613H76.2707C77.4074 3.35613 78.2735 3.57264 78.8148 4.05982C79.3561 4.547 79.6268 5.14244 79.6268 6.00854C79.5726 6.38745 79.5185 6.76638 79.4102 7.14529Z" fill="#767A7B"/>
<path d="M26.6325 6.54942L29.2308 9.47249L26.5783 11.8001V12.2332V15.2104V16.1847V18.8371H22.2479V0.0537109H23.2764H26.6866V3.40983V6.54942H26.6325ZM29.6638 0.107845V2.16481V6.06225L42.3304 3.46396L34.1567 14.9939L31.4501 12.4497L29.6097 13.4782V18.8913H34.0484H47.6894V15.5352H38.6495L47.5811 2.97678C47.6894 2.81439 47.7977 2.59787 47.9059 2.38134C47.9601 2.16482 48.0142 1.9483 48.0142 1.73177V0.161971H33.7778H29.6638V0.107845Z" fill="url(#paint0_linear)"/>
<path d="M121.687 11.2588C121.849 11.6377 122.011 11.9625 122.174 12.3414C122.336 11.9625 122.499 11.5836 122.661 11.2588C122.823 10.8799 122.986 10.5551 123.202 10.2303L128.128 0.757415C128.236 0.595022 128.291 0.486762 128.399 0.3785C128.507 0.270238 128.615 0.216102 128.724 0.161971C128.832 0.10784 128.994 0.107845 129.103 0.107845C129.265 0.107845 129.427 0.107845 129.59 0.107845H133V18.8371H129.048V8.06509C129.048 7.52378 129.048 6.98247 129.103 6.38703L124.014 16.0223C123.852 16.3471 123.635 16.5637 123.365 16.726C123.094 16.8884 122.769 16.9426 122.444 16.9426H121.849C121.524 16.9426 121.199 16.8884 120.929 16.726C120.658 16.5637 120.442 16.3471 120.279 16.0223L115.137 6.38703C115.191 6.71182 115.191 6.98247 115.191 7.30725C115.191 7.57791 115.191 7.9027 115.191 8.11922V18.8913H111.239V0.0537109H114.65C114.866 0.0537109 115.029 0.0537109 115.137 0.0537109C115.299 0.0537109 115.407 0.0537142 115.516 0.107845C115.624 0.161976 115.732 0.216104 115.84 0.324366C115.949 0.432628 116.003 0.540888 116.111 0.703281L121.091 10.2303C121.362 10.5551 121.524 10.8799 121.687 11.2588Z" fill="#767A7B"/>
<defs>
<linearGradient id="paint0_linear" x1="20.7315" y1="13.2914" x2="49.4289" y2="5.60203" gradientUnits="userSpaceOnUse">
<stop offset="0.000195618" stop-color="#27B267"/>
<stop offset="0.5" stop-color="#37C277"/>
<stop offset="1" stop-color="#47D187"/>
</linearGradient>
</defs>
</svg>
