<svg width="48" height="48" viewBox="0 0 48 48" fill="none" xmlns="http://www.w3.org/2000/svg">
<g clip-path="url(#clip0)">
<path d="M47.9075 26.2173C47.4765 21.8824 45.5399 17.7957 42.4541 14.7099C39.8171 12.0729 36.5894 10.3784 33.1932 9.62489V7.24285C34.5803 6.89775 35.6114 5.64214 35.6114 4.14971C35.6114 2.39206 34.1815 0.962158 32.4239 0.962158H25.6737C23.9161 0.962158 22.4862 2.39206 22.4862 4.14971C22.4862 5.64204 23.5173 6.89766 24.9043 7.24285V9.63154C21.5185 10.3882 18.3015 12.0804 15.672 14.71C15.0965 15.2854 14.5659 15.8891 14.0802 16.5165C14.0566 16.5147 14.0331 16.5129 14.0091 16.5129H7.32827C6.81058 16.5129 6.39076 16.9326 6.39076 17.4504C6.39076 17.9682 6.81058 18.3879 7.32827 18.3879H12.8045C12.1171 19.5387 11.5628 20.7473 11.141 21.9914H0.937515C0.419819 21.9914 0 22.4111 0 22.9289C0 23.4467 0.419819 23.8664 0.937515 23.8664H10.6112C10.341 25.0524 10.1859 26.2595 10.1459 27.4699H6.00009C5.4824 27.4699 5.06258 27.8896 5.06258 28.4074C5.06258 28.9252 5.4824 29.3449 6.00009 29.3449H10.1758C10.2549 30.5585 10.45 31.7656 10.7612 32.9485H4.68757C4.16988 32.9485 3.75006 33.3682 3.75006 33.886C3.75006 34.4038 4.16988 34.8235 4.68757 34.8235H11.3595C12.2792 37.2564 13.7165 39.5368 15.672 41.4922C18.7607 44.581 22.8516 46.5181 27.191 46.9468C27.8103 47.0079 28.4301 47.0382 29.0491 47.0382C32.7074 47.0382 36.3193 45.9795 39.3841 43.9837C39.8179 43.7011 39.9407 43.1203 39.6581 42.6864C39.3755 42.2526 38.7947 42.1298 38.3609 42.4124C31.6523 46.7809 22.6678 45.8364 16.9978 40.1664C10.345 33.5136 10.345 22.6888 16.9978 16.0359C23.6505 9.3832 34.4753 9.3832 41.1282 16.0359C46.7907 21.6985 47.7404 30.6753 43.3863 37.3806C43.1043 37.8148 43.2278 38.3955 43.6619 38.6774C44.0964 38.9594 44.6769 38.836 44.9588 38.4017C47.2851 34.819 48.3324 30.4919 47.9075 26.2173ZM24.3612 4.1498C24.3612 3.42604 24.95 2.83728 25.6737 2.83728H32.4239C33.1476 2.83728 33.7364 3.42604 33.7364 4.1498C33.7364 4.87356 33.1476 5.46232 32.4239 5.46232H32.2557H25.8418H25.6737C24.95 5.46232 24.3612 4.87347 24.3612 4.1498ZM26.7794 9.30923V7.33735H31.3181V9.30585C29.811 9.1266 28.2862 9.12772 26.7794 9.30923Z" fill="#FF2233"/>
<path d="M41.7915 39.8914C41.544 39.8914 41.3031 39.9917 41.1288 40.166C40.9535 40.3404 40.854 40.5823 40.854 40.8289C40.854 41.0754 40.9535 41.3173 41.1288 41.4917C41.3031 41.667 41.5441 41.7664 41.7915 41.7664C42.0381 41.7664 42.279 41.667 42.4543 41.4917C42.6287 41.3173 42.729 41.0754 42.729 40.8289C42.729 40.5823 42.6288 40.3404 42.4543 40.166C42.279 39.9917 42.038 39.8914 41.7915 39.8914Z" fill="#FF2233"/>
<path d="M29.0631 13.5574C21.0438 13.5574 14.5195 20.0815 14.5195 28.1009C14.5195 36.1204 21.0438 42.6445 29.0631 42.6445C37.0824 42.6445 43.6067 36.1204 43.6067 28.1009C43.6067 20.0815 37.0824 13.5574 29.0631 13.5574ZM29.0631 40.7695C22.0776 40.7695 16.3946 35.0864 16.3946 28.1009C16.3946 21.1155 22.0776 15.4324 29.0631 15.4324C36.0486 15.4324 41.7316 21.1155 41.7316 28.1009C41.7316 35.0864 36.0486 40.7695 29.0631 40.7695Z" fill="#FF2233"/>
<path d="M34.9935 20.8449L30.35 25.4883C29.9617 25.2963 29.5249 25.1878 29.0632 25.1878C28.6014 25.1878 28.1647 25.2963 27.7763 25.4883L25.6982 23.4101C25.332 23.044 24.7385 23.044 24.3722 23.4101C24.0061 23.7762 24.0061 24.3698 24.3722 24.7359L26.4504 26.8141C26.2583 27.2025 26.1499 27.6392 26.1499 28.101C26.1499 29.7073 27.4567 31.0142 29.0632 31.0142C30.6696 31.0142 31.9764 29.7073 31.9764 28.101C31.9764 27.6392 31.8679 27.2025 31.6759 26.8141L36.1831 22.3069L36.3194 22.1707C36.6855 21.8046 36.6855 21.211 36.3194 20.8449C35.9533 20.4788 35.3598 20.4788 34.9935 20.8449ZM29.0632 29.1393C28.4907 29.1393 28.025 28.6735 28.025 28.1011C28.025 27.5286 28.4907 27.0629 29.0632 27.0629C29.6356 27.0629 30.1014 27.5286 30.1014 28.1011C30.1014 28.6735 29.6356 29.1393 29.0632 29.1393Z" fill="#FF2233"/>
<path d="M39.0869 27.1748H38.2183C37.7006 27.1748 37.2808 27.5945 37.2808 28.1123C37.2808 28.6301 37.7006 29.0498 38.2183 29.0498H39.0869C39.6045 29.0498 40.0244 28.6301 40.0244 28.1123C40.0244 27.5945 39.6045 27.1748 39.0869 27.1748Z" fill="#FF2233"/>
<path d="M19.9078 27.1521H19.0393C18.5216 27.1521 18.1018 27.5718 18.1018 28.0896C18.1018 28.6074 18.5216 29.0271 19.0393 29.0271H19.9078C20.4255 29.0271 20.8453 28.6074 20.8453 28.0896C20.8453 27.5718 20.4255 27.1521 19.9078 27.1521Z" fill="#FF2233"/>
<path d="M29.0745 19.8831C29.5922 19.8831 30.012 19.4634 30.012 18.9456V18.0771C30.012 17.5594 29.5922 17.1396 29.0745 17.1396C28.5568 17.1396 28.137 17.5594 28.137 18.0771V18.9456C28.137 19.4634 28.5568 19.8831 29.0745 19.8831Z" fill="#FF2233"/>
<path d="M29.0515 36.3188C28.5338 36.3188 28.114 36.7386 28.114 37.2563V38.1248C28.114 38.6426 28.5338 39.0623 29.0515 39.0623C29.5692 39.0623 29.989 38.6426 29.989 38.1248V37.2563C29.989 36.7386 29.5692 36.3188 29.0515 36.3188Z" fill="#FF2233"/>
<path d="M0.9375 32.948C0.690938 32.948 0.449062 33.0483 0.274687 33.2227C0.100313 33.3971 0 33.6389 0 33.8855C0 34.133 0.100219 34.3739 0.274687 34.5483C0.449156 34.7227 0.690938 34.823 0.9375 34.823C1.18406 34.823 1.42594 34.7227 1.60022 34.5483C1.77459 34.3739 1.875 34.1321 1.875 33.8855C1.875 33.6389 1.77469 33.3971 1.60022 33.2227C1.42594 33.0483 1.18406 32.948 0.9375 32.948Z" fill="#FF2233"/>
</g>
<defs>
<clipPath id="clip0">
<path d="M0 0H48V48H0V0Z" fill="white"/>
</clipPath>
</defs>
</svg>
