<svg width="48" height="48" viewBox="0 0 48 48" fill="none" xmlns="http://www.w3.org/2000/svg">
<path d="M39.7969 7.67212C39.2794 7.67212 38.8594 8.09212 38.8594 8.60962C38.8594 9.12712 39.2794 9.54712 39.7969 9.54712C40.3144 9.54712 40.7344 9.12712 40.7344 8.60962C40.7344 8.09203 40.3144 7.67212 39.7969 7.67212Z" fill="#FF2233"/>
<path d="M44.6679 6.72751C42.4306 4.21285 39.3273 2.82797 35.9297 2.82797C32.2145 2.82797 28.8243 4.26807 26.1259 6.99263C25.1875 7.93997 24.4862 8.88648 24 9.6376C23.5138 8.88657 22.8125 7.94016 21.8741 6.99263C19.1757 4.26797 15.7856 2.82788 12.0703 2.82788C4.95881 2.82788 0 8.77735 0 15.8508C0 25.4056 10.1254 33.4508 23.386 44.9429C23.5622 45.0956 23.7811 45.1719 24 45.1719C24.2189 45.1719 24.4378 45.0956 24.614 44.9429C37.9062 33.4233 48 25.3923 48 15.8508C48 12.3825 46.8167 9.14251 44.6679 6.72751ZM24 42.9943C11.4779 32.1583 1.875 24.3756 1.875 15.8508C1.875 9.49548 6.258 4.70297 12.0703 4.70297C15.2976 4.70297 18.1323 5.90166 20.4957 8.26557C22.2963 10.0665 23.1364 11.9045 23.1446 11.9229C23.2955 12.2591 23.6299 12.4751 23.9986 12.4759C23.9992 12.4759 23.9998 12.4759 24.0004 12.4759C24.369 12.4759 24.7039 12.259 24.8555 11.9229C24.8637 11.9045 25.7038 10.0666 27.5044 8.26557C29.8677 5.90157 32.7024 4.70297 35.9298 4.70297C41.7421 4.70297 46.1251 9.49548 46.1251 15.8508C46.125 24.568 35.8884 32.7067 24 42.9943Z" fill="#FF2233"/>
<path d="M43.0758 11.012C42.8353 10.5534 42.2686 10.3768 41.8102 10.6172C41.3516 10.8576 41.1748 11.4243 41.4153 11.8828C42.0341 13.0628 42.3749 14.4721 42.3749 15.851C42.3749 18.56 41.0856 21.4352 38.3172 24.8994C37.994 25.3039 38.0599 25.8938 38.4643 26.2171C38.8714 26.5424 39.4608 26.4719 39.782 26.07C42.8302 22.2555 44.2499 19.0083 44.2499 15.851C44.2499 14.15 43.8439 12.4767 43.0758 11.012Z" fill="#FF2233"/>
<path d="M33 20.7971H27.75V15.5471C27.75 15.0293 27.3303 14.6096 26.8125 14.6096H21.1875C20.6697 14.6096 20.25 15.0293 20.25 15.5471V20.7971H15C14.4822 20.7971 14.0625 21.2168 14.0625 21.7346V27.3596C14.0625 27.8774 14.4822 28.2971 15 28.2971H20.25V33.5471C20.25 34.0649 20.6697 34.4846 21.1875 34.4846H26.8125C27.3303 34.4846 27.75 34.0649 27.75 33.5471V28.2971H33C33.5178 28.2971 33.9375 27.8774 33.9375 27.3596V21.7346C33.9375 21.2168 33.5178 20.7971 33 20.7971ZM32.0625 26.422H26.8125C26.2947 26.422 25.875 26.8417 25.875 27.3595V32.6095H22.125V27.3595C22.125 26.8417 21.7053 26.422 21.1875 26.422H15.9375V22.672H21.1875C21.7053 22.672 22.125 22.2523 22.125 21.7345V16.4845H25.875V21.7345C25.875 22.2523 26.2947 22.672 26.8125 22.672H32.0625V26.422Z" fill="#FF2233"/>
</svg>
