<svg width="48" height="48" viewBox="0 0 48 48" fill="none" xmlns="http://www.w3.org/2000/svg">
<g clip-path="url(#clip0)">
<path d="M11.7839 11.812C11.2664 11.812 10.8464 12.232 10.8464 12.7495C10.8464 13.267 11.2664 13.687 11.7839 13.687C12.3014 13.687 12.7214 13.267 12.7214 12.7495C12.7214 12.232 12.3014 11.812 11.7839 11.812Z" fill="#FF2233"/>
<path d="M20.221 29.3423H17.4087V26.53C17.4087 26.0123 16.9888 25.5925 16.4712 25.5925C15.9535 25.5925 15.5337 26.0123 15.5337 26.53V29.3423H12.7214C12.2037 29.3423 11.7839 29.7622 11.7839 30.2797C11.7839 30.7973 12.2037 31.2172 12.7214 31.2172H15.5337V34.0296C15.5337 34.5472 15.9536 34.9671 16.4712 34.9671C16.9887 34.9671 17.4087 34.5472 17.4087 34.0296V31.2172H20.221C20.7387 31.2172 21.1585 30.7974 21.1585 30.2797C21.1585 29.7621 20.7387 29.3423 20.221 29.3423Z" fill="#FF2233"/>
<path d="M45.5229 30.186C43.4505 26.5967 38.8684 25.3683 35.2785 27.4411L31.4705 29.6395V21.4987C31.4705 20.4923 31.1377 19.4935 30.5331 18.6863L25.8459 12.4369V9.77569C26.937 9.38869 27.7208 8.34675 27.7208 7.12453V2.81231C27.7206 1.26159 26.459 0 24.9083 0H8.03414C6.48342 0 5.22174 1.26159 5.22174 2.81231V7.12463C5.22174 8.34666 6.00558 9.38878 7.09664 9.77578V12.437L2.40905 18.6868C1.80474 19.4936 1.47192 20.4923 1.47192 21.4987V39.6543C1.47192 42.2389 3.57464 44.3415 6.15914 44.3415H21.225C23.3269 47.8649 27.8594 49.0441 31.4122 46.9927L42.7781 40.4304C46.3364 38.3756 47.6056 33.7949 45.5229 30.186ZM7.09664 2.81231C7.09664 2.29537 7.5172 1.87481 8.03405 1.87481H24.9082C25.4251 1.87481 25.8457 2.29537 25.8457 2.81231V7.12463C25.8457 7.64156 25.4251 8.06203 24.9082 8.06203H8.03414C7.5172 8.06203 7.09674 7.64147 7.09674 7.12463V2.81231H7.09664ZM3.90942 19.8112L8.78405 13.3118C8.90574 13.1497 8.97155 12.9522 8.97155 12.7493V9.93703H23.9708V11.8119H15.5338C15.0161 11.8119 14.5963 12.2318 14.5963 12.7494C14.5963 13.2671 15.0161 13.6869 15.5338 13.6869H24.4395L29.0326 19.8109C29.3328 20.2117 29.5193 20.6912 29.5756 21.1866H3.3668C3.42305 20.6911 3.60952 20.2116 3.90942 19.8112ZM6.15924 42.4666C4.60852 42.4666 3.34692 41.205 3.34692 39.6543V38.7075H20.379C20.0817 39.923 20.0836 41.2212 20.424 42.4667H6.15924V42.4666ZM21.1142 36.8419H3.34683V23.0613H29.5955V30.7219L23.9125 34.0033C22.7276 34.6878 21.7698 35.6621 21.1142 36.8419ZM30.4749 45.3689C27.7845 46.9224 24.3467 46.0037 22.7922 43.3115C21.2302 40.5933 22.1768 37.171 24.8502 35.6269L29.9386 32.6889L35.5634 42.431L30.4749 45.3689ZM41.8406 38.8068L37.1871 41.4936L31.5623 31.7513L36.2159 29.0648C38.908 27.5107 42.3446 28.431 43.8991 31.1233C45.4605 33.8291 44.511 37.2647 41.8406 38.8068Z" fill="#FF2233"/>
</g>
<defs>
<clipPath id="clip0">
<path d="M0 0H48V48H0V0Z" fill="white"/>
</clipPath>
</defs>
</svg>
