<svg width="48" height="46" viewBox="0 0 48 46" fill="none" xmlns="http://www.w3.org/2000/svg">
<path fill-rule="evenodd" clip-rule="evenodd" d="M4.80078 30.6751C5.24309 30.6751 5.60156 30.3215 5.60156 29.8853V7.07563C5.60156 5.69929 6.73673 4.57965 8.13216 4.57965H40.8678C42.263 4.57965 43.3984 5.69929 43.3984 7.07563V10.2349C43.3984 10.6712 43.7569 11.0248 44.1992 11.0248C44.6415 11.0248 45 10.6712 45 10.2349V7.07563C45 4.82833 43.1463 3 40.8675 3H8.13216C5.85368 3 4 4.82833 4 7.07563V29.8853C4 30.3215 4.35847 30.6751 4.80078 30.6751Z" fill="#FF2233"/>
<path fill-rule="evenodd" clip-rule="evenodd" d="M44.1992 16.3247C43.7569 16.3247 43.3984 16.6783 43.3984 17.1145V39.9242C43.3984 41.3005 42.263 42.4202 40.8675 42.4202H8.13216C6.73673 42.4202 5.60156 41.3005 5.60156 39.9242V36.7649C5.60156 36.3289 5.24309 35.975 4.80078 35.975C4.35847 35.975 4 36.3289 4 36.7649V39.9242C4 42.1718 5.85368 43.9998 8.13216 43.9998H40.8678C43.1463 43.9998 45 42.1718 45 39.9242V17.1145C45 16.6783 44.6415 16.3247 44.1992 16.3247Z" fill="#FF2233"/>
<path fill-rule="evenodd" clip-rule="evenodd" d="M33.6772 19.4001C33.7116 19.4001 33.7463 19.3977 33.7813 19.3931C33.9879 19.3655 34.1752 19.2573 34.3018 19.0917L38.8385 13.1609C39.1019 12.8165 39.0362 12.3241 38.6914 12.061C36.6352 10.4902 34.3573 9.26673 31.921 8.42442C31.921 8.42442 31.921 8.42442 31.9207 8.42442C31.9207 8.42411 31.9207 8.42411 31.9204 8.42411C29.3791 7.54532 26.7143 7.1001 24 7.1001C21.2858 7.1001 18.621 7.54563 16.0797 8.42411C16.0794 8.42411 16.0794 8.42411 16.0794 8.42411C16.0791 8.42411 16.0791 8.42442 16.0791 8.42442C13.6427 9.26673 11.3649 10.4902 9.30838 12.0607C8.96385 12.3241 8.89813 12.8165 9.1613 13.1609L13.6983 19.0917C13.8248 19.2569 14.0121 19.3655 14.2191 19.3931C14.4255 19.4207 14.6349 19.3652 14.8007 19.2385C17.4606 17.2065 20.6419 16.1327 24 16.1327C27.3582 16.1327 30.5392 17.2065 33.1994 19.2385C33.3372 19.3437 33.5055 19.4001 33.6772 19.4001ZM14.481 17.5288L10.896 12.842C12.4356 11.7473 14.0981 10.8544 15.8555 10.1777L16.8167 12.9496C16.929 13.2743 17.2337 13.4779 17.5595 13.4779C17.6448 13.4779 17.7314 13.4641 17.8168 13.4347C18.227 13.2927 18.4445 12.8457 18.3023 12.436L17.3414 9.66473C19.2422 9.08122 21.2112 8.75251 23.2139 8.68413V11.6161C23.2139 12.0497 23.5658 12.4011 24 12.4011C24.4342 12.4011 24.7861 12.0497 24.7861 11.6161V8.68444C26.7889 8.75251 28.7578 9.08122 30.6586 9.66503L29.6978 12.436C29.5556 12.8457 29.773 13.2927 30.1833 13.4347C30.2683 13.4641 30.3552 13.4782 30.4406 13.4782C30.7661 13.4782 31.0707 13.2743 31.1834 12.9499L32.1446 10.1777C33.9016 10.8544 35.5641 11.7476 37.1041 12.842L33.5187 17.5288C30.717 15.5857 27.4426 14.5628 24 14.5628C20.5574 14.5628 17.2831 15.5854 14.481 17.5288Z" fill="#FF2233"/>
<path fill-rule="evenodd" clip-rule="evenodd" d="M24.4992 22.4751C24.1332 22.4751 23.8116 22.6978 23.7098 23.0218L19.0325 37.9072C18.9605 38.1359 19.0097 38.3823 19.1647 38.5728C19.3201 38.763 19.5634 38.8751 19.8215 38.8751H29.1766H29.1782C29.6321 38.8751 30 38.5361 30 38.1179C30 38.027 29.9827 37.9401 29.9509 37.8593L25.2886 23.0218C25.1869 22.6978 24.8652 22.4751 24.4992 22.4751ZM20.9153 37.3606L24.4992 25.9551L28.0832 37.3606H20.9153Z" fill="#FF2233"/>
<path fill-rule="evenodd" clip-rule="evenodd" d="M5 33.7501C5.55078 33.7501 6 33.5197 6 33.2375C6 32.9553 5.55078 32.7251 5 32.7251C4.44922 32.7251 4 32.9553 4 33.2375C4 33.5197 4.44922 33.7501 5 33.7501Z" fill="#FF2233"/>
<path fill-rule="evenodd" clip-rule="evenodd" d="M44 12.2251C43.4492 12.2251 43 12.6855 43 13.2501C43 13.8147 43.4492 14.2751 44 14.2751C44.5508 14.2751 45 13.8147 45 13.2501C45 12.6855 44.5508 12.2251 44 12.2251Z" fill="#FF2233"/>
</svg>
