<svg width="48" height="48" viewBox="0 0 48 48" fill="none" xmlns="http://www.w3.org/2000/svg">
<path d="M47.7075 20.5856C47.6685 20.372 47.5567 20.1785 47.3908 20.0382C45.8383 18.7249 45.5762 17.2767 45.3655 16.1132L45.338 15.9616C45.2652 15.5645 44.9463 15.2585 44.5465 15.2022C44.4085 15.1828 44.2625 15.1729 44.1124 15.1729C43.2202 15.1729 41.9632 15.5488 41.1662 16.3886C41.0302 16.5319 40.943 16.7145 40.9169 16.9104C40.8499 17.4142 40.8154 17.8752 40.785 18.282C40.6702 19.8149 40.5686 19.9775 40.1017 20.1252C39.809 20.2179 39.5802 20.4478 39.4892 20.7409C39.0494 22.1567 38.4658 23.5116 37.7595 24.7899C37.4107 24.1239 37.0252 23.5248 36.6664 22.9674C35.7889 21.604 35.0957 20.5271 35.3325 19.1923C36.0999 14.8663 35.7104 11.6076 34.1744 9.50646C33.319 8.33636 32.1005 7.53865 30.6196 7.16599C30.9143 4.86611 32.5126 3.82343 33.3973 3.58633C33.8975 3.45236 34.1943 2.93824 34.0602 2.43808C33.9262 1.93802 33.412 1.64093 32.9121 1.77518C31.0853 2.26465 29.1341 4.06155 28.7615 6.93161C27.2652 6.9274 25.9063 7.38433 24.7881 8.27777C22.7447 9.91043 21.5101 12.9444 21.1185 17.2951C21.0007 18.6043 20.1537 19.3682 18.9814 20.4252C18.0245 21.2881 16.9585 22.2515 16.1047 23.7079C15.0411 23.2748 13.9001 22.9938 12.7087 22.8921C13.0464 20.6841 14.5994 19.6759 15.467 19.4435C15.9671 19.3095 16.2639 18.7954 16.1299 18.2953C15.9958 17.7952 15.4817 17.4982 14.9817 17.6324C14.5106 17.7586 14.0315 17.9728 13.5729 18.2689C13.3597 17.2162 12.8437 16.2288 12.0623 15.4476C11.0155 14.4008 9.62362 13.8243 8.14312 13.8243C7.65853 13.8243 7.17591 13.8876 6.70856 14.0123C6.38447 14.0988 6.13125 14.352 6.04472 14.6761C5.53537 16.5836 6.08531 18.635 7.47994 20.0299C8.45034 21.0003 9.71775 21.5656 11.0771 21.6431C10.9586 22.0311 10.8705 22.444 10.8193 22.8818C4.77722 23.3357 0 28.3967 0 34.5527C0 41.0064 5.25047 46.2568 11.704 46.2568C14.1025 46.2568 16.3872 45.544 18.3431 44.1917C18.6512 44.3269 18.9603 44.457 19.2708 44.5795C22.0923 45.6924 24.9438 46.2567 27.7459 46.2567C32.253 46.2567 36.4361 44.7841 39.843 41.998C43.4039 39.0858 46.0283 34.7768 47.4323 29.5367C47.8905 27.8276 48.2947 23.8007 47.7075 20.5856ZM20.2372 21.8178C21.4982 20.6806 22.8022 19.5047 22.986 17.4633C23.33 13.6416 24.33 11.044 25.9585 9.7428C26.9253 8.9704 28.1202 8.67255 29.5105 8.85836C30.8836 9.04164 31.9435 9.63199 32.6608 10.6132C33.8833 12.2855 34.1611 15.0618 33.4863 18.8649C33.1209 20.9237 34.1218 22.4785 35.0897 23.9823C35.6321 24.825 36.1905 25.694 36.5702 26.7054C33.4105 31.2682 28.6161 34.5956 23.3405 35.8141C23.3855 35.3958 23.4083 34.9744 23.4083 34.5527C23.4083 30.3237 21.1536 26.6115 17.7832 24.5546C18.4847 23.4001 19.3729 22.5972 20.2372 21.8178ZM8.80556 18.704C8.01797 17.9163 7.63753 16.8118 7.75247 15.7198C7.88203 15.7061 8.01225 15.6991 8.14294 15.6991C9.12253 15.6991 10.0436 16.0806 10.7362 16.7732C11.5239 17.5609 11.9045 18.6655 11.7894 19.7574C11.66 19.7711 11.5297 19.778 11.3992 19.778H11.3991C10.4192 19.7781 9.49819 19.3966 8.80556 18.704ZM11.704 44.3818C6.28425 44.3818 1.875 39.9726 1.875 34.5527C1.875 29.1328 6.28425 24.7236 11.704 24.7236C17.1239 24.7236 21.5332 29.1328 21.5332 34.5527C21.5332 35.0931 21.4891 35.6325 21.4018 36.1632C20.7987 36.2411 20.1915 36.2905 19.5815 36.3113C19.7099 35.7363 19.777 35.1488 19.777 34.5527C19.777 33.4969 19.5739 32.4662 19.1733 31.4894C18.9769 31.0106 18.4295 30.7812 17.9501 30.9778C17.4712 31.1743 17.242 31.7219 17.4385 32.201C17.7461 32.9509 17.902 33.7421 17.902 34.5527C17.902 35.1422 17.8185 35.7213 17.6552 36.282C16.3134 36.1957 14.9697 35.974 13.6458 35.6192C13.3762 35.5469 13.0882 35.5987 12.8604 35.7603C12.0272 36.3519 11.1874 37.096 10.6894 38.5226C10.561 38.8903 10.6733 39.2991 10.9716 39.5496C12.6937 40.9962 14.4931 42.2226 16.3465 43.2181C14.9278 43.9823 13.3481 44.3818 11.704 44.3818ZM45.6213 29.0516C43.0491 38.6509 36.3667 44.3818 27.746 44.3818C22.7133 44.3818 17.4009 42.3185 12.7186 38.5582C12.9667 38.1127 13.2736 37.806 13.6033 37.5443C15.3637 37.9786 17.154 38.1986 18.9318 38.1986C23.9632 38.1986 28.8147 36.484 32.9617 33.2401C35.07 31.591 36.8973 29.6037 38.361 27.4002C38.3784 27.3766 38.3948 27.3522 38.4099 27.3271C39.5654 25.5741 40.4909 23.6853 41.1436 21.7212C42.4575 21.0601 42.5577 19.721 42.6549 18.422C42.6772 18.1251 42.6999 17.8206 42.7347 17.4993C42.9841 17.3187 43.3146 17.1758 43.6459 17.1023C43.8957 18.2943 44.3815 19.8244 45.9167 21.2373C46.351 23.9994 46.0357 27.505 45.6213 29.0516Z" fill="#FF2233"/>
<path d="M30.2346 10.7876C29.7574 10.5877 29.2078 10.8123 29.0075 11.2897C28.8073 11.7672 29.032 12.3166 29.5096 12.5168C30.1916 12.8028 30.5682 14.8607 29.9684 18.2406C29.8779 18.7505 30.2178 19.2371 30.7277 19.3276C30.7832 19.3374 30.8383 19.3422 30.8927 19.3422C31.3386 19.3422 31.7341 19.0227 31.8147 18.5684C32.3511 15.5459 32.5124 11.7426 30.2346 10.7876Z" fill="#FF2233"/>
<path d="M36.4314 37.6212C36.1208 37.2069 35.5321 37.1237 35.1179 37.4345C35.1176 37.4347 35.1135 37.4377 35.1132 37.4379C34.6957 37.7436 34.6067 38.3286 34.9121 38.7464C35.0953 38.9971 35.3805 39.1297 35.6696 39.1297C35.8621 39.1297 36.0565 39.0708 36.2235 38.9488L36.245 38.9329C36.6592 38.6222 36.7421 38.0355 36.4314 37.6212Z" fill="#FF2233"/>
<path d="M34.2799 39.1371C34.0439 38.6763 33.4792 38.4937 33.0182 38.7295C29.8094 40.3709 27.1022 40.3059 27.0623 40.3041C26.5469 40.2862 26.1116 40.6879 26.0913 41.2044C26.0711 41.7217 26.474 42.1576 26.9914 42.1778C27.0057 42.1784 27.0562 42.1801 27.1399 42.1801C27.8099 42.1801 30.6025 42.0712 33.8721 40.3986C34.3331 40.163 34.5156 39.5981 34.2799 39.1371Z" fill="#FF2233"/>
<path d="M17.4415 28.8733L17.4107 28.8423C17.0436 28.4774 16.4501 28.4788 16.0848 28.8459C15.7197 29.213 15.7213 29.8067 16.0884 30.1718L16.1086 30.192C16.2919 30.3774 16.5334 30.4701 16.775 30.4701C17.0132 30.4701 17.2517 30.3798 17.4344 30.1991C17.8024 29.8351 17.8056 29.2413 17.4415 28.8733Z" fill="#FF2233"/>
</svg>
