<svg width="48" height="56" viewBox="0 0 48 56" fill="none" xmlns="http://www.w3.org/2000/svg">
<path fill-rule="evenodd" clip-rule="evenodd" d="M38.4844 29.0171C38.179 27.001 37.4841 25.1426 36.7138 23.4125C36.7117 23.4079 36.7098 23.403 36.7076 23.3984C36.3903 22.6861 36.0603 21.9957 35.7398 21.3246C34.6942 19.1372 33.7069 17.071 33.63 15.1912C33.4543 10.915 35.0857 9.22687 35.1501 9.16212C35.3773 8.95191 35.4577 8.60761 35.3594 8.2946C35.2611 7.9819 34.9942 7.77783 34.7013 7.77783H13.9284C13.6352 7.77783 13.3661 7.97944 13.2678 8.29214C13.1693 8.60515 13.2472 8.9467 13.4744 9.1569C13.5439 9.22656 15.1753 10.915 14.9999 15.1909C14.9228 17.0707 13.9354 19.1369 12.8901 21.3246C12.5693 21.9954 12.2393 22.6861 11.922 23.3984C11.9198 23.403 11.918 23.4076 11.9158 23.4122C11.0968 25.2519 10.3632 27.2364 10.0922 29.4017C10.0889 29.4234 10.0862 29.4455 10.0846 29.4676C9.98821 30.2661 9.9541 31.0891 10.0034 31.9388C10.0873 33.3903 10.3058 35.0321 10.6526 36.819C10.7349 37.2428 11.1044 37.5104 11.4783 37.4174C11.8522 37.3241 12.0885 36.9052 12.0062 36.4814C11.6746 34.7716 11.4661 33.2087 11.3865 31.836C11.3711 31.5709 11.3659 31.3085 11.3681 31.0486L21.222 39.6311C21.884 40.2077 22.724 40.5658 23.6218 40.6613V46.4289H14.7839C14.5297 45.7191 14.028 44.2704 13.489 42.4491C13.3672 42.0379 12.9741 41.8163 12.6116 41.9544C12.2485 42.0922 12.053 42.5375 12.1749 42.949C12.963 45.6114 13.6544 47.4471 13.6834 47.5238C13.7927 47.8126 14.0432 48.0001 14.3204 48.0001H34.3092C34.5865 48.0001 34.8372 47.8126 34.9463 47.5238C35.0803 47.1697 38.231 38.7697 38.6263 31.9392C38.6839 30.944 38.6282 29.9856 38.4906 29.0601C38.489 29.0457 38.4868 29.0316 38.4844 29.0171ZM16.3844 15.2642C16.5014 12.4165 15.8906 10.501 15.3126 9.34931H33.317C32.7388 10.501 32.1283 12.4165 32.2452 15.2642C32.337 17.5031 33.398 19.723 34.5207 22.073C34.7546 22.5622 34.9896 23.0544 35.2186 23.5506C32.6992 25.6447 28.6792 26.8816 24.3148 26.8816C19.9504 26.8816 15.9304 25.6447 13.411 23.5506C13.64 23.0544 13.875 22.5622 14.1087 22.073C15.2319 19.723 16.2926 17.5031 16.3844 15.2642ZM11.5213 29.2007C11.7523 27.7262 12.2209 26.3277 12.7843 24.9729C15.5476 27.1643 19.775 28.4528 24.3148 28.4528C28.8549 28.4528 33.082 27.164 35.8453 24.9729C36.3616 26.2145 36.798 27.4929 37.0452 28.833L25.9958 38.4567C24.9529 39.3651 23.1537 39.3322 22.0667 38.3855L11.5213 29.2007ZM37.2431 31.8364C36.9155 37.4984 34.5161 44.5518 33.8458 46.4289H25.0079V40.5962C25.6961 40.4542 26.3266 40.1497 26.8402 39.7026L37.251 30.6353C37.2677 31.0296 37.2667 31.4294 37.2431 31.8364Z" fill="#FF2233"/>
<path fill-rule="evenodd" clip-rule="evenodd" d="M24.3151 23.2241C24.6979 23.2241 25.0082 22.8725 25.0082 22.4386V20.0468C25.0082 19.6129 24.6979 19.2612 24.3151 19.2612C23.9323 19.2612 23.6221 19.6129 23.6221 20.0468V22.4386C23.6221 22.8725 23.9323 23.2241 24.3151 23.2241Z" fill="#FF2233"/>
<path fill-rule="evenodd" clip-rule="evenodd" d="M10.7677 16.4465C10.4969 16.7533 10.4969 17.2508 10.7677 17.5573C10.903 17.7108 11.0804 17.7875 11.2577 17.7875C11.435 17.7875 11.6126 17.7108 11.7477 17.5573C11.7477 17.5573 13.7533 15.2841 13.756 15.281C13.9122 15.1039 13.991 14.8409 13.952 14.5933C13.9265 14.4313 13.8599 14.2858 13.757 14.1689L11.7477 11.8913C11.4772 11.5847 11.0384 11.5847 10.7677 11.8913C10.4969 12.1982 10.4969 12.6956 10.7677 13.0025L11.5939 13.9387H7.58418C7.20137 13.9387 6.89111 14.2904 6.89111 14.7243C6.89111 15.1582 7.20137 15.5099 7.58418 15.5099H11.5939L10.7677 16.4465Z" fill="#FF2233"/>
<path fill-rule="evenodd" clip-rule="evenodd" d="M41.0461 13.9387H37.0366L37.8626 13.0025C38.1333 12.6956 38.1333 12.1982 37.8626 11.8913C37.5919 11.5847 37.1533 11.5847 36.8826 11.8913L34.8732 14.1689C34.6899 14.3763 34.6117 14.72 34.71 14.9968C34.7476 15.1027 34.8026 15.1997 34.8732 15.2798L36.8826 17.5573C37.0179 17.7108 37.1952 17.7875 37.3726 17.7875C37.5499 17.7875 37.7272 17.7108 37.8626 17.5573C38.1333 17.2508 38.1333 16.7533 37.8626 16.4465L37.0363 15.5099H41.0461C41.4289 15.5099 41.7392 15.1582 41.7392 14.7243C41.7392 14.2904 41.4289 13.9387 41.0461 13.9387Z" fill="#FF2233"/>
<path fill-rule="evenodd" clip-rule="evenodd" d="M12.7033 39.697C12.7033 39.2643 12.3919 38.9114 12.0102 38.9114C11.6285 38.9114 11.3171 39.2643 11.3171 39.697C11.3171 40.1297 11.6285 40.4826 12.0102 40.4826C12.3919 40.4826 12.7033 40.1297 12.7033 39.697Z" fill="#FF2233"/>
</svg>
