<svg width="48" height="48" viewBox="0 0 48 48" fill="none" xmlns="http://www.w3.org/2000/svg">
<g clip-path="url(#clip0)">
<path d="M27.5085 44.9323C27.0815 44.7397 26.5962 44.9731 26.4249 45.4537C26.2818 45.8553 25.919 46.1251 25.5222 46.1251H22.4778C22.081 46.1251 21.7182 45.8553 21.5751 45.4537C21.4038 44.9731 20.9187 44.7401 20.4915 44.9323C20.0643 45.1251 19.8568 45.6708 20.0281 46.1513C20.4283 47.2745 21.3898 48.0001 22.4778 48.0001H25.5222C26.6102 48.0001 27.5717 47.2745 27.9718 46.1513C28.1432 45.6708 27.9357 45.1251 27.5085 44.9323Z" fill="#FF2233"/>
<path d="M39.9098 40.1027C39.639 38.7898 38.7786 37.6532 37.5487 36.9819C37.7724 36.8102 37.9822 36.6202 38.1737 36.4111C39.1181 35.3796 39.5364 34.016 39.3209 32.6702C38.9709 30.4836 37.981 28.4405 36.4581 26.7617C35.3179 25.5048 33.9164 24.4919 32.3479 23.7802C34.2674 21.8551 35.445 19.2685 35.445 16.428C35.4449 11.5123 31.92 7.35591 27.1216 6.07537C27.7752 5.34178 28.1318 4.42528 28.1318 3.45684C28.1319 1.55072 26.4823 0 24.4548 0C24.4547 0 24.4546 0 24.4545 0C23.6361 0 22.8695 0.250219 22.2962 0.704437C21.6626 1.20637 21.3137 1.91184 21.3136 2.69081C21.3136 3.2085 21.76 3.62831 22.3108 3.62831C22.8615 3.62831 23.308 3.20859 23.308 2.69081C23.308 2.46778 23.4 2.28187 23.5815 2.13806C23.7957 1.96837 24.1057 1.87491 24.4546 1.87491H24.4547C25.3825 1.87491 26.1374 2.58441 26.1374 3.45666C26.1374 4.04747 25.8927 4.60284 25.4484 5.02059C25.004 5.43825 24.4133 5.66831 23.7851 5.66831C23.785 5.66831 23.785 5.66831 23.7849 5.66831C23.7605 5.66831 23.7365 5.67009 23.7126 5.67178C17.5342 5.81578 12.5551 10.5855 12.555 16.4279C12.555 19.2684 13.7326 21.855 15.6521 23.7801C14.0837 24.4918 12.6822 25.5046 11.542 26.7616C10.0191 28.4404 9.02915 30.4835 8.67913 32.67C8.46372 34.0159 8.88186 35.3795 9.82633 36.411C10.0178 36.6202 10.2276 36.8102 10.4513 36.9818C9.22142 37.6531 8.36091 38.7897 8.09016 40.1026C7.81862 41.4188 8.16705 42.7794 9.0459 43.8353L11.1815 46.4008C12.0443 47.4373 13.3549 47.9947 14.6843 47.9947C15.439 47.9947 16.1999 47.815 16.8882 47.4414C18.789 46.4097 19.6035 44.1886 18.7829 42.275L17.4874 39.2536C17.4009 39.0517 17.2985 38.8582 17.1844 38.6722H24.4986C25.0494 38.6722 25.4958 38.2523 25.4958 37.7347C25.4958 37.217 25.0494 36.7972 24.4986 36.7972H15.2886V34.8208C15.2886 34.5663 15.5088 34.3593 15.7796 34.3593H32.2205C32.4912 34.3593 32.7115 34.5663 32.7115 34.8208V36.9268C31.722 37.4367 30.9409 38.2546 30.5125 39.2536L29.217 42.2749C28.3964 44.1886 29.2109 46.4097 31.1117 47.4414C31.8001 47.815 32.5607 47.9947 33.3156 47.9947C34.6449 47.9947 35.9557 47.4372 36.8185 46.4008L38.954 43.8353C39.833 42.7794 40.1814 41.4189 39.9098 40.1027ZM14.5494 16.428C14.5495 11.5291 18.7891 7.5435 24 7.54341C29.2109 7.5435 33.4505 11.5291 33.4506 16.428C33.4506 21.3269 29.2111 25.3125 24 25.3126C18.789 25.3125 14.5494 21.3269 14.5494 16.428ZM15.6379 39.9547L16.9334 42.9761C17.3846 44.0287 16.9364 45.2503 15.8911 45.8178C14.8458 46.3852 13.4962 46.1393 12.7522 45.2454L10.6166 42.68C10.0938 42.0519 9.88657 41.2427 10.0481 40.4597C10.2097 39.6767 10.7237 38.9989 11.4585 38.6001C12.1931 38.2012 13.0746 38.1218 13.8767 38.3816C14.6787 38.6416 15.3206 39.2151 15.6379 39.9547ZM32.2271 30.6094C31.6763 30.6094 31.2299 31.0292 31.2299 31.5469V32.4844H16.7767V31.5469C16.7767 31.0292 16.3302 30.6094 15.7795 30.6094C15.2287 30.6094 14.7822 31.0292 14.7822 31.5469V32.6813C13.907 33.0433 13.2941 33.8659 13.2941 34.8209V36.1447C12.5389 36.0738 11.8381 35.7342 11.3378 35.1878C10.7727 34.5705 10.5225 33.7545 10.6513 32.9491C11.2222 29.3816 13.7524 26.434 17.3044 25.1485C19.1884 26.4305 21.5017 27.1875 24 27.1875C26.4982 27.1875 28.8116 26.4305 30.6956 25.1485C34.2476 26.434 36.7777 29.3816 37.3487 32.9491C37.4775 33.7545 37.2273 34.5705 36.6621 35.1878C36.1619 35.7342 35.461 36.0738 34.7058 36.1447V34.8209C34.7058 33.8683 34.096 33.0475 33.2243 32.6842V31.5469C33.2243 31.0292 32.7779 30.6094 32.2271 30.6094ZM37.3834 42.6799L35.2479 45.2453C34.5039 46.1391 33.1545 46.3851 32.109 45.8177C31.0635 45.2502 30.6155 44.0286 31.0668 42.9758L32.3623 39.9545C32.6795 39.2148 33.3215 38.6414 34.1235 38.3814C34.4342 38.2808 34.7567 38.2311 35.078 38.2311C35.5863 38.2311 36.0915 38.3557 36.5417 38.6C37.2765 38.9988 37.7904 39.6766 37.9521 40.4596C38.1134 41.2426 37.9062 42.0518 37.3834 42.6799Z" fill="#FF2233"/>
<path d="M29.1649 37.0716C28.9794 36.8972 28.7221 36.7969 28.4599 36.7969C28.1976 36.7969 27.9403 36.8971 27.7548 37.0716C27.5693 37.246 27.4626 37.4878 27.4626 37.7344C27.4626 37.9819 27.5693 38.2228 27.7548 38.3971C27.9403 38.5724 28.1976 38.6719 28.4599 38.6719C28.7221 38.6719 28.9794 38.5724 29.1649 38.3971C29.3504 38.2228 29.4571 37.9809 29.4571 37.7344C29.4571 37.4878 29.3504 37.2459 29.1649 37.0716Z" fill="#FF2233"/>
<path d="M26.7497 19.6296C26.3219 19.3035 25.6939 19.3655 25.3471 19.7676C25.0157 20.152 24.5248 20.3724 24.0003 20.3724C23.4759 20.3724 22.9848 20.1519 22.6536 19.7676C22.3068 19.3653 21.6789 19.3037 21.251 19.6296C20.8231 19.9556 20.7573 20.5459 21.1042 20.9482C21.816 21.7738 22.8717 22.2473 24.0003 22.2473C25.129 22.2473 26.1847 21.7738 26.8964 20.9482C27.2433 20.5459 27.1776 19.9556 26.7497 19.6296Z" fill="#FF2233"/>
<path d="M21.4801 15.765C20.5755 14.9146 19.1036 14.9146 18.1988 15.765C17.8094 16.1311 17.8093 16.7246 18.1988 17.0908C18.5883 17.457 19.2197 17.457 19.6091 17.0909C19.7361 16.9716 19.9428 16.9716 20.0698 17.0909C20.2646 17.2739 20.5198 17.3655 20.775 17.3655C21.0302 17.3655 21.2854 17.2739 21.4801 17.0909C21.8695 16.7248 21.8695 16.1312 21.4801 15.765Z" fill="#FF2233"/>
<path d="M29.8011 15.7649C28.8964 14.9146 27.4244 14.9146 26.5198 15.7649C26.1304 16.131 26.1304 16.7246 26.5198 17.0908C26.7145 17.2739 26.9698 17.3654 27.225 17.3654C27.4802 17.3654 27.7355 17.2738 27.9301 17.0908C28.0571 16.9716 28.2638 16.9714 28.3908 17.0908C28.7803 17.457 29.4117 17.4569 29.8011 17.0907C30.1905 16.7246 30.1905 16.1311 29.8011 15.7649Z" fill="#FF2233"/>
</g>
<defs>
<clipPath id="clip0">
<path d="M0 0H48V48H0V0Z" fill="white"/>
</clipPath>
</defs>
</svg>
