<svg width="48" height="48" viewBox="0 0 48 48" fill="none" xmlns="http://www.w3.org/2000/svg">
<path d="M39.521 15.3507C39.1494 15.0636 38.7105 14.9018 38.2442 14.8792C38.2071 14.8747 38.1692 14.8724 38.1309 14.8724H29.6039L35.9254 3.37406C36.2181 2.84118 36.2857 2.22618 36.1157 1.6424C35.9459 1.05862 35.5589 0.575999 35.0258 0.283312C34.716 0.11325 34.3691 0.0173437 34.016 0.00384374C33.9877 0.0013125 33.9593 0 33.9304 0H18.8469C17.8643 0 17.0011 0.62128 16.688 1.5495L7.7536 24.2699C7.53225 24.8361 7.54472 25.4546 7.78866 26.0114C8.03259 26.5683 8.47884 26.9969 9.04462 27.2179C9.28359 27.3115 9.53315 27.3634 9.78862 27.3729C9.81656 27.3754 9.84478 27.3766 9.87328 27.3766H18.4866L13.7826 45.1454C13.4634 46.3587 14.1907 47.6056 15.404 47.9248C15.5936 47.9747 15.7888 48 15.9839 48C16.7122 48 17.3992 47.6485 17.8263 47.0588L39.9309 18.5409C40.6974 17.5485 40.5134 16.1175 39.521 15.3507ZM38.4479 17.3936L16.3337 45.9239C16.3255 45.9344 16.3175 45.9452 16.3099 45.9561C16.2161 46.0883 16.0421 46.154 15.8812 46.1116C15.6678 46.0554 15.5398 45.8361 15.5956 45.6239L20.611 26.6791C20.6854 26.3979 20.6251 26.098 20.4476 25.8674C20.2701 25.6367 19.9956 25.5017 19.7047 25.5017H9.93731C9.86765 25.497 9.79584 25.4985 9.7274 25.4717C9.59278 25.4191 9.531 25.316 9.50615 25.2592C9.48122 25.2024 9.44737 25.087 9.49922 24.9542L18.4426 2.21128C18.4499 2.19262 18.4566 2.17387 18.4627 2.15484C18.5075 2.01562 18.6436 1.87509 18.8469 1.87509H33.8669C33.8883 1.87659 33.9098 1.87734 33.9315 1.87734C33.9988 1.87734 34.0634 1.89412 34.1234 1.92703C34.2501 1.99659 34.298 2.10693 34.3155 2.16656C34.3328 2.22609 34.3514 2.34496 34.2822 2.47125L27.1971 15.3584C27.0375 15.6488 27.0429 16.002 27.2117 16.2873C27.3804 16.5725 27.6872 16.7476 28.0186 16.7476H38.0443C38.073 16.7502 38.1022 16.7516 38.1316 16.7516C38.1934 16.7516 38.2858 16.766 38.3748 16.8347C38.5492 16.9693 38.5815 17.2207 38.4479 17.3936Z" fill="#FF2233"/>
<path d="M23.0808 3.28125H20.1714C19.6536 3.28125 19.2339 3.70097 19.2339 4.21875C19.2339 4.73653 19.6536 5.15625 20.1714 5.15625H23.0808C23.5986 5.15625 24.0183 4.73653 24.0183 4.21875C24.0183 3.70097 23.5986 3.28125 23.0808 3.28125Z" fill="#FF2233"/>
<path d="M25.7996 3.28125H25.7744C25.2567 3.28125 24.8369 3.70097 24.8369 4.21875C24.8369 4.73653 25.2567 5.15625 25.7744 5.15625H25.7996C26.3174 5.15625 26.7371 4.73653 26.7371 4.21875C26.7371 3.70097 26.3174 3.28125 25.7996 3.28125Z" fill="#FF2233"/>
</svg>
