<svg width="40" height="40" viewBox="0 0 40 40" fill="none" xmlns="http://www.w3.org/2000/svg">
<path d="M31.6667 34.1667H8.33335C7.41669 34.1667 6.66669 33.4167 6.66669 32.5V15.8333H33.3334V32.5C33.3334 33.4167 32.5834 34.1667 31.6667 34.1667Z" fill="#37C277"/>
<path d="M35 15.8333H5V10.8333C5 9.91667 5.75 9.16667 6.66667 9.16667H33.3333C34.25 9.16667 35 9.91667 35 10.8333V15.8333Z" fill="#32B36D"/>
<path d="M18.3333 15.8333H21.6666V34.1667H18.3333V15.8333ZM26.6666 4.16667H23.3333L18.3333 9.16667H21.6666L26.6666 4.16667Z" fill="#4A4C4D"/>
<path d="M16.6666 4.16667H13.3333L18.3333 9.16667V15.8333H21.6666V9.16667L16.6666 4.16667Z" fill="#4A4C4D"/>
</svg>
