<svg width="421" height="447" viewBox="0 0 421 447" fill="none" xmlns="http://www.w3.org/2000/svg">
<path d="M374.096 247.562C374.096 247.562 350.005 268.016 324.435 279.602C298.866 291.188 239.991 297.759 219.691 298.24H205.728C205.728 298.24 200.591 298.24 194.268 297.576V281.675C208.694 283.53 291.069 279.602 328.088 261.918C365.107 244.234 374.096 234.884 374.096 234.884L383.759 232.777L374.096 226.844L387.312 219.725L372.516 216.165L381.389 207.859L372.516 202.988C372.516 202.988 378.835 184.818 363.62 150.906C348.405 116.993 320.648 42.0889 320.648 42.0889C317.86 30.2117 317.612 7.20763 303.007 2.58824C299.256 1.40168 293.728 1.40171 287.805 8.52094C286.418 10.1878 284.638 13.6649 282.724 18.0133C278.307 28.0495 273.181 42.7265 270.545 50.4987C269.384 53.9237 267.145 56.8724 264.139 58.8769C261.499 60.6368 258.399 61.5759 255.228 61.5759H228.336C224.115 61.5759 219.953 60.5728 216.194 58.6491C212.51 56.7638 209.313 54.0465 206.858 50.7116L183.642 20.3354C180.68 15.5892 167.461 2.20042 163.104 9.53952C155.848 21.7626 164.605 34.6249 161.356 61.1718C161.356 64.7312 162.163 68.2416 163.801 71.4005C166.84 77.263 170.045 83.5717 170.045 90.0163C170.045 93.9517 168.376 101.203 167.675 105.29C166.974 109.377 159.381 120.031 158.682 124.802C157.982 129.573 158.197 145.798 158.197 149.267C162.726 141.409 172.334 139.023 178.207 132.677C167.545 130.304 162.236 124.802 162.236 124.802C162.236 124.802 171.888 118.365 175.047 117.93C178.207 117.496 182.334 117.772 182.946 121.88C183.559 125.988 180.005 130.734 178.207 132.677C172.334 139.023 162.726 141.409 158.197 149.267L151.574 161.268C164.017 151.704 202.479 156.419 195.979 172.842C191.321 184.613 173.765 178.712 170.528 190.061C174.41 197.091 178.886 203.405 186.176 206.906C191.697 209.557 196.544 210.003 202.424 208.574C211.435 206.386 217.164 205.451 226.491 206.066C238.637 206.866 248.874 196.261 260.091 192.718C243.241 210.603 225.95 226.298 206.057 240.895C201.703 244.09 195.377 246.489 188.72 247.648C183.734 253.192 178.357 256.511 170.986 255.321C163.311 254.082 161.552 248.269 162.981 241.06C162.981 228.031 169.158 217.021 173.347 211.543C177.536 206.066 181.531 204.043 181.531 204.043L165.789 199.554C160.13 206.243 153.732 205.054 150.389 198.367C148.411 194.409 148.528 190.415 148.747 185.994C148.879 183.319 149.102 178.948 149.205 177.009C146.494 174.085 147.171 169.749 148.02 166.331C148.515 164.338 149.772 162.653 151.574 161.268L158.197 149.267C158.197 145.798 157.982 129.573 158.682 124.802C159.381 120.031 166.974 109.377 167.675 105.29C168.376 101.203 170.045 93.9517 170.045 90.0163C170.045 83.5717 166.84 77.263 163.801 71.4005C162.163 68.2416 161.356 64.7312 161.356 61.1718C164.605 34.6249 155.848 21.7626 163.104 9.53952C167.461 2.20042 180.68 15.5892 183.642 20.3354L206.858 50.7116C209.313 54.0465 212.51 56.7638 216.194 58.6491C219.953 60.5728 224.115 61.5759 228.336 61.5759H255.228C258.399 61.5759 261.499 60.6368 264.139 58.8769C267.145 56.8724 269.384 53.9237 270.545 50.4987C273.181 42.7265 278.307 28.0495 282.724 18.0133C284.638 13.6649 286.418 10.1878 287.805 8.52094C293.728 1.40171 299.256 1.40168 303.007 2.58824C317.612 7.20763 317.86 30.2117 320.648 42.0889C320.648 42.0889 348.405 116.993 363.62 150.906C378.835 184.818 372.516 202.988 372.516 202.988L381.389 207.859L372.516 216.165L387.312 219.725L374.096 226.844L383.759 232.777L374.096 234.884V247.562Z" fill="white"/>
<path d="M250.16 122.831L260.091 124.777V127.37C260.091 130.519 258.026 133.293 255.013 134.193L245.878 136.92C243.722 137.564 241.388 137.147 239.587 135.796L228.759 127.674C236.591 119.84 239.475 120.732 250.16 122.831Z" fill="white"/>
<path d="M226.743 324.732C226.743 333.351 220.39 340.338 212.553 340.338C204.716 340.338 198.363 333.351 198.363 324.732C198.363 318.833 201.338 313.699 205.728 311.046C207.753 309.821 210.079 309.125 212.553 309.125C215.027 309.125 217.354 309.821 219.379 311.046C223.769 313.699 226.743 318.833 226.743 324.732Z" fill="white"/>
<path fill-rule="evenodd" clip-rule="evenodd" d="M328.088 261.918C365.107 244.234 374.096 234.884 374.096 234.884L383.759 232.777L374.096 226.844L387.312 219.725L372.516 216.165L381.389 207.859L372.516 202.988C372.516 202.988 378.835 184.818 363.62 150.906C348.405 116.993 320.648 42.0889 320.648 42.0889C317.86 30.2117 317.612 7.20763 303.007 2.58824C299.256 1.40168 293.728 1.40171 287.805 8.52094C286.418 10.1878 284.638 13.6649 282.724 18.0133C278.307 28.0495 273.181 42.7265 270.545 50.4987C269.384 53.9237 267.145 56.8724 264.139 58.8769C261.499 60.6368 258.399 61.5759 255.228 61.5759H228.336C224.115 61.5759 219.953 60.5728 216.194 58.6491C212.51 56.7638 209.313 54.0465 206.858 50.7116L183.642 20.3354C180.68 15.5892 167.461 2.20042 163.104 9.53952C155.848 21.7626 164.605 34.6249 161.356 61.1718C161.356 64.7312 162.163 68.2416 163.801 71.4005C166.84 77.263 170.045 83.5717 170.045 90.0163C170.045 93.9517 168.376 101.203 167.675 105.29C166.974 109.377 159.381 120.031 158.682 124.802C157.982 129.573 158.197 145.798 158.197 149.267C162.726 141.409 172.334 139.023 178.207 132.677C167.545 130.304 162.236 124.802 162.236 124.802C162.236 124.802 171.888 118.365 175.047 117.93C178.207 117.496 182.334 117.772 182.946 121.88C183.559 125.988 180.005 130.734 178.207 132.677C172.334 139.023 162.726 141.409 158.197 149.267L151.574 161.268C164.017 151.704 202.479 156.419 195.979 172.842C191.321 184.613 173.765 178.712 170.528 190.061C174.41 197.091 178.886 203.405 186.176 206.906C191.697 209.557 196.544 210.003 202.424 208.574C211.435 206.386 217.164 205.451 226.491 206.066C238.637 206.866 248.874 196.261 260.091 192.718C243.241 210.603 225.95 226.298 206.057 240.895C201.703 244.09 195.377 246.489 188.72 247.648C186.872 249.703 184.971 251.452 182.934 252.779C185.32 260.029 186.222 267.42 186.405 269.579C186.442 270.013 186.462 270.448 186.358 270.871C185.913 272.682 184.086 276.159 184.086 276.159L188.824 278.532L186.455 284.465L194.268 281.675C208.694 283.53 291.069 279.602 328.088 261.918ZM250.16 122.831L260.091 124.777V127.37C260.091 130.519 258.026 133.293 255.013 134.193L245.878 136.92C243.722 137.564 241.388 137.147 239.587 135.796L228.759 127.674C236.591 119.84 239.475 120.732 250.16 122.831Z" fill="white"/>
<path d="M374.096 247.562C374.096 247.562 350.005 268.016 324.435 279.602C298.866 291.188 239.991 297.759 219.691 298.24M374.096 247.562V234.884M374.096 247.562L383.759 249.316L378.009 256.366H390.983L384.869 268.041L420.602 311.679M374.096 234.884C374.096 234.884 365.107 244.234 328.088 261.918C291.069 279.602 208.694 283.53 194.268 281.675M374.096 234.884L383.759 232.777L374.096 226.844L387.312 219.725L372.516 216.165L381.389 207.859L372.516 202.988C372.516 202.988 378.835 184.818 363.62 150.906C348.405 116.993 320.648 42.0889 320.648 42.0889M194.268 297.576L186.358 304.689L193.773 310.356L188.364 316.833C185.112 328.671 182.395 357.843 181.103 366.42M194.268 297.576C200.591 298.24 205.728 298.24 205.728 298.24M194.268 297.576V281.675M194.268 281.675L186.455 284.465L188.824 278.532L184.086 276.159C184.086 276.159 185.913 272.682 186.358 270.871C186.462 270.448 186.442 270.013 186.405 269.579C186.222 267.42 185.32 260.029 182.934 252.779C184.971 251.452 186.872 249.703 188.72 247.648M165.789 199.554L181.531 204.043C181.531 204.043 177.536 206.066 173.347 211.543C169.158 217.021 162.981 228.031 162.981 241.06M165.789 199.554C167.457 197.036 170.528 190.061 170.528 190.061M165.789 199.554C160.13 206.243 153.732 205.054 150.389 198.367C148.411 194.409 148.528 190.415 148.747 185.994C148.879 183.319 149.102 178.948 149.205 177.009M178.207 132.677C180.005 130.734 183.559 125.988 182.946 121.88C182.334 117.772 178.207 117.496 175.047 117.93C171.888 118.365 162.236 124.802 162.236 124.802C162.236 124.802 167.545 130.304 178.207 132.677ZM178.207 132.677C172.334 139.023 162.726 141.409 158.197 149.267M183.642 20.3354L206.858 50.7116C209.313 54.0465 212.51 56.7638 216.194 58.6491C219.953 60.5728 224.115 61.5759 228.336 61.5759H255.228C258.399 61.5759 261.499 60.6368 264.139 58.8769C267.145 56.8724 269.384 53.9237 270.545 50.4987C273.181 42.7265 278.307 28.0495 282.724 18.0133M183.642 20.3354C189.565 29.8277 202.22 54.5512 200.143 65.4749C199.042 71.2683 178.207 84.4595 178.207 84.4595M183.642 20.3354C180.68 15.5892 167.461 2.20042 163.104 9.53952C155.848 21.7626 164.605 34.6249 161.356 61.1718C161.356 64.7312 162.163 68.2416 163.801 71.4005C166.84 77.263 170.045 83.5717 170.045 90.0163C170.045 93.9517 168.376 101.203 167.675 105.29C166.974 109.377 159.381 120.031 158.682 124.802C157.982 129.573 158.197 145.798 158.197 149.267M324.528 114.507C336.182 114.507 336.182 104.103 335.189 99.8845C330.638 80.5402 326.456 61.1103 320.648 42.0889M274.045 127.674L260.091 124.777M260.091 124.777L250.16 122.831C239.475 120.732 236.591 119.84 228.759 127.674L239.587 135.796C241.388 137.147 243.722 137.564 245.878 136.92L255.013 134.193C258.026 133.293 260.091 130.519 260.091 127.37V124.777ZM253.508 114.507L240.71 109.277C239.004 108.58 237.095 108.573 235.385 109.258L232.128 110.563M170.045 112.4C170.045 112.4 176.409 104.763 178.207 105.29C180.005 105.817 182.374 110.563 182.374 110.563M170.528 190.061C174.41 197.091 178.886 203.405 186.176 206.906M170.528 190.061C164.605 182.942 153.854 182.024 149.205 177.009M170.528 190.061C173.765 178.712 191.321 184.613 195.979 172.842C202.479 156.419 164.017 151.704 151.574 161.268M261.743 229.217C260.405 228.949 257.987 229.426 255.046 230.325C236.873 235.88 221.111 248.318 202.424 251.761C198.949 252.402 191.169 252.675 184.086 252.573M289.843 85.8029C289.843 85.8029 279.311 77.3402 276.415 71.3194C269.796 57.5604 278.25 31.2446 282.724 18.0133M158.197 149.267L151.574 161.268M202.424 208.574C198.433 211.443 186.176 218.538 180.005 232.777M202.424 208.574C211.435 206.386 217.164 205.451 226.491 206.066M202.424 208.574C196.544 210.003 191.697 209.557 186.176 206.906M282.724 18.0133C284.638 13.6649 286.418 10.1878 287.805 8.52094C293.728 1.40171 299.256 1.40168 303.007 2.58824C317.612 7.20763 317.86 30.2117 320.648 42.0889M149.205 177.009C146.494 174.085 147.171 169.749 148.02 166.331C148.515 164.338 149.772 162.653 151.574 161.268M186.176 206.906C178.923 209.952 165.599 227.851 162.981 241.06M226.491 206.066C207.02 216.738 198.647 236.607 188.72 247.648M226.491 206.066C238.637 206.866 248.874 196.261 260.091 192.718C243.241 210.603 225.95 226.298 206.057 240.895C201.703 244.09 195.377 246.489 188.72 247.648M162.981 241.06C161.552 248.269 163.311 254.082 170.986 255.321C178.357 256.511 183.734 253.192 188.72 247.648M205.728 298.24V311.046M205.728 298.24H219.691M205.728 311.046C201.338 313.699 198.363 318.833 198.363 324.732C198.363 333.351 204.716 340.338 212.553 340.338C220.39 340.338 226.743 333.351 226.743 324.732C226.743 318.833 223.769 313.699 219.379 311.046M205.728 311.046C207.753 309.821 210.079 309.125 212.553 309.125C215.027 309.125 217.354 309.821 219.379 311.046M219.691 298.24L219.379 311.046" stroke="black" stroke-linecap="round" stroke-linejoin="round"/>
<path d="M248.946 420.35C248.946 420.35 246.932 425.706 243.506 426.402C240.081 427.098 236.494 423.435 236.494 423.435L235.661 411.044C235.661 411.044 236.748 426.427 236.748 428.292C236.748 430.157 235.094 433.289 233.132 434.794C231.17 436.298 228.69 437.157 226.083 437.615C223.477 438.074 221.437 436.509 219.352 434.794C217.267 433.078 216.923 426.402 216.923 426.402C216.923 426.402 216.443 430.796 215.847 432.735C214.642 436.659 208.508 439.629 204.779 439.092C200.157 438.425 195.862 433.249 194.903 428.814C194.146 425.31 194.903 422.745 194.903 422.745C194.903 422.745 190.732 422.812 189.04 421.73C187.348 420.647 185.376 413.004 185.624 409.46C185.871 405.915 192.377 389.659 193.279 382.029C194.181 374.399 204.727 360.025 211.028 342.477C213.921 334.42 219.293 328.36 223.46 324.589C230.358 318.345 240.827 321.867 248.946 323.122C265.855 327.98 277.04 349.303 293.08 366.421H259.657C258.298 382.262 251.991 399.148 248.946 420.35Z" fill="white"/>
<path d="M107.971 303.189C115.246 304.246 125.574 310.384 135.191 316.671C145.337 323.304 153 330.1 158.581 340.87L171.823 366.421H101.86C98.446 370.34 98.5094 378.028 94.0058 380.378C89.5021 382.729 88.3835 381.172 86.8496 379.889L83.5085 384.321C80.7526 387.976 77.4068 391.099 73.8508 393.979C71.6246 395.783 69.6232 397.805 67.8231 400.948C66.4661 403.317 65.1238 405.716 63.5298 407.917C61.9233 410.135 59.7989 411.952 57.2597 412.973C54.8522 413.941 51.3295 414.888 46.9394 414.751C42.5348 414.613 42.9857 408.194 44.4942 401.915C42.7667 406.149 40.5473 410.372 38.0018 412.464C31.8491 417.519 17.1795 413.61 17.1795 413.61C14.2914 413.191 13.2098 410.575 13.1569 407.076C12.9211 406.895 12.6736 406.635 12.414 406.287C7.53554 399.742 10.6599 394.626 11.6004 388.131C12.3528 382.935 19.4456 376.627 22.8979 374.122C26.7284 368.092 37.0326 354.054 47.6054 346.147C60.8213 336.263 58.6193 329.441 72.5777 319.002C86.5361 308.563 100.968 302.171 107.971 303.189Z" fill="white"/>
<path d="M217.445 412.778L216.923 426.402M194.903 422.745C194.903 422.745 194.146 425.31 194.903 428.814C195.862 433.249 200.157 438.425 204.779 439.092C208.508 439.629 214.642 436.659 215.847 432.735C216.443 430.796 216.923 426.402 216.923 426.402M194.903 422.745L197.19 411.044M194.903 422.745C194.903 422.745 190.732 422.812 189.04 421.73C187.348 420.647 185.376 413.004 185.624 409.46C185.871 405.915 192.377 389.659 193.279 382.029C194.181 374.399 204.727 360.025 211.028 342.477C213.921 334.42 219.293 328.36 223.46 324.589C230.358 318.345 240.827 321.867 248.946 323.122C265.855 327.98 277.04 349.303 293.08 366.421H259.657M216.923 426.402C216.923 426.402 217.267 433.078 219.352 434.794C221.437 436.509 223.477 438.074 226.083 437.615C228.69 437.157 231.17 436.298 233.132 434.794C235.094 433.289 236.748 430.157 236.748 428.292C236.748 426.427 235.661 411.044 235.661 411.044L236.494 423.435C236.494 423.435 240.081 427.098 243.506 426.402C246.932 425.706 248.946 420.35 248.946 420.35C251.991 399.148 258.298 382.262 259.657 366.421M260.392 358.782L259.657 366.421M13.1569 407.076C12.9211 406.895 12.6736 406.635 12.414 406.287C7.53554 399.742 10.6599 394.626 11.6004 388.131C12.3528 382.935 19.4456 376.627 22.8979 374.122C26.7284 368.092 37.0326 354.054 47.6054 346.147C60.8213 336.263 58.6193 329.441 72.5777 319.002C86.5361 308.563 100.968 302.171 107.971 303.189C115.246 304.246 125.574 310.384 135.191 316.671C145.337 323.304 153 330.1 158.581 340.87L171.823 366.421H101.86M13.1569 407.076C13.073 401.526 17.1795 388.131 21.9946 384.124M13.1569 407.076C13.2098 410.575 14.2914 413.191 17.1795 413.61C17.1795 413.61 31.8491 417.519 38.0018 412.464C40.5473 410.372 42.7667 406.149 44.4942 401.915M107.971 351.734C107.044 358.13 106.17 361.475 101.86 366.421M101.86 366.421C98.446 370.34 98.5094 378.028 94.0058 380.378C89.5021 382.729 88.3835 381.172 86.8496 379.889M86.8496 379.889L83.5085 384.321C80.7526 387.976 77.4068 391.099 73.8508 393.979C71.6246 395.783 69.6232 397.805 67.8231 400.948C66.4661 403.317 65.1238 405.716 63.5298 407.917C61.9233 410.135 59.7989 411.952 57.2597 412.973C54.8522 413.941 51.3295 414.888 46.9394 414.751C42.5348 414.613 42.9857 408.194 44.4942 401.915M86.8496 379.889C84.1991 377.194 82.2075 375.041 82.2075 368.434M44.4942 401.915C45.9534 395.84 48.4023 389.897 48.4023 389.897C48.4023 389.897 46.9422 395.916 44.4942 401.915Z" stroke="black" stroke-linecap="round" stroke-linejoin="round"/>
<path d="M110.307 233.325C107.905 234.155 46.9033 262.489 18.0688 279.186M88.6176 207.997L36.105 211.5M98.5352 177.478L45.6 162.229M114.257 146.987L20.0448 92.4967" stroke="black" stroke-linecap="round" stroke-linejoin="round"/>
</svg>
