<svg width="24" height="24" viewBox="0 0 24 24" fill="none" xmlns="http://www.w3.org/2000/svg">
<mask id="mask0" mask-type="alpha" maskUnits="userSpaceOnUse" x="0" y="0" width="24" height="24">
<path d="M0 0H24V24H0V0Z" fill="#9EA7A9"/>
</mask>
<g mask="url(#mask0)">
<path fill-rule="evenodd" clip-rule="evenodd" d="M8.93013 2H15.0699C20.6733 2 22 3.32675 22 8.93013V15.0699C22 20.6733 20.6733 22 15.0699 22H8.93013C3.32675 22 2 20.6733 2 15.0699V8.93013C2 3.32675 3.32675 2 8.93013 2Z" fill="#9EA7A9"/>
<path fill-rule="evenodd" clip-rule="evenodd" d="M18.3725 8.88786C18.4713 8.57734 18.3725 8.35152 17.935 8.35152H16.4812C16.1142 8.35152 15.9449 8.54912 15.8461 8.76083C15.8461 8.76083 15.098 10.5675 14.0536 11.739C13.7148 12.0777 13.5596 12.1906 13.3761 12.1906C13.2773 12.1906 13.1502 12.0777 13.1502 11.7672V8.87375C13.1502 8.50677 13.0373 8.3374 12.7268 8.3374H10.4403C10.2145 8.3374 10.0733 8.50677 10.0733 8.67615C10.0733 9.029 10.5955 9.11369 10.652 10.1017V12.2471C10.652 12.7128 10.5673 12.7975 10.3838 12.7975C9.88983 12.7975 8.69011 10.9768 7.97028 8.90198C7.82914 8.49266 7.68799 8.3374 7.32102 8.3374H5.85313C5.4297 8.3374 5.35913 8.535 5.35913 8.74672C5.35913 9.1278 5.85313 11.0474 7.65977 13.5879C8.85948 15.324 10.5673 16.2555 12.1058 16.2555C13.0373 16.2555 13.1502 16.0438 13.1502 15.691V14.3783C13.1502 13.9549 13.2349 13.8843 13.5313 13.8843C13.743 13.8843 14.1241 13.9972 14.9851 14.83C15.9731 15.818 16.1425 16.2697 16.6929 16.2697H18.1467C18.5701 16.2697 18.7677 16.0579 18.6548 15.6486C18.5278 15.2393 18.0479 14.6465 17.4269 13.9408C17.0881 13.5456 16.58 13.108 16.4248 12.8963C16.213 12.614 16.2695 12.5011 16.4248 12.2471C16.4106 12.2471 18.1891 9.73472 18.3725 8.88786Z" fill="white"/>
</g>
</svg>
