<svg width="102" height="33" viewBox="0 0 102 33" fill="none" xmlns="http://www.w3.org/2000/svg">
<path fill-rule="evenodd" clip-rule="evenodd" d="M0.000448736 21.7226C-0.00868593 22.0589 0.12195 22.385 0.3641 22.6306C0.60625 22.8761 0.940446 23.0212 1.2944 23.0346H1.34832C1.52704 23.0346 1.70397 23.0009 1.86884 22.9353C2.0337 22.8698 2.18319 22.7738 2.30862 22.6529C2.43405 22.532 2.53291 22.3886 2.59945 22.2311C2.66598 22.0736 2.69886 21.9051 2.69618 21.7354V13.4664C2.69618 10.1384 4.81908 8.50633 7.38002 8.50633C10.0084 8.50633 12.0976 10.1704 12.0976 13.4664V21.7226C12.0884 22.0589 12.2191 22.385 12.4612 22.6306C12.7034 22.8761 13.0376 23.0212 13.3915 23.0346H13.432C13.6107 23.0346 13.7876 23.0009 13.9525 22.9353C14.1173 22.8698 14.2668 22.7738 14.3923 22.6529C14.5177 22.532 14.6165 22.3886 14.6831 22.2311C14.7496 22.0736 14.7825 21.9051 14.7798 21.7354V13.5304C14.7798 8.89033 11.646 6.13828 7.70351 6.13828C6.76936 6.12769 5.84288 6.29947 4.98153 6.64297C4.12018 6.98646 3.34231 7.49434 2.69618 8.13512V7.49511C2.69618 7.15563 2.55418 6.83005 2.3014 6.59C2.04863 6.34995 1.70579 6.21509 1.34832 6.21509C0.996602 6.21498 0.658776 6.34544 0.406948 6.57861C0.155121 6.81178 0.00924158 7.1292 0.000448736 7.46311V21.7354V21.7226ZM26.4018 23.0986C31.4563 23.0986 35.264 19.3545 35.264 14.6184C35.264 9.88235 31.4563 6.13828 26.4018 6.13828C25.2292 6.13828 24.068 6.35763 22.9846 6.7838C21.9012 7.20996 20.9168 7.83461 20.0876 8.62206C19.2584 9.40952 18.6007 10.3444 18.1519 11.3732C17.7032 12.4021 17.4722 13.5048 17.4722 14.6184C17.4722 15.7321 17.7032 16.8348 18.1519 17.8636C18.6007 18.8925 19.2584 19.8274 20.0876 20.6148C20.9168 21.4023 21.9012 22.0269 22.9846 22.4531C24.068 22.8792 25.2292 23.0986 26.4018 23.0986ZM26.4018 20.7305C22.931 20.7305 20.2353 17.9785 20.2353 14.6184C20.2353 11.2584 22.931 8.50633 26.4018 8.50633C29.8726 8.50633 32.5346 11.2264 32.5346 14.6184C32.5346 18.0105 29.8726 20.7305 26.4018 20.7305ZM46.2188 23.0986C51.2733 23.0986 55.0811 19.3545 55.0811 14.6184C55.0811 9.88235 51.2733 6.13828 46.2188 6.13828C45.0462 6.13828 43.885 6.35763 42.8016 6.7838C41.7182 7.20996 40.7338 7.83461 39.9046 8.62206C39.0754 9.40952 38.4177 10.3444 37.9689 11.3732C37.5202 12.4021 37.2892 13.5048 37.2892 14.6184C37.2892 15.7321 37.5202 16.8348 37.9689 17.8636C38.4177 18.8925 39.0754 19.8274 39.9046 20.6148C40.7338 21.4023 41.7182 22.0269 42.8016 22.4531C43.885 22.8792 45.0462 23.0986 46.2188 23.0986ZM46.2188 20.7305C42.7481 20.7305 40.0523 17.9785 40.0523 14.6184C40.0523 11.2584 42.7481 8.50633 46.2188 8.50633C49.6896 8.50633 52.3516 11.2264 52.3516 14.6184C52.3516 18.0105 49.6896 20.7305 46.2188 20.7305ZM60.4894 21.7226C60.4802 22.0589 60.6109 22.385 60.853 22.6306C61.0952 22.8761 61.4294 23.0212 61.7833 23.0346H61.8372C62.016 23.0346 62.1929 23.0009 62.3578 22.9353C62.5226 22.8698 62.6721 22.7738 62.7976 22.6529C62.923 22.532 63.0218 22.3886 63.0884 22.2311C63.1549 22.0736 63.1878 21.9051 63.1851 21.7354V8.82633H67.0602C67.2235 8.82675 67.3853 8.79663 67.5363 8.73767C67.6874 8.67872 67.8247 8.59209 67.9404 8.48274C68.0562 8.37339 68.1482 8.24345 68.2111 8.10035C68.274 7.95725 68.3066 7.80378 68.307 7.64871C68.3124 7.34086 68.1893 7.04349 67.9645 6.82161C67.7397 6.59974 67.4315 6.47141 67.1074 6.46469H56.5806C56.4173 6.46427 56.2555 6.4944 56.1045 6.55335C55.9534 6.6123 55.8161 6.69893 55.7004 6.80828C55.5846 6.91763 55.4926 7.04757 55.4297 7.19067C55.3668 7.33378 55.3342 7.48724 55.3338 7.64231C55.339 7.95479 55.472 8.25308 55.7047 8.47407C55.9374 8.69505 56.2515 8.82138 56.5806 8.82633H60.4894V21.7226ZM70.221 21.7226C70.2119 22.0589 70.3425 22.385 70.5846 22.6306C70.8268 22.8761 71.161 23.0212 71.5149 23.0346H71.5689C71.7476 23.0346 71.9245 23.0009 72.0894 22.9353C72.2542 22.8698 72.4037 22.7738 72.5292 22.6529C72.6546 22.532 72.7534 22.3886 72.82 22.2311C72.8865 22.0736 72.9194 21.9051 72.9167 21.7354V8.82633H76.0842C77.9712 8.82633 79.1506 10.0744 79.1506 11.6104C79.1506 13.1464 77.9375 14.3944 76.1179 14.3944H75.7135C75.5438 14.3944 75.3757 14.4262 75.2189 14.488C75.0621 14.5498 74.9197 14.6404 74.7998 14.7545C74.6799 14.8687 74.5849 15.0042 74.5202 15.1532C74.4556 15.3023 74.4225 15.462 74.423 15.6233C74.4214 15.6296 74.4214 15.6361 74.423 15.6425C74.4186 15.9698 74.5382 16.2878 74.7599 16.5385L80.1177 22.5546C80.2341 22.7049 80.3865 22.8269 80.5622 22.9103C80.738 22.9938 80.9321 23.0364 81.1286 23.0346C81.3855 23.0362 81.6376 22.9681 81.8551 22.8382C82.0726 22.7083 82.2464 22.5221 82.3562 22.3015C82.466 22.0809 82.5071 21.8351 82.4747 21.5931C82.4422 21.351 82.3376 21.1228 82.1732 20.9353L78.197 16.4873C78.3835 16.4419 78.5642 16.3775 78.7361 16.2953C79.8486 15.7796 80.743 14.9196 81.272 13.8568C81.8011 12.794 81.9334 11.5918 81.647 10.4481C81.3606 9.30443 80.6727 8.28743 79.6965 7.56456C78.7204 6.84169 77.5141 6.45604 76.2763 6.47109H71.5587C71.3866 6.4664 71.2151 6.49398 71.0542 6.55224C70.8933 6.6105 70.746 6.69831 70.6209 6.81065C70.4957 6.92299 70.3951 7.05765 70.3247 7.20694C70.2544 7.35623 70.2157 7.51722 70.2109 7.68071C70.2075 7.70407 70.2075 7.72776 70.2109 7.75111L70.221 21.7226ZM85.1048 21.7226C85.0957 22.0589 85.2263 22.385 85.4685 22.6306C85.7106 22.8761 86.0448 23.0212 86.3988 23.0346H86.4527C86.6314 23.0346 86.8083 23.0009 86.9732 22.9353C87.1381 22.8698 87.2876 22.7738 87.413 22.6529C87.5384 22.532 87.6373 22.3886 87.7038 22.2311C87.7703 22.0736 87.8032 21.9051 87.8006 21.7354V7.49511C87.8006 7.15563 87.6585 6.83005 87.4058 6.59C87.153 6.34995 86.8102 6.21509 86.4527 6.21509C86.101 6.21498 85.7631 6.34544 85.5113 6.57861C85.2595 6.81178 85.1136 7.1292 85.1048 7.46311C85.1014 7.47353 85.1014 7.48468 85.1048 7.49511V21.7226ZM86.4527 4.09025C86.8974 4.08365 87.3219 3.91296 87.6364 3.61431C87.9508 3.31567 88.1306 2.91252 88.1375 2.49022C88.1375 2.06587 87.96 1.65889 87.644 1.35883C87.3281 1.05877 86.8995 0.890193 86.4527 0.890193C86.2335 0.887658 86.016 0.926252 85.8126 1.00376C85.6091 1.08127 85.4238 1.19617 85.2673 1.34186C85.1108 1.48755 84.9861 1.66116 84.9003 1.85274C84.8146 2.04431 84.7696 2.25008 84.7679 2.45822C84.7645 2.46865 84.7645 2.4798 84.7679 2.49022C84.7679 2.91457 84.9454 3.32155 85.2613 3.62161C85.5773 3.92168 86.0058 4.09025 86.4527 4.09025ZM90.8063 19.1305C90.8063 21.2106 93.2325 23.0986 96.1641 23.0986C99.2305 23.0986 101.522 20.9225 101.522 18.3945C101.522 15.3864 99.3316 14.2664 97.2087 13.6584C95.2206 13.0504 93.6031 12.4744 93.6031 10.7784C93.5923 10.1613 93.8394 9.56524 94.2903 9.1208C94.7413 8.67636 95.3593 8.41974 96.0091 8.40712H96.1978C96.8133 8.38206 97.421 8.54592 97.9308 8.87445C98.4406 9.20298 98.8254 9.6787 99.0283 10.2312C99.0828 10.4882 99.2309 10.7189 99.4465 10.8827C99.6621 11.0466 99.9316 11.1331 100.208 11.1272C100.366 11.128 100.524 11.0991 100.671 11.0421C100.818 10.9851 100.951 10.9012 101.064 10.795C101.177 10.6889 101.266 10.5627 101.327 10.4237C101.389 10.2846 101.42 10.1355 101.421 9.98475C101.421 7.80871 99.0283 6.14468 96.1978 6.14468C93.1988 6.14468 91.0085 8.16072 91.0085 10.7848C91.0085 13.9528 93.3672 14.8168 95.6923 15.5529C97.4782 16.1289 98.8261 16.8649 98.8261 18.4649C98.8261 19.6809 97.7815 20.8009 96.1641 20.8009C95.4965 20.8208 94.8406 20.6309 94.2983 20.2606C93.7561 19.8902 93.3577 19.3603 93.1651 18.7529C93.0707 18.4953 92.8832 18.2779 92.6358 18.1393C92.3885 18.0007 92.0974 17.95 91.8144 17.996C91.5314 18.0421 91.2747 18.1821 91.0901 18.391C90.9055 18.5999 90.8049 18.8642 90.8063 19.1369V19.1305ZM36.3457 32.7436C43.1861 32.7436 47.4319 29.8315 48.1732 29.3195C48.3775 29.1855 48.5472 29.0094 48.6698 28.8044C48.7923 28.5994 48.8645 28.3707 48.8809 28.1355C48.8849 27.9796 48.8565 27.8244 48.7974 27.6789C48.7383 27.5334 48.6495 27.4004 48.5363 27.2874C48.423 27.1745 48.2874 27.0839 48.1372 27.0208C47.987 26.9576 47.8252 26.9232 47.6611 26.9194H47.6341C47.355 26.9314 47.0857 27.0203 46.8591 27.1755C43.7417 29.1368 40.0851 30.1828 36.3457 30.1828C32.6063 30.1828 28.9497 29.1368 25.8323 27.1755C25.606 27.0198 25.3365 26.9308 25.0573 26.9194C24.7254 26.9211 24.4078 27.0477 24.1741 27.2715C23.9404 27.4953 23.8096 27.7979 23.8105 28.1131V28.1355C23.8295 28.3701 23.9028 28.5979 24.0251 28.8025C24.1474 29.0072 24.3158 29.1837 24.5182 29.3195C25.2595 29.8315 29.539 32.7436 36.3457 32.7436Z" fill="white"/>
</svg>
