<svg width="80" height="80" viewBox="0 0 80 80" fill="none" xmlns="http://www.w3.org/2000/svg">
<path d="M51.3137 29.6863C48.2917 26.6643 44.2738 25 40 25C35.7262 25 31.7083 26.6643 28.6863 29.6863C25.6643 32.7083 24 36.7262 24 41C24 45.2738 25.6643 49.2917 28.6863 52.3137C31.7083 55.3357 35.7262 57 40 57C44.2738 57 48.2917 55.3357 51.3137 52.3137C54.3357 49.2917 56 45.2738 56 41C56 36.7262 54.3358 32.7083 51.3137 29.6863ZM41.0042 47.9625H40.9375V50.0376C40.9375 50.5553 40.5178 50.9751 40 50.9751C39.4823 50.9751 39.0625 50.5553 39.0625 50.0376V47.9625H36.9876C36.4699 47.9625 36.0501 47.5427 36.0501 47.025C36.0501 46.5072 36.4699 46.0875 36.9876 46.0875H41.0043C42.1484 46.0875 43.0793 45.1566 43.0793 44.0125C43.0793 42.8684 42.1484 41.9375 41.0042 41.9375H38.9958C36.8178 41.9375 35.0459 40.1656 35.0459 37.9876C35.0459 35.8095 36.8179 34.0376 38.9958 34.0376H39.0625V31.9626C39.0625 31.4448 39.4823 31.0251 40 31.0251C40.5178 31.0251 40.9375 31.4448 40.9375 31.9626V34.0376H43.0126C43.5302 34.0376 43.9501 34.4573 43.9501 34.9751C43.9501 35.4928 43.5302 35.9126 43.0126 35.9126H38.9958C37.8516 35.9126 36.9209 36.8434 36.9209 37.9876C36.9209 39.1317 37.8517 40.0625 38.9958 40.0625H41.0042C43.1822 40.0625 44.9542 41.8345 44.9542 44.0125C44.9542 46.1905 43.1822 47.9625 41.0042 47.9625Z" fill="white"/>
</svg>
