<svg width="48" height="48" viewBox="0 0 48 48" fill="none" xmlns="http://www.w3.org/2000/svg">
<path d="M39 7H9C7.343 7 6 8.343 6 10V43L14.556 35H39C40.656 35 42 33.656 42 32V10C42 8.343 40.656 7 39 7Z" fill="white"/>
<path d="M33 19L30 20H27V14H33V19Z" fill="#37C277"/>
<path d="M27 28H29C29 28 33 22 33 19C33 16 29 17 29 20C29 23 27 28 27 28ZM23 19L20 20H17V14H23V19Z" fill="#37C277"/>
<path d="M17 28.0001H19C19 28.0001 23 22.0001 23 19.0001C23 16.0001 19 17.0001 19 20.0001C19 23.0001 17 28.0001 17 28.0001Z" fill="#37C277"/>
</svg>
