<svg width="56" height="56" viewBox="0 0 56 56" fill="none" xmlns="http://www.w3.org/2000/svg">
<path d="M46.6667 24.4999L37.4057 21.9706L42.1657 13.6336L38.8652 10.3331L30.8911 14.8854L28.0001 5.83325H23.3334L20.5626 14.5098L12.4682 10.3343L9.16775 13.6348L13.3432 21.7291L4.66675 24.4999V29.1666L13.3432 31.9374L9.16775 40.0317L12.4682 43.3322L20.5626 39.1567L23.3334 47.8332H28.0001L30.7709 39.1567L38.8652 43.3322L42.1657 40.0317L37.8094 31.5862L46.6667 29.1666V24.4999ZM25.6667 36.1666C20.5124 36.1666 16.3334 31.9876 16.3334 26.8332C16.3334 21.6789 20.5124 17.4999 25.6667 17.4999C30.8211 17.4999 35.0001 21.6789 35.0001 26.8332C35.0001 31.9876 30.8211 36.1666 25.6667 36.1666Z" fill="#32B36D"/>
<path d="M25.6667 11.6667C17.29 11.6667 10.5 18.4567 10.5 26.8334C10.5 35.2101 17.29 42.0001 25.6667 42.0001C34.0433 42.0001 40.8333 35.2101 40.8333 26.8334C40.8333 18.4567 34.0433 11.6667 25.6667 11.6667ZM25.6667 35.0001C21.1575 35.0001 17.5 31.3449 17.5 26.8334C17.5 22.3219 21.1575 18.6667 25.6667 18.6667C30.1758 18.6667 33.8333 22.3219 33.8333 26.8334C33.8333 31.3449 30.1758 35.0001 25.6667 35.0001Z" fill="#37C277"/>
<path d="M26.8333 31.5H51.3333V51.3333H26.8333V31.5Z" fill="white"/>
<path d="M38.5828 33.8333L34.4574 37.9574L31.9829 35.4829L30.3333 37.1326L34.4574 41.2568L40.2324 35.4829L38.5828 33.8333ZM38.5828 41.5764L34.4574 45.7006L31.9829 43.2261L30.3333 44.8758L34.4574 48.9999L40.2324 43.2261L38.5828 41.5764ZM51.3333 31.4999V27.9999C51.3333 27.3548 50.8118 26.8333 50.1666 26.8333H27.9999C27.3559 26.8333 26.8333 27.3548 26.8333 27.9999V31.4999H51.3333Z" fill="#9EA7A9"/>
</svg>
