<svg width="56" height="56" viewBox="0 0 56 56" fill="none" xmlns="http://www.w3.org/2000/svg">
<path d="M49 15.1667C49 15.8118 48.4785 16.3333 47.8333 16.3333H8.16667C7.52267 16.3333 7 15.8118 7 15.1667V8.16667C7 7.5215 7.52267 7 8.16667 7H47.8333C48.4785 7 49 7.5215 49 8.16667V15.1667Z" fill="#37C277"/>
<path d="M7 12.8333H49V48.9999H7V12.8333Z" fill="white"/>
<path d="M42 27.1599H18.6667V24.8266H42V27.1599ZM42 20.1599H18.6667V22.4932H42V20.1599ZM42 29.4932H18.6667V31.8266H42V29.4932ZM14 22.4932H16.3333V20.1599H14V22.4932ZM14 27.1599H16.3333V24.8266H14V27.1599ZM14 31.8266H16.3333V29.4932H14V31.8266Z" fill="#37C277"/>
<path d="M42 41.6733H18.6667V39.34H42V41.6733ZM42 34.6733H18.6667V37.0067H42V34.6733ZM14 37.0067H16.3333V34.6733H14V37.0067ZM14 41.6733H16.3333V39.34H14V41.6733Z" fill="#9EA7A9"/>
</svg>
