<svg width="56" height="56" viewBox="0 0 56 56" fill="none" xmlns="http://www.w3.org/2000/svg">
<path d="M50.1665 45.3052C50.1665 47.9909 47.9907 50.1667 45.305 50.1667H20.028C17.3435 50.1667 15.1665 47.9909 15.1665 45.3052V20.0282C15.1665 17.3426 17.3435 15.1667 20.028 15.1667H45.3062C47.9907 15.1667 50.1665 17.3426 50.1665 20.0282V45.3052Z" fill="#37C277"/>
<path d="M40.8335 35.9717C40.8335 38.6574 38.6577 40.8332 35.972 40.8332H10.695C8.0105 40.8332 5.8335 38.6574 5.8335 35.9717V10.6948C5.8335 8.00908 8.0105 5.83325 10.695 5.83325H35.9732C38.6577 5.83325 40.8335 8.00908 40.8335 10.6948V35.9717Z" fill="white"/>
<path d="M21.0002 32.808L12.9082 24.7171L15.3839 22.2415L21.0002 27.859L33.6165 15.2415L36.0922 17.7171L21.0002 32.808Z" fill="#37C277"/>
</svg>
