<svg width="56" height="56" viewBox="0 0 56 56" fill="none" xmlns="http://www.w3.org/2000/svg">
<path d="M49 22.1667H7V10.5C7 8.56683 8.56683 7 10.5 7H45.5C47.4332 7 49 8.56683 49 10.5V22.1667Z" fill="#37C277"/>
<path d="M7 18.6667H49V45.5001C49 47.4333 47.4332 49.0001 45.5 49.0001H10.5C8.56683 49.0001 7 47.4333 7 45.5001V18.6667Z" fill="white"/>
<path d="M12.8333 10.5C12.2145 10.5 11.621 10.7458 11.1834 11.1834C10.7458 11.621 10.5 12.2145 10.5 12.8333C10.5 13.4522 10.7458 14.0457 11.1834 14.4832C11.621 14.9208 12.2145 15.1667 12.8333 15.1667C13.4522 15.1667 14.0457 14.9208 14.4832 14.4832C14.9208 14.0457 15.1667 13.4522 15.1667 12.8333C15.1667 12.2145 14.9208 11.621 14.4832 11.1834C14.0457 10.7458 13.4522 10.5 12.8333 10.5Z" fill="#4A4C4D"/>
<path d="M19.8333 10.5C19.2145 10.5 18.621 10.7458 18.1834 11.1834C17.7458 11.621 17.5 12.2145 17.5 12.8333C17.5 13.4522 17.7458 14.0457 18.1834 14.4832C18.621 14.9208 19.2145 15.1667 19.8333 15.1667C20.4522 15.1667 21.0457 14.9208 21.4832 14.4832C21.9208 14.0457 22.1667 13.4522 22.1667 12.8333C22.1667 12.2145 21.9208 11.621 21.4832 11.1834C21.0457 10.7458 20.4522 10.5 19.8333 10.5Z" fill="#DFE4E6"/>
<path d="M45.4998 14C45.4998 14.6452 44.9783 15.1667 44.3332 15.1667H26.8332C26.188 15.1667 25.6665 14.6452 25.6665 14V11.6667C25.6665 11.0215 26.188 10.5 26.8332 10.5H44.3332C44.9783 10.5 45.4998 11.0215 45.4998 11.6667V14Z" fill="#32B36D"/>
<path d="M10.5 22.1667H30.3333V35.0001H10.5V22.1667ZM10.5 38.5001H30.3333V45.5001H10.5V38.5001ZM33.8333 22.1667H45.5V45.5001H33.8333V22.1667Z" fill="#DFE4E6"/>
</svg>
