<svg width="56" height="56" viewBox="0 0 56 56" fill="none" xmlns="http://www.w3.org/2000/svg">
<path d="M46.2 31.7332C46.3167 30.9165 46.4333 30.0999 46.4333 29.1665C46.4333 28.2332 46.3167 27.4165 46.2 26.5999L51.45 22.8665C51.9166 22.5165 52.15 21.8165 51.8 21.2332L46.6667 12.5999C46.3167 12.0165 45.7333 11.7832 45.15 12.1332L39.3167 14.8165C37.9167 13.7665 36.5167 12.9499 34.8833 12.2499L34.3 5.8332C34.1833 5.24987 33.7167 4.7832 33.1333 4.7832H23.1C22.5167 4.7832 21.9333 5.24987 21.9333 5.8332L21.35 12.2499C19.7167 12.9499 18.2 13.7665 16.9167 14.8165L11.0833 12.1332C10.5 11.8999 9.79998 12.1332 9.56665 12.5999L4.54998 21.2332C4.19998 21.8165 4.43332 22.5165 4.89998 22.8665L10.15 26.5999C10.0333 27.4165 9.91665 28.2332 9.91665 29.1665C9.91665 30.0999 10.0333 30.9165 10.15 31.7332L4.66665 35.4665C4.19998 35.8165 3.96665 36.5165 4.31665 37.0999L9.33332 45.7332C9.68332 46.3165 10.2667 46.5499 10.85 46.1999L16.6833 43.5165C18.0833 44.5665 19.4833 45.3832 21.1167 46.0832L21.7 52.4999C21.8167 53.0832 22.2833 53.5499 22.8667 53.5499H32.9C33.4833 53.5499 34.0667 53.0832 34.0667 52.4999L34.65 46.0832C36.2833 45.3832 37.8 44.5665 39.0833 43.5165L44.9167 46.1999C45.5 46.4332 46.2 46.1999 46.4333 45.7332L51.45 37.0999C51.8 36.5165 51.5667 35.8165 51.1 35.4665L46.2 31.7332ZM28 40.8332C21.5833 40.8332 16.3333 35.5832 16.3333 29.1665C16.3333 22.7499 21.5833 17.4999 28 17.4999C34.4167 17.4999 39.6667 22.7499 39.6667 29.1665C39.6667 35.5832 34.4167 40.8332 28 40.8332Z" fill="#37C277"/>
<path d="M28 15.1667C20.3 15.1667 14 21.4667 14 29.1667C14 36.8668 20.3 43.1668 28 43.1668C35.7 43.1668 42 36.8668 42 29.1667C42 21.4667 35.7 15.1667 28 15.1667ZM28 35.0001C24.7333 35.0001 22.1667 32.4334 22.1667 29.1667C22.1667 25.9001 24.7333 23.3334 28 23.3334C31.2667 23.3334 33.8333 25.9001 33.8333 29.1667C33.8333 32.4334 31.2667 35.0001 28 35.0001Z" fill="#32B36D"/>
</svg>
