<svg width="56" height="56" viewBox="0 0 56 56" fill="none" xmlns="http://www.w3.org/2000/svg">
<path d="M7 11.6667C7 9.1 9.1 7 11.6667 7H44.3333C46.9 7 49 9.1 49 11.6667V44.3333C49 46.9 46.9 49 44.3333 49H11.6667C9.1 49 7 46.9 7 44.3333V11.6667Z" fill="white"/>
<path d="M21 11.6667H23.3333V42.0001H21V11.6667ZM30.3333 11.6667H32.6667V42.0001H30.3333V11.6667ZM39.6667 11.6667H42V42.0001H39.6667V11.6667Z" fill="#EDEFF0"/>
<path d="M14 35V32.6667H44.3333V35H14Z" fill="#EDEFF0"/>
<path d="M14 25.6667V23.3334H44.3333V25.6667L14 25.6667Z" fill="#EDEFF0"/>
<path d="M14 16.3333V13.9999L44.3333 13.9999V16.3333L14 16.3333Z" fill="#EDEFF0"/>
<path d="M13.8775 43.6882L11.7903 42.644L21.1237 23.9774C21.2917 23.6414 21.6102 23.408 21.98 23.3474C22.3568 23.2902 22.729 23.4092 22.9915 23.674L31.1803 31.8629L39.7903 14.644L41.8775 15.6882L32.5442 34.3549C32.3762 34.6909 32.0577 34.9242 31.6878 34.9849C31.3122 35.0432 30.94 34.923 30.6763 34.6582L22.4875 26.4694L13.8775 43.6882Z" fill="#37C277"/>
<path d="M22.1667 22.1666C21.5478 22.1666 20.9543 22.4124 20.5168 22.85C20.0792 23.2876 19.8333 23.8811 19.8333 24.4999C19.8333 25.1188 20.0792 25.7122 20.5168 26.1498C20.9543 26.5874 21.5478 26.8333 22.1667 26.8333C22.7855 26.8333 23.379 26.5874 23.8166 26.1498C24.2542 25.7122 24.5 25.1188 24.5 24.4999C24.5 23.8811 24.2542 23.2876 23.8166 22.85C23.379 22.4124 22.7855 22.1666 22.1667 22.1666ZM31.5 31.4999C30.8812 31.4999 30.2877 31.7458 29.8501 32.1833C29.4125 32.6209 29.1667 33.2144 29.1667 33.8333C29.1667 34.4521 29.4125 35.0456 29.8501 35.4832C30.2877 35.9208 30.8812 36.1666 31.5 36.1666C32.1188 36.1666 32.7123 35.9208 33.1499 35.4832C33.5875 35.0456 33.8333 34.4521 33.8333 33.8333C33.8333 33.2144 33.5875 32.6209 33.1499 32.1833C32.7123 31.7458 32.1188 31.4999 31.5 31.4999ZM40.8333 12.8333C40.2145 12.8333 39.621 13.0791 39.1834 13.5167C38.7458 13.9543 38.5 14.5477 38.5 15.1666C38.5 15.7854 38.7458 16.3789 39.1834 16.8165C39.621 17.2541 40.2145 17.4999 40.8333 17.4999C41.4522 17.4999 42.0457 17.2541 42.4832 16.8165C42.9208 16.3789 43.1667 15.7854 43.1667 15.1666C43.1667 14.5477 42.9208 13.9543 42.4832 13.5167C42.0457 13.0791 41.4522 12.8333 40.8333 12.8333Z" fill="#32B36D"/>
<path d="M44.3333 44.3334H11.6667V11.6667H14V42.0001H44.3333V44.3334Z" fill="#32B36D"/>
</svg>
