<svg width="644" height="468" viewBox="0 0 644 468" fill="none" xmlns="http://www.w3.org/2000/svg">
<g filter="url(#filter0_d)">
<g filter="url(#filter1_b)">
<path d="M26 41.4954H618V433.768C618 435.95 618 437.04 617.576 437.873C617.202 438.606 616.606 439.202 615.873 439.576C615.04 440 613.95 440 611.768 440H32.2316C30.0503 440 28.9597 440 28.1266 439.576C27.3937 439.202 26.7979 438.606 26.4245 437.873C26 437.04 26 435.95 26 433.768V41.4954Z" fill="#EDEFF0"/>
</g>
<path d="M26.4625 27.5782C26.4625 26.4876 26.4625 25.9422 26.6748 25.5257C26.8615 25.1593 27.1594 24.8614 27.5258 24.6747C27.9424 24.4624 28.4877 24.4624 29.5783 24.4624H614.422C615.512 24.4624 616.058 24.4624 616.474 24.6747C616.841 24.8614 617.139 25.1593 617.325 25.5257C617.538 25.9422 617.538 26.4876 617.538 27.5782V41.083H26.4625V27.5782Z" fill="url(#paint0_linear)"/>
<rect opacity="0.95" x="26.4625" y="41.0822" width="591.075" height="0.4625" fill="#A5A6A7"/>
<rect opacity="0.9" x="606.437" y="29.54" width="11.1" height="11.5421" fill="url(#paint1_linear)"/>
<path d="M606.437 29.54V41.0821H606.9V30.0017H617.537V29.54H606.437Z" fill="#A7A8A6"/>
<rect x="611.988" y="33.2334" width="0.4625" height="5.0785" fill="#666666"/>
<rect x="609.675" y="36.0034" width="0.4625" height="5.0875" transform="rotate(-90 609.675 36.0034)" fill="#666666"/>
<g filter="url(#filter2_i)">
<rect x="585.162" y="27.2317" width="18.0375" height="11.0804" rx="2.3125" fill="url(#paint2_linear)"/>
</g>
<rect x="585.394" y="27.4629" width="17.575" height="10.6179" rx="2.08125" stroke="url(#paint3_linear)" stroke-width="0.4625"/>
<rect x="591.869" y="31.6181" width="3.7" height="3.69264" rx="0.23125" stroke="#575757" stroke-width="0.4625"/>
<mask id="path-11-inside-1" fill="white">
<path d="M593.025 30.742V30.9253H593.487V30.4636H596.725V33.6954H596.262V34.1571H596.447C596.706 34.1571 596.836 34.1571 596.935 34.1067C597.022 34.0623 597.093 33.9916 597.137 33.9046C597.187 33.8056 597.187 33.6761 597.187 33.4171V30.742C597.187 30.4829 597.187 30.3534 597.137 30.2545C597.093 30.1675 597.022 30.0967 596.935 30.0524C596.836 30.002 596.706 30.002 596.447 30.002H593.765C593.506 30.002 593.376 30.002 593.277 30.0524C593.19 30.0967 593.12 30.1675 593.075 30.2545C593.025 30.3534 593.025 30.4829 593.025 30.742Z"/>
</mask>
<path d="M593.025 30.9253H592.562V31.3878H593.025V30.9253ZM596.262 34.1571H595.8V34.6196H596.262V34.1571ZM596.262 33.6954V33.2329H595.8V33.6954H596.262ZM596.725 33.6954V34.1579H597.187V33.6954H596.725ZM596.725 30.4636H597.187V30.0011H596.725V30.4636ZM593.487 30.4636V30.0011H593.025V30.4636H593.487ZM593.487 30.9253V31.3878H593.95V30.9253H593.487ZM597.137 33.9046L596.725 33.6946L596.725 33.6946L597.137 33.9046ZM596.935 34.1067L596.725 33.6946L596.725 33.6946L596.935 34.1067ZM596.935 30.0524L597.145 29.6403V29.6403L596.935 30.0524ZM597.137 30.2545L596.725 30.4645L596.725 30.4645L597.137 30.2545ZM593.075 30.2545L593.487 30.4645V30.4645L593.075 30.2545ZM593.277 30.0524L593.487 30.4645H593.487L593.277 30.0524ZM593.487 30.9253V30.742H592.562V30.9253H593.487ZM593.765 30.4645H596.447V29.5395H593.765V30.4645ZM596.725 30.742V33.4171H597.65V30.742H596.725ZM596.447 33.6946H596.262V34.6196H596.447V33.6946ZM596.725 34.1571V33.6954H595.8V34.1571H596.725ZM596.262 34.1579H596.725V33.2329H596.262V34.1579ZM597.187 33.6954V30.4636H596.262V33.6954H597.187ZM596.725 30.0011H593.487V30.9261H596.725V30.0011ZM593.025 30.4636V30.9253H593.95V30.4636H593.025ZM593.487 30.4628H593.025V31.3878H593.487V30.4628ZM596.725 33.4171C596.725 33.5542 596.725 33.6293 596.72 33.6832C596.716 33.7317 596.711 33.7212 596.725 33.6946L597.549 34.1145C597.613 33.989 597.633 33.8642 597.642 33.7585C597.65 33.6582 597.65 33.539 597.65 33.4171H596.725ZM596.447 34.6196C596.569 34.6196 596.688 34.62 596.789 34.6118C596.895 34.6031 597.019 34.5827 597.145 34.5188L596.725 33.6946C596.751 33.681 596.762 33.6859 596.713 33.6898C596.66 33.6942 596.585 33.6946 596.447 33.6946V34.6196ZM596.725 33.6946L596.725 33.6946L597.145 34.5188C597.319 34.4301 597.46 34.2886 597.549 34.1145L596.725 33.6946ZM596.447 30.4645C596.585 30.4645 596.66 30.4648 596.713 30.4692C596.762 30.4732 596.751 30.478 596.725 30.4645L597.145 29.6403C597.019 29.5763 596.895 29.5559 596.789 29.5473C596.688 29.5391 596.569 29.5395 596.447 29.5395V30.4645ZM597.65 30.742C597.65 30.6201 597.65 30.5008 597.642 30.4005C597.633 30.2948 597.613 30.17 597.549 30.0445L596.725 30.4645C596.711 30.4379 596.716 30.4273 596.72 30.4758C596.725 30.5298 596.725 30.6048 596.725 30.742H597.65ZM596.725 30.4645L596.725 30.4645L597.549 30.0445C597.46 29.8705 597.319 29.729 597.145 29.6403L596.725 30.4645ZM593.487 30.742C593.487 30.6048 593.488 30.5298 593.492 30.4758C593.496 30.4273 593.501 30.4379 593.487 30.4645L592.663 30.0445C592.599 30.17 592.579 30.2948 592.57 30.4005C592.562 30.5008 592.562 30.6201 592.562 30.742H593.487ZM593.765 29.5395C593.643 29.5395 593.524 29.5391 593.423 29.5473C593.318 29.5559 593.193 29.5763 593.067 29.6403L593.487 30.4645C593.461 30.478 593.45 30.4732 593.499 30.4692C593.553 30.4648 593.628 30.4645 593.765 30.4645V29.5395ZM593.487 30.4645L593.067 29.6403C592.893 29.729 592.752 29.8705 592.663 30.0445L593.487 30.4645Z" fill="#575757" mask="url(#path-11-inside-1)"/>
<g filter="url(#filter3_i)">
<rect x="564.35" y="27.2317" width="18.0375" height="11.0804" rx="2.3125" fill="url(#paint4_linear)"/>
</g>
<rect x="564.581" y="27.4629" width="17.575" height="10.6179" rx="2.08125" stroke="url(#paint5_linear)" stroke-width="0.4625"/>
<path d="M571.287 35.5421H575.45C575.451 35.5421 575.45 31.8478 575.45 31.8478L574.062 31.8486V31.387H575.446C575.707 31.387 575.912 31.5927 575.912 31.8465V35.5442C575.912 35.7934 575.706 36.0038 575.452 36.0038H571.285C571.031 36.0038 570.825 35.798 570.825 35.5442V31.8465C570.825 31.5973 571.034 31.387 571.292 31.387H572.675V31.8486H571.292C571.29 31.8486 571.287 35.5421 571.287 35.5421Z" fill="#ADADAD"/>
<path d="M573.362 29.699L572.187 30.8862C572.102 30.9719 571.965 30.9719 571.88 30.8862C571.795 30.8006 571.795 30.6618 571.88 30.5761L573.209 29.2339C573.293 29.1482 573.431 29.1482 573.515 29.2339L574.844 30.5761C574.928 30.6618 574.928 30.8006 574.844 30.8862C574.759 30.9719 574.622 30.9719 574.537 30.8862L573.362 29.699Z" fill="#ADADAD"/>
<path d="M573.137 29.541H573.6V33.6962H573.137V29.541Z" fill="#ADADAD"/>
<g filter="url(#filter4_i)">
<rect x="201.75" y="27.2317" width="239.575" height="11.0804" rx="2.3125" fill="url(#paint6_linear)"/>
</g>
<rect x="201.981" y="27.4629" width="239.113" height="10.6179" rx="2.08125" stroke="url(#paint7_linear)" stroke-width="0.4625"/>
<path d="M310.602 33.1436L311.367 30.7731H311.906L310.799 33.8596H310.397L309.278 30.7731H309.818L310.602 33.1436ZM312.894 33.8596H312.367V30.7731H312.894V33.8596ZM312.324 29.9544C312.324 29.8688 312.349 29.7966 312.401 29.7376C312.454 29.6787 312.532 29.6492 312.635 29.6492C312.737 29.6492 312.815 29.6787 312.869 29.7376C312.922 29.7966 312.949 29.8688 312.949 29.9544C312.949 30.04 312.922 30.1113 312.869 30.1684C312.815 30.2254 312.737 30.2539 312.635 30.2539C312.532 30.2539 312.454 30.2254 312.401 30.1684C312.349 30.1113 312.324 30.04 312.324 29.9544ZM314.145 33.4289H315.951V33.8596H313.501V33.4717L315.204 31.2096H313.526V30.7731H315.865V31.1468L314.145 33.4289ZM317.171 30.0257V30.7731H317.747V31.181H317.171V33.0951C317.171 33.2187 317.196 33.3119 317.248 33.3747C317.299 33.4355 317.387 33.466 317.51 33.466C317.571 33.466 317.655 33.4546 317.761 33.4317V33.8596C317.622 33.8977 317.487 33.9167 317.356 33.9167C317.12 33.9167 316.943 33.8454 316.823 33.7027C316.703 33.5601 316.643 33.3576 316.643 33.0951V31.181H316.081V30.7731H316.643V30.0257H317.171ZM319.765 31.2466C319.686 31.2333 319.599 31.2267 319.506 31.2267C319.16 31.2267 318.925 31.3741 318.801 31.6688V33.8596H318.274V30.7731H318.787L318.796 31.1297C318.969 30.8539 319.214 30.7161 319.531 30.7161C319.634 30.7161 319.712 30.7294 319.765 30.756V31.2466ZM319.964 32.2878C319.964 31.9855 320.023 31.7135 320.141 31.472C320.261 31.2305 320.426 31.0441 320.637 30.9129C320.85 30.7817 321.093 30.7161 321.364 30.7161C321.785 30.7161 322.124 30.8615 322.383 31.1525C322.643 31.4435 322.774 31.8305 322.774 32.3135V32.3506C322.774 32.6511 322.716 32.9211 322.6 33.1607C322.486 33.3985 322.321 33.5839 322.106 33.717C321.893 33.8501 321.648 33.9167 321.37 33.9167C320.952 33.9167 320.612 33.7712 320.352 33.4802C320.093 33.1893 319.964 32.8042 319.964 32.3249V32.2878ZM320.494 32.3506C320.494 32.6929 320.573 32.9677 320.731 33.175C320.891 33.3823 321.104 33.4859 321.37 33.4859C321.638 33.4859 321.851 33.3813 322.009 33.1721C322.167 32.9611 322.246 32.6663 322.246 32.2878C322.246 31.9493 322.165 31.6755 322.003 31.4663C321.844 31.2552 321.631 31.1497 321.364 31.1497C321.104 31.1497 320.894 31.2533 320.734 31.4606C320.574 31.6679 320.494 31.9645 320.494 32.3506ZM323.839 30.7731L323.854 31.1154C324.08 30.8492 324.385 30.7161 324.769 30.7161C325.201 30.7161 325.495 30.8815 325.651 31.2124C325.753 31.0641 325.887 30.9443 326.05 30.853C326.216 30.7617 326.41 30.7161 326.635 30.7161C327.312 30.7161 327.656 31.0745 327.668 31.7915V33.8596H327.14V31.8229C327.14 31.6023 327.089 31.4378 326.989 31.3294C326.888 31.2191 326.719 31.1639 326.481 31.1639C326.285 31.1639 326.122 31.2229 325.993 31.3408C325.864 31.4568 325.789 31.6137 325.768 31.8115V33.8596H325.237V31.8371C325.237 31.3883 325.017 31.1639 324.578 31.1639C324.232 31.1639 323.995 31.3113 323.868 31.6061V33.8596H323.34V30.7731H323.839ZM328.385 33.5829C328.385 33.4916 328.412 33.4156 328.465 33.3547C328.52 33.2939 328.602 33.2634 328.71 33.2634C328.819 33.2634 328.901 33.2939 328.956 33.3547C329.013 33.4156 329.041 33.4916 329.041 33.5829C329.041 33.6704 329.013 33.7436 328.956 33.8026C328.901 33.8615 328.819 33.891 328.71 33.891C328.602 33.891 328.52 33.8615 328.465 33.8026C328.412 33.7436 328.385 33.6704 328.385 33.5829ZM331.06 33.4859C331.248 33.4859 331.412 33.4289 331.553 33.3148C331.694 33.2007 331.772 33.058 331.787 32.8869H332.286C332.277 33.0637 332.216 33.232 332.104 33.3918C331.991 33.5515 331.841 33.679 331.653 33.774C331.467 33.8691 331.269 33.9167 331.06 33.9167C330.639 33.9167 330.305 33.7769 330.056 33.4973C329.808 33.2159 329.685 32.8317 329.685 32.3449V32.2565C329.685 31.956 329.74 31.6888 329.85 31.4549C329.96 31.221 330.118 31.0394 330.324 30.91C330.531 30.7807 330.775 30.7161 331.057 30.7161C331.403 30.7161 331.69 30.8197 331.918 31.027C332.148 31.2343 332.271 31.5034 332.286 31.8343H331.787C331.772 31.6346 331.696 31.4711 331.559 31.3436C331.424 31.2143 331.256 31.1497 331.057 31.1497C330.789 31.1497 330.58 31.2466 330.432 31.4406C330.286 31.6327 330.212 31.9113 330.212 32.2764V32.3763C330.212 32.7319 330.286 33.0057 330.432 33.1978C330.579 33.3899 330.788 33.4859 331.06 33.4859ZM332.647 32.2878C332.647 31.9855 332.706 31.7135 332.824 31.472C332.944 31.2305 333.109 31.0441 333.321 30.9129C333.534 30.7817 333.776 30.7161 334.048 30.7161C334.468 30.7161 334.808 30.8615 335.066 31.1525C335.327 31.4435 335.457 31.8305 335.457 32.3135V32.3506C335.457 32.6511 335.399 32.9211 335.283 33.1607C335.169 33.3985 335.005 33.5839 334.79 33.717C334.577 33.8501 334.331 33.9167 334.054 33.9167C333.635 33.9167 333.296 33.7712 333.035 33.4802C332.777 33.1893 332.647 32.8042 332.647 32.3249V32.2878ZM333.178 32.3506C333.178 32.6929 333.257 32.9677 333.415 33.175C333.574 33.3823 333.787 33.4859 334.054 33.4859C334.322 33.4859 334.535 33.3813 334.693 33.1721C334.85 32.9611 334.929 32.6663 334.929 32.2878C334.929 31.9493 334.849 31.6755 334.687 31.4663C334.527 31.2552 334.314 31.1497 334.048 31.1497C333.787 31.1497 333.577 31.2533 333.418 31.4606C333.258 31.6679 333.178 31.9645 333.178 32.3506ZM336.523 30.7731L336.537 31.1154C336.763 30.8492 337.069 30.7161 337.453 30.7161C337.884 30.7161 338.178 30.8815 338.334 31.2124C338.437 31.0641 338.57 30.9443 338.734 30.853C338.899 30.7617 339.094 30.7161 339.318 30.7161C339.995 30.7161 340.34 31.0745 340.351 31.7915V33.8596H339.823V31.8229C339.823 31.6023 339.773 31.4378 339.672 31.3294C339.571 31.2191 339.402 31.1639 339.164 31.1639C338.968 31.1639 338.806 31.2229 338.676 31.3408C338.547 31.4568 338.472 31.6137 338.451 31.8115V33.8596H337.921V31.8371C337.921 31.3883 337.701 31.1639 337.262 31.1639C336.915 31.1639 336.679 31.3113 336.551 31.6061V33.8596H336.024V30.7731H336.523Z" fill="#A3A3A3"/>
<rect x="302.502" y="32.3102" width="3.7" height="2.77009" fill="#A3A3A3"/>
<path d="M302.965 31.8508V32.31H303.427V31.8499C303.427 31.3391 303.841 30.9249 304.352 30.9249C304.863 30.9249 305.277 31.3391 305.277 31.8499V32.31H305.74V31.8508C305.74 31.0845 305.118 30.4633 304.352 30.4633C303.586 30.4633 302.965 31.0845 302.965 31.8508Z" fill="#A3A3A3"/>
<path d="M435.544 30.4633V30.9249C434.394 30.9249 433.463 31.8551 433.463 33.0025C433.463 34.1499 434.394 35.0801 435.544 35.0801C436.693 35.0801 437.625 34.1499 437.625 33.0025H438.088C438.088 34.4049 436.949 35.5418 435.544 35.5418C434.139 35.5418 433 34.4049 433 33.0025C433 31.6001 434.139 30.4633 435.544 30.4633Z" fill="#ADADAD"/>
<path d="M437.163 30.694L435.313 31.8482V29.5398L437.163 30.694Z" fill="#ADADAD"/>
<g filter="url(#filter5_i)">
<rect x="89.825" y="27.2317" width="18.0375" height="11.0804" rx="2.3125" fill="url(#paint8_linear)"/>
</g>
<rect x="90.0563" y="27.4629" width="17.575" height="10.6179" rx="2.08125" stroke="url(#paint9_linear)" stroke-width="0.4625"/>
<path fill-rule="evenodd" clip-rule="evenodd" d="M96.3 31.3877V30.9252H97.2308V31.3877H96.3ZM96.3 32.3109V31.8484H97.2481V32.3109H96.3ZM96.3 32.772V33.2345H97.2481V32.772H96.3Z" fill="#979797"/>
<path fill-rule="evenodd" clip-rule="evenodd" d="M98.15 30.0018H97.6875V30.0022H95.841C95.5836 30.0022 95.375 30.2126 95.375 30.465V35.0796C95.375 35.3352 95.5826 35.5424 95.841 35.5424H101.847C102.104 35.5424 102.312 35.332 102.312 35.0796V30.465C102.312 30.2094 102.105 30.0022 101.847 30.0022H98.15V30.0018ZM97.6875 30.4646C96.6569 30.4645 95.841 30.4644 95.841 30.4644C95.8401 30.4644 95.8375 35.0801 95.8375 35.0801C95.8375 35.0803 96.6553 35.0805 97.6875 35.0807V30.4646ZM98.15 35.0808V30.4647C99.844 30.4649 101.85 30.4652 101.85 30.4655C101.85 30.4655 101.847 35.0812 101.847 35.0812C101.847 35.0812 99.8432 35.081 98.15 35.0808Z" fill="#575757"/>
<path fill-rule="evenodd" clip-rule="evenodd" d="M53.2875 35.5421C54.8201 35.5421 56.0625 34.3019 56.0625 32.772C56.0625 31.2422 54.8201 30.002 53.2875 30.002C51.7549 30.002 50.5125 31.2422 50.5125 32.772C50.5125 34.3019 51.7549 35.5421 53.2875 35.5421Z" fill="#53C22B"/>
<path fill-rule="evenodd" clip-rule="evenodd" d="M44.0375 35.5421C45.5701 35.5421 46.8125 34.3019 46.8125 32.772C46.8125 31.2422 45.5701 30.002 44.0375 30.002C42.5049 30.002 41.2625 31.2422 41.2625 32.772C41.2625 34.3019 42.5049 35.5421 44.0375 35.5421Z" fill="#E6C02A"/>
<path fill-rule="evenodd" clip-rule="evenodd" d="M34.7875 35.5425C36.3201 35.5425 37.5625 34.3023 37.5625 32.7724C37.5625 31.2425 36.3201 30.0023 34.7875 30.0023C33.2549 30.0023 32.0125 31.2425 32.0125 32.7724C32.0125 34.3023 33.2549 35.5425 34.7875 35.5425Z" fill="#FF5A52"/>
<g filter="url(#filter6_i)">
<rect x="73.6375" y="27.2317" width="12.4875" height="11.0804" rx="2.3125" fill="url(#paint10_linear)"/>
</g>
<rect x="73.8688" y="27.4629" width="12.025" height="10.6179" rx="2.08125" stroke="url(#paint11_linear)" stroke-width="0.4625"/>
<path d="M78.5481 34.6109C78.3881 34.7789 78.3881 35.0429 78.5481 35.2109C78.7196 35.3911 79.0069 35.3911 79.1784 35.2109L81.4763 32.7968C81.4896 32.7829 81.4896 32.761 81.4763 32.7471L79.1784 30.333C79.0069 30.1528 78.7196 30.1528 78.5481 30.333C78.3881 30.501 78.3881 30.7649 78.5481 30.933L80.2985 32.7719L78.5481 34.6109Z" fill="#ADADAD"/>
<g filter="url(#filter7_i)">
<rect x="61.6125" y="27.2317" width="12.4875" height="11.0804" rx="2.3125" fill="url(#paint12_linear)"/>
</g>
<rect x="61.8437" y="27.4629" width="12.025" height="10.6179" rx="2.08125" stroke="url(#paint13_linear)" stroke-width="0.4625"/>
<path d="M69.1894 34.6109C69.3494 34.7789 69.3494 35.0429 69.1894 35.2109C69.0179 35.3911 68.7306 35.3911 68.5591 35.2109L66.2612 32.7968C66.2479 32.7829 66.2479 32.761 66.2612 32.7471L68.5591 30.333C68.7306 30.1528 69.0179 30.1528 69.1894 30.333C69.3494 30.501 69.3494 30.7649 69.1894 30.933L67.439 32.7719L69.1894 34.6109Z" fill="#ADADAD"/>
<rect x="25.7688" y="23.7688" width="592.463" height="416.462" rx="4.12599" stroke="url(#paint14_linear)" stroke-width="0.4625"/>
<rect x="26.2312" y="24.2312" width="591.537" height="415.538" rx="3.66349" stroke="url(#paint15_linear)" stroke-width="0.4625"/>
<rect x="26" y="41.0822" width="0.4625" height="0.4625" fill="#AFAFB0"/>
<rect x="617.537" y="41.0822" width="0.4625" height="0.4625" fill="#AFAFAF"/>
<rect x="617.537" y="29.5402" width="0.4625" height="0.4625" fill="#BEBEBE"/>
<rect x="617.537" y="30.002" width="0.4625" height="11.0804" fill="url(#paint16_linear)"/>
</g>
<defs>
<filter id="filter0_d" x="0.537506" y="0.537476" width="642.925" height="466.925" filterUnits="userSpaceOnUse" color-interpolation-filters="sRGB">
<feFlood flood-opacity="0" result="BackgroundImageFix"/>
<feColorMatrix in="SourceAlpha" type="matrix" values="0 0 0 0 0 0 0 0 0 0 0 0 0 0 0 0 0 0 127 0"/>
<feOffset dy="2"/>
<feGaussianBlur stdDeviation="12.5"/>
<feColorMatrix type="matrix" values="0 0 0 0 0.652941 0 0 0 0 0.652941 0 0 0 0 0.652941 0 0 0 0.35 0"/>
<feBlend mode="normal" in2="BackgroundImageFix" result="effect1_dropShadow"/>
<feBlend mode="normal" in="SourceGraphic" in2="effect1_dropShadow" result="shape"/>
</filter>
<filter id="filter1_b" x="24.15" y="39.6454" width="595.7" height="402.205" filterUnits="userSpaceOnUse" color-interpolation-filters="sRGB">
<feFlood flood-opacity="0" result="BackgroundImageFix"/>
<feGaussianBlur in="BackgroundImage" stdDeviation="0.925"/>
<feComposite in2="SourceAlpha" operator="in" result="effect1_backgroundBlur"/>
<feBlend mode="normal" in="SourceGraphic" in2="effect1_backgroundBlur" result="shape"/>
</filter>
<filter id="filter2_i" x="585.162" y="27.2317" width="18.0375" height="11.0804" filterUnits="userSpaceOnUse" color-interpolation-filters="sRGB">
<feFlood flood-opacity="0" result="BackgroundImageFix"/>
<feBlend mode="normal" in="SourceGraphic" in2="BackgroundImageFix" result="shape"/>
<feColorMatrix in="SourceAlpha" type="matrix" values="0 0 0 0 0 0 0 0 0 0 0 0 0 0 0 0 0 0 127 0" result="hardAlpha"/>
<feOffset dy="0.925"/>
<feComposite in2="hardAlpha" operator="arithmetic" k2="-1" k3="1"/>
<feColorMatrix type="matrix" values="0 0 0 0 1 0 0 0 0 1 0 0 0 0 1 0 0 0 1 0"/>
<feBlend mode="normal" in2="shape" result="effect1_innerShadow"/>
</filter>
<filter id="filter3_i" x="564.35" y="27.2317" width="18.0375" height="11.0804" filterUnits="userSpaceOnUse" color-interpolation-filters="sRGB">
<feFlood flood-opacity="0" result="BackgroundImageFix"/>
<feBlend mode="normal" in="SourceGraphic" in2="BackgroundImageFix" result="shape"/>
<feColorMatrix in="SourceAlpha" type="matrix" values="0 0 0 0 0 0 0 0 0 0 0 0 0 0 0 0 0 0 127 0" result="hardAlpha"/>
<feOffset dy="0.925"/>
<feComposite in2="hardAlpha" operator="arithmetic" k2="-1" k3="1"/>
<feColorMatrix type="matrix" values="0 0 0 0 1 0 0 0 0 1 0 0 0 0 1 0 0 0 1 0"/>
<feBlend mode="normal" in2="shape" result="effect1_innerShadow"/>
</filter>
<filter id="filter4_i" x="201.75" y="27.2317" width="239.575" height="11.0804" filterUnits="userSpaceOnUse" color-interpolation-filters="sRGB">
<feFlood flood-opacity="0" result="BackgroundImageFix"/>
<feBlend mode="normal" in="SourceGraphic" in2="BackgroundImageFix" result="shape"/>
<feColorMatrix in="SourceAlpha" type="matrix" values="0 0 0 0 0 0 0 0 0 0 0 0 0 0 0 0 0 0 127 0" result="hardAlpha"/>
<feOffset dy="0.925"/>
<feComposite in2="hardAlpha" operator="arithmetic" k2="-1" k3="1"/>
<feColorMatrix type="matrix" values="0 0 0 0 1 0 0 0 0 1 0 0 0 0 1 0 0 0 1 0"/>
<feBlend mode="normal" in2="shape" result="effect1_innerShadow"/>
</filter>
<filter id="filter5_i" x="89.825" y="27.2317" width="18.0375" height="11.0804" filterUnits="userSpaceOnUse" color-interpolation-filters="sRGB">
<feFlood flood-opacity="0" result="BackgroundImageFix"/>
<feBlend mode="normal" in="SourceGraphic" in2="BackgroundImageFix" result="shape"/>
<feColorMatrix in="SourceAlpha" type="matrix" values="0 0 0 0 0 0 0 0 0 0 0 0 0 0 0 0 0 0 127 0" result="hardAlpha"/>
<feOffset dy="0.925"/>
<feComposite in2="hardAlpha" operator="arithmetic" k2="-1" k3="1"/>
<feColorMatrix type="matrix" values="0 0 0 0 1 0 0 0 0 1 0 0 0 0 1 0 0 0 1 0"/>
<feBlend mode="normal" in2="shape" result="effect1_innerShadow"/>
</filter>
<filter id="filter6_i" x="73.6375" y="27.2317" width="12.4875" height="11.0804" filterUnits="userSpaceOnUse" color-interpolation-filters="sRGB">
<feFlood flood-opacity="0" result="BackgroundImageFix"/>
<feBlend mode="normal" in="SourceGraphic" in2="BackgroundImageFix" result="shape"/>
<feColorMatrix in="SourceAlpha" type="matrix" values="0 0 0 0 0 0 0 0 0 0 0 0 0 0 0 0 0 0 127 0" result="hardAlpha"/>
<feOffset dy="0.925"/>
<feComposite in2="hardAlpha" operator="arithmetic" k2="-1" k3="1"/>
<feColorMatrix type="matrix" values="0 0 0 0 1 0 0 0 0 1 0 0 0 0 1 0 0 0 1 0"/>
<feBlend mode="normal" in2="shape" result="effect1_innerShadow"/>
</filter>
<filter id="filter7_i" x="61.6125" y="27.2317" width="12.4875" height="11.0804" filterUnits="userSpaceOnUse" color-interpolation-filters="sRGB">
<feFlood flood-opacity="0" result="BackgroundImageFix"/>
<feBlend mode="normal" in="SourceGraphic" in2="BackgroundImageFix" result="shape"/>
<feColorMatrix in="SourceAlpha" type="matrix" values="0 0 0 0 0 0 0 0 0 0 0 0 0 0 0 0 0 0 127 0" result="hardAlpha"/>
<feOffset dy="0.925"/>
<feComposite in2="hardAlpha" operator="arithmetic" k2="-1" k3="1"/>
<feColorMatrix type="matrix" values="0 0 0 0 1 0 0 0 0 1 0 0 0 0 1 0 0 0 1 0"/>
<feBlend mode="normal" in2="shape" result="effect1_innerShadow"/>
</filter>
<linearGradient id="paint0_linear" x1="322" y1="24.4624" x2="322" y2="41.083" gradientUnits="userSpaceOnUse">
<stop stop-color="#E4E4E4"/>
<stop offset="1" stop-color="#CDCCCC"/>
</linearGradient>
<linearGradient id="paint1_linear" x1="606.437" y1="29.54" x2="606.437" y2="41.0821" gradientUnits="userSpaceOnUse">
<stop stop-color="#BFC0BF"/>
<stop offset="1" stop-color="#AFB0B0"/>
</linearGradient>
<linearGradient id="paint2_linear" x1="585.162" y1="27.2317" x2="585.162" y2="38.3121" gradientUnits="userSpaceOnUse">
<stop stop-color="#FBFBFB"/>
<stop offset="1" stop-color="#F3F3F3"/>
</linearGradient>
<linearGradient id="paint3_linear" x1="594.181" y1="27.2317" x2="594.181" y2="38.3121" gradientUnits="userSpaceOnUse">
<stop stop-color="#CECECE"/>
<stop offset="1" stop-color="#ACACAC"/>
</linearGradient>
<linearGradient id="paint4_linear" x1="564.35" y1="27.2317" x2="564.35" y2="38.3121" gradientUnits="userSpaceOnUse">
<stop stop-color="#FBFBFB"/>
<stop offset="1" stop-color="#F3F3F3"/>
</linearGradient>
<linearGradient id="paint5_linear" x1="573.369" y1="27.2317" x2="573.369" y2="38.3121" gradientUnits="userSpaceOnUse">
<stop stop-color="#CECECE"/>
<stop offset="1" stop-color="#ACACAC"/>
</linearGradient>
<linearGradient id="paint6_linear" x1="201.75" y1="27.2317" x2="201.75" y2="38.3121" gradientUnits="userSpaceOnUse">
<stop stop-color="#FBFBFB"/>
<stop offset="1" stop-color="#F3F3F3"/>
</linearGradient>
<linearGradient id="paint7_linear" x1="321.537" y1="27.2317" x2="321.537" y2="38.3121" gradientUnits="userSpaceOnUse">
<stop stop-color="#CECECE"/>
<stop offset="1" stop-color="#ACACAC"/>
</linearGradient>
<linearGradient id="paint8_linear" x1="89.825" y1="27.2317" x2="89.825" y2="38.3121" gradientUnits="userSpaceOnUse">
<stop stop-color="#FBFBFB"/>
<stop offset="1" stop-color="#F3F3F3"/>
</linearGradient>
<linearGradient id="paint9_linear" x1="98.8438" y1="27.2317" x2="98.8438" y2="38.3121" gradientUnits="userSpaceOnUse">
<stop stop-color="#CECECE"/>
<stop offset="1" stop-color="#ACACAC"/>
</linearGradient>
<linearGradient id="paint10_linear" x1="73.6375" y1="27.2317" x2="73.6375" y2="38.3121" gradientUnits="userSpaceOnUse">
<stop stop-color="#FBFBFB"/>
<stop offset="1" stop-color="#F3F3F3"/>
</linearGradient>
<linearGradient id="paint11_linear" x1="79.8813" y1="27.2317" x2="79.8813" y2="38.3121" gradientUnits="userSpaceOnUse">
<stop stop-color="#CECECE"/>
<stop offset="1" stop-color="#ACACAC"/>
</linearGradient>
<linearGradient id="paint12_linear" x1="61.6125" y1="27.2317" x2="61.6125" y2="38.3121" gradientUnits="userSpaceOnUse">
<stop stop-color="#FBFBFB"/>
<stop offset="1" stop-color="#F3F3F3"/>
</linearGradient>
<linearGradient id="paint13_linear" x1="67.8562" y1="27.2317" x2="67.8562" y2="38.3121" gradientUnits="userSpaceOnUse">
<stop stop-color="#CECECE"/>
<stop offset="1" stop-color="#ACACAC"/>
</linearGradient>
<linearGradient id="paint14_linear" x1="322" y1="24" x2="322" y2="440.55" gradientUnits="userSpaceOnUse">
<stop stop-color="#CFCFCF"/>
<stop offset="1" stop-color="#989898"/>
</linearGradient>
<linearGradient id="paint15_linear" x1="322" y1="24" x2="322" y2="440" gradientUnits="userSpaceOnUse">
<stop stop-color="#F4F4F4"/>
<stop offset="1" stop-color="#E7EBED"/>
</linearGradient>
<linearGradient id="paint16_linear" x1="617.769" y1="30.002" x2="617.769" y2="41.0823" gradientUnits="userSpaceOnUse">
<stop stop-color="#C5C5C6"/>
<stop offset="1" stop-color="#B7B6B6"/>
</linearGradient>
</defs>
</svg>
