<svg width="24" height="24" viewBox="0 0 24 24" fill="none" xmlns="http://www.w3.org/2000/svg">
<path d="M13.4551 21.3301C11.9863 21.5596 10.4842 21.4389 9.07092 20.9781C7.65764 20.5172 6.37315 19.7291 5.32201 18.678C4.27088 17.6269 3.48281 16.3424 3.02194 14.9291C2.56108 13.5158 2.44044 12.0137 2.66987 10.5449C2.09088 9.44367 1.87931 8.18607 2.06608 6.95597C2.25286 5.72586 2.82818 4.58775 3.70796 3.70796C4.58775 2.82818 5.72586 2.25286 6.95597 2.06608C8.18607 1.87931 9.44367 2.09088 10.5449 2.66987C12.0137 2.44044 13.5158 2.56108 14.9291 3.02194C16.3424 3.48281 17.6269 4.27088 18.678 5.32201C19.7291 6.37315 20.5172 7.65764 20.9781 9.07092C21.4389 10.4842 21.5596 11.9863 21.3301 13.4551C21.9091 14.5563 22.1207 15.8139 21.9339 17.044C21.7471 18.2741 21.1718 19.4123 20.292 20.292C19.4123 21.1718 18.2741 21.7471 17.044 21.9339C15.8139 22.1207 14.5563 21.9091 13.4551 21.3301ZM12.0578 17.7269H12.0133C15.2033 17.7269 16.7928 16.1875 16.7928 14.1248C16.7928 12.7942 16.1808 11.3802 13.765 10.8393L11.5624 10.3506C10.7238 10.1595 9.76077 9.90627 9.76077 9.1121C9.76077 8.31793 10.4494 7.76479 11.6757 7.76479C14.1526 7.76479 13.9271 9.46198 15.1534 9.46198C15.7931 9.46198 16.3674 9.08211 16.3674 8.429C16.3674 6.9073 13.9271 5.76325 11.8623 5.76325C9.61748 5.76325 7.22719 6.71737 7.22719 9.25539C7.22719 10.475 7.66482 11.7767 10.0707 12.3799L13.0574 13.1252C13.9638 13.3495 14.1881 13.8571 14.1881 14.3159C14.1881 15.0789 13.4284 15.8242 12.0578 15.8242C9.37312 15.8242 9.74966 13.7616 8.31016 13.7616C7.66593 13.7616 7.19609 14.2037 7.19609 14.8401C7.19609 16.0775 8.6978 17.7269 12.0578 17.7269Z" fill="#9EA7A9"/>
</svg>
