<svg width="80" height="80" viewBox="0 0 80 80" fill="none" xmlns="http://www.w3.org/2000/svg">
<path d="M55.9165 36.0924C55.707 35.4163 55.1323 34.936 54.4524 34.8721L45.2163 33.997L41.5641 25.0769C41.2948 24.4232 40.6815 24 40.0001 24C39.3187 24 38.7054 24.4232 38.4361 25.0784L34.7839 33.997L25.5464 34.8721C24.8677 34.9376 24.2944 35.4163 24.0837 36.0924C23.873 36.7686 24.0676 37.5102 24.5811 37.9777L31.5624 44.3667L29.5038 53.8294C29.3531 54.5252 29.6119 55.2444 30.1652 55.6617C30.4626 55.8859 30.8105 56 31.1613 56C31.4638 56 31.7639 55.9149 32.0331 55.7468L40.0001 50.7781L47.9642 55.7468C48.547 56.1126 49.2816 56.0792 49.8336 55.6617C50.3871 55.2431 50.6456 54.5236 50.495 53.8294L48.4364 44.3667L55.4177 37.9789C55.9312 37.5102 56.1272 36.7698 55.9165 36.0924Z" fill="white"/>
</svg>
