<svg width="80" height="80" viewBox="0 0 80 80" fill="none" xmlns="http://www.w3.org/2000/svg">
<path d="M10 16.6667C10 13 13 10 16.6667 10H63.3333C67 10 70 13 70 16.6667V63.3333C70 67 67 70 63.3333 70H16.6667C13 70 10 67 10 63.3333V16.6667Z" fill="white"/>
<path d="M30 16.6665H33.3333V59.9998H30V16.6665ZM43.3333 16.6665H46.6667V59.9998H43.3333V16.6665ZM56.6667 16.6665H60V59.9998H56.6667V16.6665Z" fill="#EDEFF0"/>
<path d="M20 50V46.6667H63.3333V50H20Z" fill="#EDEFF0"/>
<path d="M20 36.6665V33.3332H63.3333V36.6665H20Z" fill="#EDEFF0"/>
<path d="M20 23.3335V20.0002L63.3333 20.0002V23.3335L20 23.3335Z" fill="#EDEFF0"/>
<path d="M19.8251 62.4116L16.8434 60.9199L30.1767 34.2533C30.4167 33.7733 30.8717 33.4399 31.4001 33.3533C31.9384 33.2716 32.4701 33.4416 32.8451 33.8199L44.5434 45.5183L56.8434 20.9199L59.8251 22.4116L46.4917 49.0783C46.2517 49.5583 45.7967 49.8916 45.2684 49.9783C44.7317 50.0616 44.2 49.8899 43.8234 49.5116L32.125 37.8133L19.8251 62.4116Z" fill="#37C277"/>
<path d="M31.6667 31.6668C30.7827 31.6668 29.9348 32.018 29.3097 32.6431C28.6846 33.2683 28.3334 34.1161 28.3334 35.0002C28.3334 35.8842 28.6846 36.7321 29.3097 37.3572C29.9348 37.9823 30.7827 38.3335 31.6667 38.3335C32.5508 38.3335 33.3986 37.9823 34.0237 37.3572C34.6489 36.7321 35 35.8842 35 35.0002C35 34.1161 34.6489 33.2683 34.0237 32.6431C33.3986 32.018 32.5508 31.6668 31.6667 31.6668ZM45 45.0002C44.116 45.0002 43.2681 45.3514 42.643 45.9765C42.0179 46.6016 41.6667 47.4494 41.6667 48.3335C41.6667 49.2176 42.0179 50.0654 42.643 50.6905C43.2681 51.3156 44.116 51.6668 45 51.6668C45.8841 51.6668 46.7319 51.3156 47.3571 50.6905C47.9822 50.0654 48.3334 49.2176 48.3334 48.3335C48.3334 47.4494 47.9822 46.6016 47.3571 45.9765C46.7319 45.3514 45.8841 45.0002 45 45.0002ZM58.3334 18.3335C57.4493 18.3335 56.6015 18.6847 55.9763 19.3098C55.3512 19.9349 55 20.7828 55 21.6668C55 22.5509 55.3512 23.3987 55.9763 24.0239C56.6015 24.649 57.4493 25.0002 58.3334 25.0002C59.2174 25.0002 60.0653 24.649 60.6904 24.0239C61.3155 23.3987 61.6667 22.5509 61.6667 21.6668C61.6667 20.7828 61.3155 19.9349 60.6904 19.3098C60.0653 18.6847 59.2174 18.3335 58.3334 18.3335Z" fill="#32B36D"/>
<path d="M63.3333 63.3332H16.6666V16.6665H20V59.9998H63.3333V63.3332Z" fill="#32B36D"/>
</svg>
