<svg width="80" height="80" viewBox="0 0 80 80" fill="none" xmlns="http://www.w3.org/2000/svg">
<path d="M6.6666 31.7998H69.9999V65.1331H6.6666V31.7998Z" fill="white"/>
<path opacity="0.5" d="M6.6666 31.7998H69.9999V65.1331H6.6666V31.7998Z" fill="#37C277"/>
<path d="M5 64.8C5 65.9045 5.89543 66.8 7 66.8H69.6667C70.7712 66.8 71.6667 65.9045 71.6667 64.8V32.1333C71.6667 31.0287 70.7712 30.1333 69.6667 30.1333H7C5.89543 30.1333 5 31.0287 5 32.1333V64.8ZM66.3333 33.4666C67.4379 33.4666 68.3333 34.3621 68.3333 35.4666V61.4666C68.3333 62.5712 67.4379 63.4666 66.3333 63.4666H10.3333C9.22876 63.4666 8.33333 62.5712 8.33333 61.4666V35.4666C8.33333 34.3621 9.22876 33.4666 10.3333 33.4666H66.3333Z" fill="#32B36D"/>
<path d="M18.3333 45.1331C17.4492 45.1331 16.6014 45.4843 15.9762 46.1094C15.3511 46.7346 14.9999 47.5824 14.9999 48.4665C14.9999 49.3505 15.3511 50.1984 15.9762 50.8235C16.6014 51.4486 17.4492 51.7998 18.3333 51.7998C19.2173 51.7998 20.0652 51.4486 20.6903 50.8235C21.3154 50.1984 21.6666 49.3505 21.6666 48.4665C21.6666 47.5824 21.3154 46.7346 20.6903 46.1094C20.0652 45.4843 19.2173 45.1331 18.3333 45.1331ZM38.3333 36.7998C36.8012 36.7998 35.2841 37.1016 33.8686 37.6879C32.4532 38.2742 31.167 39.1335 30.0837 40.2169C29.0003 41.3002 28.141 42.5864 27.5547 44.0018C26.9684 45.4173 26.6666 46.9344 26.6666 48.4665C26.6666 49.9986 26.9684 51.5156 27.5547 52.9311C28.141 54.3466 29.0003 55.6327 30.0837 56.716C31.167 57.7994 32.4532 58.6588 33.8686 59.2451C35.2841 59.8314 36.8012 60.1331 38.3333 60.1331C39.8653 60.1331 41.3824 59.8314 42.7979 59.2451C44.2134 58.6588 45.4995 57.7994 46.5828 56.716C47.6662 55.6327 48.5255 54.3466 49.1119 52.9311C49.6982 51.5156 49.9999 49.9986 49.9999 48.4665C49.9999 46.9344 49.6982 45.4173 49.1119 44.0018C48.5255 42.5864 47.6662 41.3002 46.5828 40.2169C45.4995 39.1335 44.2134 38.2742 42.7979 37.6879C41.3824 37.1016 39.8653 36.7998 38.3333 36.7998ZM13.7016 31.7998H6.6666V38.8348C7.55326 39.6331 8.71326 40.1331 9.99993 40.1331C12.7616 40.1331 14.9999 37.8948 14.9999 35.1331C14.9999 33.8465 14.4999 32.6865 13.7016 31.7998ZM13.7016 65.1331C14.4999 64.2465 14.9999 63.0865 14.9999 61.7998C14.9999 59.0381 12.7616 56.7998 9.99993 56.7998C8.71326 56.7998 7.55326 57.2998 6.6666 58.0981V65.1331H13.7016ZM69.9999 65.1331V58.0981C69.1133 57.2998 67.9533 56.7998 66.6666 56.7998C63.9049 56.7998 61.6666 59.0381 61.6666 61.7998C61.6666 63.0865 62.1666 64.2465 62.9649 65.1331H69.9999Z" fill="#32B36D"/>
<path d="M59.1667 16.7998C54.9675 16.7998 50.9402 18.468 47.9709 21.4373C45.0016 24.4066 43.3334 28.4339 43.3334 32.6331C43.3334 36.8324 45.0016 40.8597 47.9709 43.829C50.9402 46.7983 54.9675 48.4665 59.1667 48.4665C63.366 48.4665 67.3933 46.7983 70.3626 43.829C73.3319 40.8597 75.0001 36.8324 75.0001 32.6331C75.0001 28.4339 73.3319 24.4066 70.3626 21.4373C67.3933 18.468 63.366 16.7998 59.1667 16.7998Z" fill="#DFE4E6"/>
<path opacity="0.5" d="M59.1667 20.3184C57.5495 20.3184 55.9481 20.6369 54.454 21.2558C52.9599 21.8747 51.6023 22.7818 50.4587 23.9253C49.3152 25.0689 48.4081 26.4265 47.7892 27.9206C47.1703 29.4147 46.8517 31.0161 46.8517 32.6334C46.8517 34.2506 47.1703 35.852 47.7892 37.3461C48.4081 38.8402 49.3152 40.1978 50.4587 41.3414C51.6023 42.4849 52.9599 43.392 54.454 44.0109C55.9481 44.6298 57.5495 44.9484 59.1667 44.9484C60.784 44.9484 62.3854 44.6298 63.8795 44.0109C65.3736 43.392 66.7312 42.4849 67.8748 41.3414C69.0183 40.1978 69.9254 38.8402 70.5443 37.3461C71.1632 35.852 71.4817 34.2506 71.4817 32.6334C71.4817 31.0161 71.1632 29.4147 70.5443 27.9206C69.9254 26.4265 69.0183 25.0689 67.8748 23.9253C66.7312 22.7818 65.3736 21.8747 63.8795 21.2558C62.3854 20.6369 60.784 20.3184 59.1667 20.3184Z" fill="#EDEFF0"/>
<path d="M48.3333 3.46631C43.471 3.46631 38.8079 5.39785 35.3697 8.83602C31.9315 12.2742 30 16.9373 30 21.7996C30 26.6619 31.9315 31.3251 35.3697 34.7633C38.8079 38.2014 43.471 40.133 48.3333 40.133C53.1956 40.133 57.8588 38.2014 61.297 34.7633C64.7351 31.3251 66.6667 26.6619 66.6667 21.7996C66.6667 16.9373 64.7351 12.2742 61.297 8.83602C57.8588 5.39785 53.1956 3.46631 48.3333 3.46631Z" fill="#EDEFF0"/>
<path d="M54.9999 48.4668C54.9999 48.2751 55.0249 48.0918 55.0566 47.9085C53.0183 47.3618 51.1449 46.4218 49.5199 45.1685C49.8283 46.2151 49.9999 47.3201 49.9999 48.4668C49.9999 48.7918 49.9783 49.1118 49.9516 49.4301C52.2633 50.7035 54.8649 51.5001 57.6283 51.7218C56.1266 51.3985 54.9999 50.0651 54.9999 48.4668ZM61.6666 48.4668C61.6666 50.2118 60.3199 51.6285 58.6116 51.7718C58.7983 51.7768 58.9799 51.8001 59.1666 51.8001C62.4849 51.8001 65.6083 50.9501 68.3333 49.4601V45.5268C66.3849 46.9151 64.1099 47.8651 61.6449 48.2535C61.6499 48.3251 61.6666 48.3935 61.6666 48.4668Z" fill="#32B36D"/>
<path d="M70 44.1583C69.4767 44.6517 68.92 45.1083 68.3333 45.5267V49.46C68.9083 49.145 69.4617 48.7983 70 48.4283C70.5817 48.0283 71.1333 47.59 71.6667 47.13V42.3267C71.1583 42.9817 70.6017 43.5917 70 44.1583ZM61.6667 48.4667C61.6667 48.3933 61.65 48.325 61.645 48.2533C60.835 48.3817 60.0117 48.4667 59.1667 48.4667C57.7433 48.4667 56.3683 48.2617 55.0567 47.9083C55.025 48.0917 55 48.275 55 48.4667C55 50.065 56.1267 51.3983 57.6283 51.7217C57.9533 51.7483 58.2817 51.7617 58.6117 51.7717C60.32 51.6283 61.6667 50.2117 61.6667 48.4667Z" fill="#2D9F61"/>
<path d="M33.7217 37.7513C34.9951 37.203 36.3867 36.8846 37.8467 36.8246C36.4834 35.8713 35.2501 34.7463 34.1917 33.4663H30.1051C31.1217 35.0496 32.3401 36.4846 33.7217 37.7513Z" fill="#32B36D"/>
<path d="M34.1916 33.4666C33.3483 32.445 32.6266 31.3233 32.0183 30.1333H28.3383C28.8266 31.3033 29.4283 32.4116 30.105 33.4666H34.1916ZM49.52 45.1683C48.8366 44.6416 48.1983 44.06 47.6083 43.43C46.605 42.3566 45.75 41.1483 45.075 39.8266C43.6366 39.5683 42.2566 39.1483 40.955 38.575C39.8583 38.0916 38.8183 37.5033 37.8466 36.8233C36.3866 36.8833 34.995 37.2016 33.7216 37.75C36.2966 40.1116 39.4366 41.8533 42.9216 42.7533C44.66 45.5316 47.075 47.8433 49.9533 49.43C49.9783 49.1116 50 48.7916 50 48.4666C50 47.32 49.8283 46.215 49.52 45.1683Z" fill="#2D9F61"/>
<path opacity="0.5" d="M48.3334 6.7998C44.3552 6.7998 40.5398 8.38016 37.7268 11.1932C34.9138 14.0062 33.3334 17.8216 33.3334 21.7998C33.3334 25.7781 34.9138 29.5934 37.7268 32.4064C40.5398 35.2194 44.3552 36.7998 48.3334 36.7998C52.3116 36.7998 56.127 35.2194 58.94 32.4064C61.753 29.5934 63.3334 25.7781 63.3334 21.7998C63.3334 17.8216 61.753 14.0062 58.94 11.1932C56.127 8.38016 52.3116 6.7998 48.3334 6.7998Z" fill="white"/>
</svg>
