<svg width="24" height="24" viewBox="0 0 24 24" fill="none" xmlns="http://www.w3.org/2000/svg">
<path fill-rule="evenodd" clip-rule="evenodd" d="M8.93013 2H15.0699C20.6733 2 22 3.32675 22 8.93013V15.0699C22 20.6733 20.6733 22 15.0699 22H8.93013C3.32675 22 2 20.6733 2 15.0699V8.93013C2 3.32675 3.32675 2 8.93013 2ZM18.3725 8.8878C18.4713 8.57728 18.3725 8.35146 17.935 8.35146H16.4812C16.1142 8.35146 15.9449 8.54906 15.8461 8.76077C15.8461 8.76077 15.098 10.5674 14.0536 11.7389C13.7148 12.0776 13.5596 12.1906 13.3761 12.1906C13.2773 12.1906 13.1502 12.0776 13.1502 11.7671V8.87368C13.1502 8.50671 13.0373 8.33734 12.7268 8.33734H10.4403C10.2145 8.33734 10.0733 8.50671 10.0733 8.67608C10.0733 9.02894 10.5955 9.11363 10.652 10.1016V12.247C10.652 12.7128 10.5673 12.7975 10.3838 12.7975C9.88983 12.7975 8.69011 10.9767 7.97028 8.90191C7.82914 8.4926 7.68799 8.33734 7.32102 8.33734H5.85313C5.4297 8.33734 5.35913 8.53494 5.35913 8.74666C5.35913 9.12774 5.85313 11.0473 7.65977 13.5879C8.85948 15.3239 10.5673 16.2555 12.1058 16.2555C13.0373 16.2555 13.1502 16.0438 13.1502 15.6909V14.3783C13.1502 13.9548 13.2349 13.8843 13.5313 13.8843C13.743 13.8843 14.1241 13.9972 14.9851 14.8299C15.9731 15.8179 16.1425 16.2696 16.6929 16.2696H18.1467C18.5701 16.2696 18.7677 16.0579 18.6548 15.6486C18.5278 15.2392 18.0479 14.6464 17.4269 13.9407C17.0881 13.5455 16.58 13.108 16.4248 12.8963C16.213 12.614 16.2695 12.5011 16.4248 12.247C16.4106 12.247 18.1891 9.73466 18.3725 8.8878Z" fill="#37C277"/>
</svg>
