<svg width="56" height="56" viewBox="0 0 56 56" fill="none" xmlns="http://www.w3.org/2000/svg">
<path d="M28 4.66663C28 4.66663 18.6737 14 9.34617 14C9.34617 14 8.18067 40.8333 28.2018 51.3333C47.8193 40.8333 46.6538 14 46.6538 14C46.6527 14 46.6527 14 46.6515 14C36.1608 14 28 4.66663 28 4.66663Z" fill="white"/>
<path d="M41.853 18.1569C35.8645 16.8945 30.9377 13.5415 27.8775 10.9749C24.7275 13.4704 19.7517 16.7674 14.1482 18.0869C14.6872 24.8279 17.1593 38.6657 28.175 45.9095C38.8943 38.6867 41.321 24.9282 41.853 18.1569Z" fill="#37C277"/>
<path d="M27.8775 10.9736C24.7275 13.4691 19.7517 16.7661 14.1482 18.0856C14.2275 19.0738 14.3558 20.2265 14.5378 21.476C19.9792 20.0981 24.7998 16.9096 27.8763 14.4736C30.8688 16.9843 35.6568 20.2346 41.468 21.5565C41.6477 20.3058 41.7737 19.1496 41.8518 18.1556C35.8645 16.8933 30.9377 13.5403 27.8775 10.9736Z" fill="#32B36D"/>
<path d="M28 7C27.6906 7 27.3938 7.12292 27.175 7.34171C26.9562 7.5605 26.8333 7.85725 26.8333 8.16667C26.8333 8.47609 26.9562 8.77283 27.175 8.99162C27.3938 9.21042 27.6906 9.33333 28 9.33333C28.3094 9.33333 28.6062 9.21042 28.825 8.99162C29.0438 8.77283 29.1667 8.47609 29.1667 8.16667C29.1667 7.85725 29.0438 7.5605 28.825 7.34171C28.6062 7.12292 28.3094 7 28 7ZM44.3333 15.1667C44.0239 15.1667 43.7272 15.2896 43.5084 15.5084C43.2896 15.7272 43.1667 16.0239 43.1667 16.3333C43.1667 16.6428 43.2896 16.9395 43.5084 17.1583C43.7272 17.3771 44.0239 17.5 44.3333 17.5C44.6427 17.5 44.9395 17.3771 45.1583 17.1583C45.3771 16.9395 45.5 16.6428 45.5 16.3333C45.5 16.0239 45.3771 15.7272 45.1583 15.5084C44.9395 15.2896 44.6427 15.1667 44.3333 15.1667ZM28 46.6667C27.6906 46.6667 27.3938 46.7896 27.175 47.0084C26.9562 47.2272 26.8333 47.5239 26.8333 47.8333C26.8333 48.1427 26.9562 48.4395 27.175 48.6583C27.3938 48.8771 27.6906 49 28 49C28.3094 49 28.6062 48.8771 28.825 48.6583C29.0438 48.4395 29.1667 48.1427 29.1667 47.8333C29.1667 47.5239 29.0438 47.2272 28.825 47.0084C28.6062 46.7896 28.3094 46.6667 28 46.6667ZM11.6667 15.1667C11.3572 15.1667 11.0605 15.2896 10.8417 15.5084C10.6229 15.7272 10.5 16.0239 10.5 16.3333C10.5 16.6428 10.6229 16.9395 10.8417 17.1583C11.0605 17.3771 11.3572 17.5 11.6667 17.5C11.9761 17.5 12.2728 17.3771 12.4916 17.1583C12.7104 16.9395 12.8333 16.6428 12.8333 16.3333C12.8333 16.0239 12.7104 15.7272 12.4916 15.5084C12.2728 15.2896 11.9761 15.1667 11.6667 15.1667ZM15.1667 32.6667C14.8572 32.6667 14.5605 32.7896 14.3417 33.0084C14.1229 33.2272 14 33.5239 14 33.8333C14 34.1428 14.1229 34.4395 14.3417 34.6583C14.5605 34.8771 14.8572 35 15.1667 35C15.4761 35 15.7728 34.8771 15.9916 34.6583C16.2104 34.4395 16.3333 34.1428 16.3333 33.8333C16.3333 33.5239 16.2104 33.2272 15.9916 33.0084C15.7728 32.7896 15.4761 32.6667 15.1667 32.6667ZM40.8333 32.6667C40.5239 32.6667 40.2272 32.7896 40.0084 33.0084C39.7896 33.2272 39.6667 33.5239 39.6667 33.8333C39.6667 34.1428 39.7896 34.4395 40.0084 34.6583C40.2272 34.8771 40.5239 35 40.8333 35C41.1428 35 41.4395 34.8771 41.6583 34.6583C41.8771 34.4395 42 34.1428 42 33.8333C42 33.5239 41.8771 33.2272 41.6583 33.0084C41.4395 32.7896 41.1428 32.6667 40.8333 32.6667Z" fill="#37C277"/>
</svg>
