<svg width="56" height="56" viewBox="0 0 56 56" fill="none" xmlns="http://www.w3.org/2000/svg">
<path d="M7 11.6667C7 9.1 9.1 7 11.6667 7H44.3333C46.9 7 49 9.1 49 11.6667V44.3333C49 46.9 46.9 49 44.3333 49H11.6667C9.1 49 7 46.9 7 44.3333V11.6667Z" fill="white"/>
<path d="M21 11.6666H23.3333V42H21V11.6666ZM30.3333 11.6666H32.6667V42H30.3333V11.6666ZM39.6667 11.6666H42V42H39.6667V11.6666Z" fill="#EDEFF0"/>
<path d="M14 35V32.6667H44.3333V35H14Z" fill="#EDEFF0"/>
<path d="M14 25.6666V23.3333H44.3333V25.6666L14 25.6666Z" fill="#EDEFF0"/>
<path d="M14 16.3334V14L44.3333 14V16.3334L14 16.3334Z" fill="#EDEFF0"/>
<path d="M13.8775 43.6882L11.7903 42.644L21.1237 23.9774C21.2917 23.6414 21.6102 23.408 21.98 23.3474C22.3568 23.2902 22.729 23.4092 22.9915 23.674L31.1803 31.8629L39.7903 14.644L41.8775 15.6882L32.5442 34.3549C32.3762 34.6909 32.0577 34.9242 31.6878 34.9849C31.3122 35.0432 30.94 34.923 30.6763 34.6582L22.4875 26.4694L13.8775 43.6882Z" fill="#37C277"/>
<path d="M22.1666 22.1667C21.5478 22.1667 20.9543 22.4125 20.5167 22.8501C20.0791 23.2877 19.8333 23.8812 19.8333 24.5C19.8333 25.1189 20.0791 25.7124 20.5167 26.15C20.9543 26.5875 21.5478 26.8334 22.1666 26.8334C22.7855 26.8334 23.379 26.5875 23.8166 26.15C24.2541 25.7124 24.5 25.1189 24.5 24.5C24.5 23.8812 24.2541 23.2877 23.8166 22.8501C23.379 22.4125 22.7855 22.1667 22.1666 22.1667ZM31.5 31.5C30.8811 31.5 30.2876 31.7459 29.8501 32.1835C29.4125 32.621 29.1666 33.2145 29.1666 33.8334C29.1666 34.4522 29.4125 35.0457 29.8501 35.4833C30.2876 35.9209 30.8811 36.1667 31.5 36.1667C32.1188 36.1667 32.7123 35.9209 33.1499 35.4833C33.5875 35.0457 33.8333 34.4522 33.8333 33.8334C33.8333 33.2145 33.5875 32.621 33.1499 32.1835C32.7123 31.7459 32.1188 31.5 31.5 31.5ZM40.8333 12.8334C40.2145 12.8334 39.621 13.0792 39.1834 13.5168C38.7458 13.9544 38.5 14.5479 38.5 15.1667C38.5 15.7855 38.7458 16.379 39.1834 16.8166C39.621 17.2542 40.2145 17.5 40.8333 17.5C41.4521 17.5 42.0456 17.2542 42.4832 16.8166C42.9208 16.379 43.1666 15.7855 43.1666 15.1667C43.1666 14.5479 42.9208 13.9544 42.4832 13.5168C42.0456 13.0792 41.4521 12.8334 40.8333 12.8334Z" fill="#32B36D"/>
<path d="M44.3334 44.3333H11.6667V11.6666H14V42H44.3334V44.3333Z" fill="#32B36D"/>
</svg>
