<svg width="56" height="56" viewBox="0 0 56 56" fill="none" xmlns="http://www.w3.org/2000/svg">
<path d="M4.66663 22.26H49V45.5933H4.66663V22.26Z" fill="white"/>
<path opacity="0.1" d="M4.66663 22.26H49V45.5933H4.66663V22.26Z" fill="#37C277"/>
<path d="M3.5 44.76C3.5 45.8646 4.39543 46.76 5.5 46.76H48.1667C49.2712 46.76 50.1667 45.8646 50.1667 44.76V23.0934C50.1667 21.9888 49.2712 21.0934 48.1667 21.0934H5.5C4.39543 21.0934 3.5 21.9888 3.5 23.0934V44.76ZM45.8333 23.4267C46.9379 23.4267 47.8333 24.3221 47.8333 25.4267V42.4267C47.8333 43.5313 46.9379 44.4267 45.8333 44.4267H7.83333C6.72876 44.4267 5.83333 43.5313 5.83333 42.4267V25.4267C5.83333 24.3221 6.72876 23.4267 7.83333 23.4267H45.8333Z" fill="#32B36D"/>
<path d="M12.8333 31.5933C12.2145 31.5933 11.621 31.8392 11.1834 32.2768C10.7458 32.7143 10.5 33.3078 10.5 33.9267C10.5 34.5455 10.7458 35.139 11.1834 35.5766C11.621 36.0142 12.2145 36.26 12.8333 36.26C13.4521 36.26 14.0456 36.0142 14.4832 35.5766C14.9208 35.139 15.1666 34.5455 15.1666 33.9267C15.1666 33.3078 14.9208 32.7143 14.4832 32.2768C14.0456 31.8392 13.4521 31.5933 12.8333 31.5933ZM26.8333 25.76C25.7608 25.76 24.6989 25.9712 23.708 26.3817C22.7172 26.7921 21.8169 27.3936 21.0586 28.152C20.3002 28.9103 19.6987 29.8106 19.2883 30.8014C18.8779 31.7923 18.6666 32.8542 18.6666 33.9267C18.6666 34.9991 18.8779 36.0611 19.2883 37.0519C19.6987 38.0428 20.3002 38.943 21.0586 39.7014C21.8169 40.4597 22.7172 41.0613 23.708 41.4717C24.6989 41.8821 25.7608 42.0933 26.8333 42.0933C27.9058 42.0933 28.9677 41.8821 29.9585 41.4717C30.9494 41.0613 31.8497 40.4597 32.608 39.7014C33.3663 38.943 33.9679 38.0428 34.3783 37.0519C34.7887 36.0611 35 34.9991 35 33.9267C35 32.8542 34.7887 31.7923 34.3783 30.8014C33.9679 29.8106 33.3663 28.9103 32.608 28.152C31.8497 27.3936 30.9494 26.7921 29.9585 26.3817C28.9677 25.9712 27.9058 25.76 26.8333 25.76ZM9.59113 22.26H4.66663V27.1845C5.28729 27.7433 6.09929 28.0933 6.99996 28.0933C8.93313 28.0933 10.5 26.5265 10.5 24.5933C10.5 23.6927 10.15 22.8807 9.59113 22.26ZM9.59113 45.5933C10.15 44.9727 10.5 44.1607 10.5 43.26C10.5 41.3268 8.93313 39.76 6.99996 39.76C6.09929 39.76 5.28729 40.11 4.66663 40.6688V45.5933H9.59113ZM49 45.5933V40.6688C48.3793 40.11 47.5673 39.76 46.6666 39.76C44.7335 39.76 43.1666 41.3268 43.1666 43.26C43.1666 44.1607 43.5166 44.9727 44.0755 45.5933H49Z" fill="#32B36D"/>
<path d="M41.4167 11.76C38.4772 11.76 35.6581 12.9277 33.5796 15.0062C31.5011 17.0848 30.3334 19.9039 30.3334 22.8433C30.3334 25.7828 31.5011 28.6019 33.5796 30.6804C35.6581 32.759 38.4772 33.9267 41.4167 33.9267C44.3562 33.9267 47.1753 32.759 49.2538 30.6804C51.3323 28.6019 52.5 25.7828 52.5 22.8433C52.5 19.9039 51.3323 17.0848 49.2538 15.0062C47.1753 12.9277 44.3562 11.76 41.4167 11.76Z" fill="#CED3D4"/>
<path d="M41.4168 14.2229C40.2847 14.2229 39.1637 14.4459 38.1178 14.8791C37.072 15.3123 36.1216 15.9473 35.3212 16.7478C34.5207 17.5483 33.8857 18.4986 33.4525 19.5445C33.0192 20.5904 32.7963 21.7113 32.7963 22.8434C32.7963 23.9755 33.0192 25.0964 33.4525 26.1423C33.8857 27.1882 34.5207 28.1385 35.3212 28.939C36.1216 29.7395 37.072 30.3745 38.1178 30.8077C39.1637 31.2409 40.2847 31.4639 41.4168 31.4639C42.5488 31.4639 43.6698 31.2409 44.7157 30.8077C45.7616 30.3745 46.7119 29.7395 47.5124 28.939C48.3129 28.1385 48.9478 27.1882 49.3811 26.1423C49.8143 25.0964 50.0373 23.9755 50.0373 22.8434C50.0373 21.7113 49.8143 20.5904 49.3811 19.5445C48.9478 18.4986 48.3129 17.5483 47.5124 16.7478C46.7119 15.9473 45.7616 15.3123 44.7157 14.8791C43.6698 14.4459 42.5488 14.2229 41.4168 14.2229Z" fill="#EDEFF0"/>
<path d="M33.8333 2.42664C30.4297 2.42664 27.1655 3.77872 24.7588 6.18543C22.3521 8.59215 21 11.8564 21 15.26C21 18.6636 22.3521 21.9278 24.7588 24.3345C27.1655 26.7412 30.4297 28.0933 33.8333 28.0933C37.2369 28.0933 40.5012 26.7412 42.9079 24.3345C45.3146 21.9278 46.6667 18.6636 46.6667 15.26C46.6667 11.8564 45.3146 8.59215 42.9079 6.18543C40.5012 3.77872 37.2369 2.42664 33.8333 2.42664Z" fill="#DFE4E6"/>
<path d="M38.4999 33.9266C38.4999 33.7925 38.5174 33.6641 38.5396 33.5358C37.1128 33.1531 35.8014 32.4951 34.6639 31.6178C34.8798 32.3505 34.9999 33.124 34.9999 33.9266C34.9999 34.1541 34.9848 34.3781 34.9661 34.601C36.5843 35.4923 38.4054 36.05 40.3398 36.2051C39.2886 35.9788 38.4999 35.0455 38.4999 33.9266ZM43.1666 33.9266C43.1666 35.1481 42.2239 36.1398 41.0281 36.2401C41.1588 36.2436 41.2859 36.26 41.4166 36.26C43.7394 36.26 45.9258 35.665 47.8333 34.622V31.8686C46.4694 32.8405 44.8769 33.5055 43.1514 33.7773C43.1549 33.8275 43.1666 33.8753 43.1666 33.9266Z" fill="#32B36D"/>
<path d="M49 30.9108C48.6337 31.2562 48.244 31.5758 47.8333 31.8687V34.622C48.2358 34.4015 48.6232 34.1588 49 33.8998C49.4072 33.6198 49.7933 33.313 50.1667 32.991V29.6287C49.8108 30.0872 49.4212 30.5142 49 30.9108ZM43.1667 33.9267C43.1667 33.8753 43.155 33.8275 43.1515 33.7773C42.5845 33.8672 42.0082 33.9267 41.4167 33.9267C40.4203 33.9267 39.4578 33.7832 38.5397 33.5358C38.5175 33.6642 38.5 33.7925 38.5 33.9267C38.5 35.0455 39.2887 35.9788 40.3398 36.2052C40.5673 36.2238 40.7972 36.2332 41.0282 36.2402C42.224 36.1398 43.1667 35.1482 43.1667 33.9267Z" fill="#2D9F61"/>
<path d="M23.6053 26.4261C24.4966 26.0423 25.4708 25.8195 26.4928 25.7775C25.5384 25.1101 24.6751 24.3226 23.9343 23.4266H21.0736C21.7853 24.535 22.6381 25.5395 23.6053 26.4261Z" fill="#32B36D"/>
<path d="M23.9341 23.4267C23.3438 22.7116 22.8386 21.9264 22.4128 21.0934H19.8368C20.1786 21.9124 20.5998 22.6882 21.0735 23.4267H23.9341ZM34.664 31.6179C34.1856 31.2492 33.7388 30.8421 33.3258 30.4011C32.6235 29.6497 32.025 28.8039 31.5525 27.8787C30.5456 27.6979 29.5796 27.4039 28.6685 27.0026C27.9008 26.6642 27.1728 26.2524 26.4926 25.7764C25.4706 25.8184 24.4965 26.0412 23.6051 26.425C25.4076 28.0782 27.6056 29.2974 30.0451 29.9274C31.262 31.8722 32.9525 33.4904 34.9673 34.601C34.9848 34.3782 35 34.1542 35 33.9267C35 33.1241 34.8798 32.3505 34.664 31.6179Z" fill="#2D9F61"/>
<path d="M33.8334 4.76001C31.0486 4.76001 28.3779 5.86626 26.4088 7.83539C24.4396 9.80452 23.3334 12.4752 23.3334 15.26C23.3334 18.0448 24.4396 20.7155 26.4088 22.6846C28.3779 24.6538 31.0486 25.76 33.8334 25.76C36.6181 25.76 39.2889 24.6538 41.258 22.6846C43.2271 20.7155 44.3334 18.0448 44.3334 15.26C44.3334 12.4752 43.2271 9.80452 41.258 7.83539C39.2889 5.86626 36.6181 4.76001 33.8334 4.76001Z" fill="white"/>
<path d="M29.6672 15.54L30.6239 9.42664H37.1665V11.4811H32.641L32.1674 14.0116C32.3634 13.8996 33.0599 13.5928 34.3117 13.5928C35.4959 13.5928 36.407 13.93 37.0429 14.6066C37.6799 15.2845 38.0007 16.0055 38.0007 17.227C38.0007 17.9643 37.8304 18.6328 37.4885 19.2325C37.1455 19.8321 36.6672 20.2906 36.05 20.6103C35.4305 20.9323 34.7037 21.0933 33.8614 21.0933C33.1135 21.0933 32.41 20.9428 31.7555 20.6465C31.0999 20.3501 30.5865 19.9418 30.2144 19.4226C29.8434 18.9035 29.6602 18.4123 29.666 17.7601H32.1662C32.1942 18.1825 32.3342 18.4181 32.585 18.6666C32.837 18.914 33.4355 19.0376 33.8462 19.0376C34.7749 19.0376 35.5005 18.3738 35.5005 17.0485C35.5005 15.8211 34.9709 15.26 33.8334 15.26C33.1894 15.26 32.4835 15.6928 32.1662 16.093L29.6672 15.54Z" fill="#EDEFF0"/>
</svg>
