<svg width="56" height="56" viewBox="0 0 56 56" fill="none" xmlns="http://www.w3.org/2000/svg">
<path d="M5.83325 12.8334H36.1666V32.6667H5.83325V12.8334Z" fill="#37C277"/>
<path d="M19.8333 29.1666H50.1666V49H19.8333V29.1666Z" fill="white"/>
<path d="M10.4999 18.6667H18.6666V26.8333H10.4999V18.6667ZM23.3333 18.6667H31.4999V26.8333H23.3333V18.6667ZM36.1666 12.8333V8.16667C36.1666 7.5215 35.6451 7 34.9999 7H6.99992C6.35592 7 5.83325 7.5215 5.83325 8.16667V12.8333H36.1666Z" fill="#32B36D"/>
<path d="M24.4999 35H32.6666V43.1667H24.4999V35ZM37.3333 35H45.4999V43.1667H37.3333V35ZM50.1666 29.1667V24.5C50.1666 23.8549 49.6451 23.3334 48.9999 23.3334H20.9999C20.3559 23.3334 19.8333 23.8549 19.8333 24.5V29.1667H50.1666Z" fill="#DFE4E6"/>
</svg>
