<svg width="56" height="56" viewBox="0 0 56 56" fill="none" xmlns="http://www.w3.org/2000/svg">
<path d="M46.6538 14C46.6538 14 47.8193 40.8333 28.2018 51.3333C8.18067 40.8333 9.34617 14 9.34617 14C18.6737 14 28 4.66663 28 4.66663C28 4.66663 36.1608 14 46.6538 14Z" fill="#37C277"/>
<path d="M18.6667 22.1666H37.3334V35H18.6667V22.1666Z" fill="#37C277"/>
<path d="M30.6682 29.232H25.3317L18.928 21.168H37.072L30.6682 29.232Z" fill="#DFE4E6"/>
<path d="M30.6526 37.1369L25.3473 40.32V29.179H30.6526V37.1369ZM37.2841 21.7516H18.7157C18.2913 21.7516 17.9199 21.3802 17.9199 20.9558C17.9199 20.5314 18.2913 20.16 18.7157 20.16H37.2841C37.7086 20.16 38.0799 20.5314 38.0799 20.9558C38.0799 21.3802 37.7086 21.7516 37.2841 21.7516Z" fill="white"/>
</svg>
