<svg width="56" height="56" viewBox="0 0 56 56" fill="none" xmlns="http://www.w3.org/2000/svg">
<path d="M17.4999 46.6667H44.3333L51.3333 53.6667V29.1667C51.3333 26.6 49.2333 24.5 46.6666 24.5H17.4999C14.9333 24.5 12.8333 26.6 12.8333 29.1667V42C12.8333 44.5667 14.9333 46.6667 17.4999 46.6667Z" fill="#37C277"/>
<path d="M33.5999 38.2667H29.3999L28.5833 40.7167H26.0166L30.3333 29.05H32.5499L36.8666 40.7167H34.2999L33.5999 38.2667ZM29.9833 36.4001H32.8999L31.4999 31.9667L29.9833 36.4001Z" fill="#32B36D"/>
<path d="M38.5001 29.1666H11.6667L4.66675 36.1666V9.33329C4.66675 6.76663 6.76675 4.66663 9.33341 4.66663H38.5001C41.0667 4.66663 43.1667 6.76663 43.1667 9.33329V24.5C43.1667 27.0666 41.0667 29.1666 38.5001 29.1666Z" fill="white"/>
<path d="M29.6334 16.5666C29.6334 17.7333 29.4 18.6666 29.05 19.4833C28.7 20.3 28.2334 21 27.5334 21.4666L29.5167 22.9833L28 24.3833L25.4334 22.4C25.2 22.4 24.85 22.5166 24.5 22.5166C23.8 22.5166 23.1 22.4 22.4 22.1666C21.8167 21.9333 21.2334 21.4666 20.7667 21C20.3 20.5333 19.95 19.8333 19.7167 19.1333C19.4834 18.4333 19.3667 17.6166 19.3667 16.6833V16.2166C19.3667 15.2833 19.4834 14.4666 19.7167 13.7666C19.95 13.0666 20.3 12.3666 20.7667 11.9C21.2334 11.4333 21.7 10.9666 22.4 10.7333C22.9834 10.5 23.6834 10.3833 24.5 10.3833C25.2 10.3833 25.9 10.5 26.6 10.7333C27.1834 10.9666 27.7667 11.4333 28.2334 11.9C28.7 12.3666 29.05 13.0666 29.2834 13.7666C29.5167 14.4666 29.6334 15.2833 29.6334 16.2166V16.5666ZM27.0667 15.9833C27.0667 14.7 26.8334 13.7666 26.3667 13.1833C25.9 12.4833 25.3167 12.25 24.5 12.25C23.6834 12.25 22.9834 12.6 22.6334 13.1833C22.1667 13.8833 21.9334 14.8166 21.9334 15.9833V16.5666C21.9334 17.15 22.05 17.7333 22.1667 18.2C22.2834 18.6666 22.4 19.1333 22.6334 19.3666C22.8667 19.7166 23.1 19.95 23.45 20.0666C23.8 20.1833 24.15 20.3 24.5 20.3C25.3167 20.3 26.0167 19.95 26.3667 19.3666C26.8334 18.6666 27.0667 17.7333 27.0667 16.45V15.9833Z" fill="#EDEFF0"/>
</svg>
